<?xml version="1.0" encoding="utf-8"?>
<!-- Generator: Adobe Illustrator 22.0.1, SVG Export Plug-In . SVG Version: 6.00 Build 0)  -->
<svg version="1.1" id="lni_lni-amazon-pay" xmlns="http://www.w3.org/2000/svg" xmlns:xlink="http://www.w3.org/1999/xlink" x="0px"
	 y="0px" viewBox="0 0 64 64" style="enable-background:new 0 0 64 64;" xml:space="preserve">
<path d="M1,39.5c0-0.1,0.1-0.3,0.3-0.3c0.2-0.1,0.5,0,0.7,0.1c1.1,0.6,2.1,1.1,3.2,1.7c4.1,2,8.5,3.5,12.9,4.7
	c2.1,0.4,4.2,0.8,6.4,1.1c3.2,0.4,6.4,0.6,9.6,0.4c1.7,0,3.5-0.1,5.4-0.4c5.6-0.7,11.3-2.1,16.5-4.4c0.3-0.1,0.6-0.1,1-0.1
	c0.7,0.1,0.8,0.8,0.4,1.4c-0.3,0.3-0.6,0.4-1,0.7c-3.1,2.1-6.5,3.7-10,4.8c-2.5,0.7-5.1,1.4-7.6,1.7c-4.7,0.5-9.6,0.6-14.3-0.1
	c-2.8-0.4-5.5-1.1-8.2-2.1c-1.6-0.6-3.2-1.3-4.7-2c-1.5-0.8-3-1.6-4.5-2.5C5.6,43,4.3,42,2.9,41c-0.2-0.2-0.5-0.4-0.7-0.6
	c-0.2-0.2-0.4-0.5-0.8-0.5c-0.1,0-0.2-0.1-0.3-0.1C1.1,39.6,1,39.6,1,39.5z M17,12.9l-0.4,0.1c-1.4,0.1-2.7,0.7-3.8,1.6
	c-0.3,0.1-0.4,0.4-0.7,0.6v-0.1c0-0.3-0.1-0.6-0.1-0.8c-0.1-0.4-0.3-0.7-0.7-0.7H10c-0.7,0-0.8,0.1-0.8,0.8v21.2c0,0.1,0,0.1,0,0.3
	c0,0.3,0.1,0.4,0.4,0.4c0.7,0,1.4,0,2.1,0c0.3,0,0.4-0.1,0.4-0.4c0-0.1,0-0.1,0-0.3v-7.3c0.1,0.1,0.1,0.1,0.1,0.1
	c1.8,1.6,3.8,2,6.2,1.6c2-0.4,3.5-1.7,4.5-3.5c0.7-1.4,1-3,1.1-4.5c0.1-1.7-0.1-3.4-0.7-5.1c-0.8-2-2.3-3.2-4.5-3.8
	c-0.3-0.1-0.7-0.1-1-0.1C17.7,12.9,17.4,12.9,17,12.9z M12.3,17.3c0-0.1,0.1-0.3,0.1-0.3c1.4-1,3-1.4,4.7-1.4
	c1.6,0.1,2.7,0.8,3.4,2.7c0.4,1.1,0.4,2.3,0.4,3.4c0,1.1-0.1,2.1-0.4,3.1c-0.7,2.1-2.3,3-4.4,3c-1.4-0.1-2.7-0.6-3.8-1.4
	c0-0.3,0-0.4,0-0.4c0-1.4,0-2.8,0-4.2C12.3,20.1,12.3,18.7,12.3,17.3L12.3,17.3z M33.1,12.9c-0.1,0-0.1,0-0.3,0c-1,0-2,0.1-3,0.4
	c-0.6,0.1-1.3,0.4-1.8,0.6c-0.4,0.1-0.6,0.4-0.6,0.7s0,0.7,0,1c0,0.4,0.1,0.6,0.7,0.4c0.7-0.1,1.6-0.4,2.4-0.6
	c1.3-0.1,2.5-0.3,3.8-0.1c0.7,0.1,1.3,0.3,1.7,0.8c0.4,0.4,0.4,1.1,0.6,1.7c0,0.8,0,1.7,0,2.5v0.1c-0.1,0-0.1,0-0.1,0
	c-1.1-0.3-2.1-0.4-3.2-0.4c-1.1-0.1-2.3,0-3.4,0.4c-1.4,0.4-2.3,1.3-3,2.5c-0.4,1-0.6,2-0.4,3.1c0.1,1.4,0.8,2.5,2.1,3.2
	c1.1,0.7,2.5,0.7,3.8,0.6c1.6-0.1,3-0.8,4.1-1.8c0.1,0,0.1-0.1,0.1-0.1c0.1,0.4,0.1,0.7,0.1,1.1c0.1,0.3,0.3,0.4,0.6,0.4
	c0.6,0,1.1,0,1.7,0c0.3,0,0.4-0.1,0.4-0.4c0-0.1,0-0.1,0-0.3V18.2c0-0.4,0-0.8-0.1-1.4c-0.1-1.4-0.7-2.4-2-3.1
	c-0.7-0.4-1.4-0.6-2.3-0.7c-0.4-0.1-0.7-0.1-1.1-0.1C34,12.9,33.5,12.9,33.1,12.9L33.1,12.9z M36.7,25.9c0,0.1-0.1,0.1-0.1,0.3
	c-1.1,0.7-2.4,1.4-3.8,1.6c-0.6,0.1-1.1,0-1.7-0.1c-0.6-0.1-1.1-0.7-1.3-1.4c-0.1-0.7-0.1-1.4,0-2c0.3-0.8,0.8-1.4,1.7-1.6
	c0.7-0.3,1.7-0.3,2.5-0.1c0.8,0.1,1.7,0.1,2.5,0.4c0.1,0,0.1,0.1,0.1,0.3c0,0.4,0,1,0,1.4S36.7,25.5,36.7,25.9z M62.8,39.1
	c0-0.3-0.2-0.6-0.6-0.8c-1-0.5-2.4-0.6-3.5-0.6c-2.3-0.1-4.9,0.5-6.9,1.8c-0.1,0.1-0.3,0.1-0.4,0.4c-0.1,0.1-0.1,0.3-0.1,0.4
	s0.1,0.1,0.4,0.1c0.1,0,0.1,0,0.1,0c0.7-0.1,1.6-0.1,2.3-0.3c1.4-0.3,3.2-0.2,4.6,0c0.3,0.1,0.5,0.1,0.7,0.3
	c0.4,0.3,0.4,0.9,0.3,1.4c-0.3,2.2-1.1,4.5-2.2,6.4c-0.1,0.1-0.1,0.2-0.1,0.3c0,0.2,0.3,0.3,0.5,0.3c0.2-0.1,0.4-0.2,0.5-0.4
	c0.3-0.3,0.6-0.6,0.8-0.9c1-1.2,1.7-2.7,2.3-4.2C62.1,42.1,62.9,40.5,62.8,39.1z M49.7,26.6c-1.4-3.5-2.7-7.2-4-10.9
	c-0.1-0.6-0.4-1.1-0.7-1.7c-0.1-0.3-0.3-0.4-0.7-0.4c-0.7,0-1.6,0-2.3,0c-0.3,0-0.4,0.1-0.3,0.4c0.1,0.1,0.1,0.4,0.1,0.6
	c2,4.9,4,9.9,6.1,14.7c0.1,0.4,0.1,0.7,0,1.1c-0.3,0.7-0.6,1.6-1,2.3c-0.3,0.7-0.7,1.1-1.6,1.4c-0.4,0.3-1,0.3-1.4,0.3
	c-0.3,0-0.4-0.1-0.7-0.1c-0.4,0-0.4,0.1-0.4,0.4c0,0.3,0,0.7,0,1c0,0.6,0.1,0.7,0.7,0.8s1.1,0.1,1.7,0.1c1.7,0,3.1-0.7,4-2.1
	c0.4-0.6,0.7-1.3,1-1.8c2.4-6.1,4.8-12.1,7.2-18.2c0.1-0.1,0.1-0.4,0.1-0.6c0-0.3-0.1-0.4-0.4-0.4c-0.7,0-1.4,0-2,0
	c-0.4,0-0.7,0.1-0.7,0.4c-0.1,0.1-0.1,0.3-0.1,0.4l-3.5,10.3c-0.3,0.7-0.4,1.4-0.7,2.3C49.7,26.8,49.7,26.6,49.7,26.6L49.7,26.6z"/>
</svg>
