<?xml version="1.0" encoding="utf-8"?>
<!-- Generator: Adobe Illustrator 22.0.1, SVG Export Plug-In . SVG Version: 6.00 Build 0)  -->
<svg version="1.1" id="lni_lni-amex" xmlns="http://www.w3.org/2000/svg" xmlns:xlink="http://www.w3.org/1999/xlink" x="0px"
	 y="0px" viewBox="0 0 64 64" style="enable-background:new 0 0 64 64;" xml:space="preserve">
<g>
	<path d="M57.7,14.1H6.3c-3.3,0-6,2.7-6,6v23.7c0,3.3,2.7,6,6,6h51.5c3.3,0,6-2.7,6-6V20.1C63.8,16.8,61,14.1,57.7,14.1z M60.3,43.9
		c0,1.4-1.1,2.5-2.5,2.5H6.3c-1.4,0-2.5-1.1-2.5-2.5V20.1c0-1.4,1.1-2.5,2.5-2.5h51.5c1.4,0,2.5,1.1,2.5,2.5V43.9z"/>
	<path d="M26.9,35.6l-3-10.3h-3.7v12.4l-3.1-12.4h-4.2L9.7,38.5h2.1l0.8-2.8l5,0l0.7,2.8h4.2V27.8h0.3l3.1,10.1h2.2l3-10.1h0.3v10.7
		h2.1V25.3h-3.6L26.9,35.6z M12.9,33.9l1.6-6.7h1l1.6,6.7H12.9z"/>
	<path d="M52,25.3l-2.9,5.1l-2.8-5.1H35.4v13.2h11l2.7-5l2.8,5h2.4L50.5,32l3.8-6.7H52z M45,36.6h-7.5v-3.8h0.1h4.9V31h-4.9v-3.6H45
		l2.8,4.9L45,36.6z"/>
</g>
</svg>
