<?xml version="1.0" encoding="utf-8"?>
<!-- Generator: Adobe Illustrator 22.0.1, SVG Export Plug-In . SVG Version: 6.00 Build 0)  -->
<svg version="1.1" id="lni_lni-android" xmlns="http://www.w3.org/2000/svg" xmlns:xlink="http://www.w3.org/1999/xlink" x="0px"
	 y="0px" viewBox="0 0 64 64" style="enable-background:new 0 0 64 64;" xml:space="preserve">
<g>
	<circle cx="26.6" cy="12.6" r="1.7"/>
	<circle cx="36.9" cy="12.6" r="1.7"/>
	<path d="M54.6,18.1c-0.8,0-1.6,0.2-2.4,0.5L52,18c-1.3-4-3.7-7.4-6.8-9.8l4.8-4.9c0.7-0.7,0.7-1.8,0-2.5c-0.7-0.7-1.8-0.7-2.5,0
		l-5,5.1c-0.1,0.1-0.1,0.2-0.2,0.2c-3-1.7-6.5-2.6-10.2-2.6c-3.6,0-7,0.9-10,2.5C22,6,22,5.9,21.9,5.9l-5-5.1
		c-0.7-0.7-1.8-0.7-2.5,0c-0.7,0.7-0.7,1.8,0,2.5L19.1,8c-3.2,2.5-5.6,5.9-6.9,9.9l-0.1,0.3c-0.8-0.4-1.7-0.6-2.7-0.6
		c-3.4,0-6.2,2.8-6.2,6.2v11.4c0,3.4,2.8,6.2,6.2,6.2c1,0,1.9-0.2,2.7-0.6v7.3c0,1.2,0.9,2.2,2.2,2.2h1.8v7.3c0,3.4,2.8,6.2,6.2,6.2
		c3.4,0,6.2-2.8,6.2-6.2v-7.3h6.2v7.3c0,3.4,2.8,6.2,6.2,6.2s6.2-2.8,6.2-6.2v-7.3h2.5c1.2,0,2.2-0.9,2.2-2.2v-6.9
		c0.8,0.4,1.7,0.6,2.7,0.6c3.4,0,6.2-2.8,6.2-6.2V24.3C60.8,20.9,58,18.1,54.6,18.1z M32.1,7c6.7,0,12.8,3.8,15.7,9.7H16.5
		C19.3,10.8,25.3,7,32.1,7z M9.4,38c-1.5,0-2.7-1.2-2.7-2.7V23.9c0-1.5,1.2-2.7,2.7-2.7s2.7,1.2,2.7,2.7v11.4
		C12.1,36.7,10.9,38,9.4,38z M25.1,57.5c0,1.5-1.2,2.7-2.7,2.7s-2.7-1.2-2.7-2.7v-7.3h5.4V57.5z M43.7,57.5c0,1.5-1.2,2.7-2.7,2.7
		s-2.7-1.2-2.7-2.7v-7.3h5.4V57.5z M48.4,46.8h-1.2h-1.9h-0.9h-9.6h-6.2h-9.5h-0.4h-2.6h-0.5V35.2V23.9v-3.6h32.7v4.1v11.4V46.8z
		 M57.3,35.7c0,1.5-1.2,2.7-2.7,2.7s-2.7-1.2-2.7-2.7V24.3c0-1.5,1.2-2.7,2.7-2.7s2.7,1.2,2.7,2.7V35.7z"/>
</g>
</svg>
