<?xml version="1.0" encoding="utf-8"?>
<!-- Generator: Adobe Illustrator 22.0.1, SVG Export Plug-In . SVG Version: 6.00 Build 0)  -->
<svg version="1.1" id="lni_lni-angellist" xmlns="http://www.w3.org/2000/svg" xmlns:xlink="http://www.w3.org/1999/xlink" x="0px"
	 y="0px" viewBox="0 0 64 64" style="enable-background:new 0 0 64 64;" xml:space="preserve">
<path d="M46.9,26.9C48.3,23,52.4,11.6,52.4,8c0-3.2-2-5.9-5.4-5.9c-5.4,0-10.3,15.8-11.7,19.7C34,18.3,28.7,1,23.8,1
	c-3.8,0-5.5,2.8-5.5,6.3c0,4.2,4.1,15.4,5.6,19.6c-0.7-0.3-1.6-0.4-2.4-0.4c-2.8,0-5.8,3.5-5.8,6.3c0,1.1,0.6,2.7,1,3.5
	c-4.5,1.3-6.2,4.1-6.2,8.7c0,8.7,8.2,17.9,19.9,17.9c14.2,0,23.1-10.7,23.1-24.5C53.3,33.1,52.6,28.5,46.9,26.9L46.9,26.9z
	 M42.6,14.1c0.4-1.4,2.5-7.8,4.5-7.8c1.1,0,1.4,1.1,1.4,2c0,2.3-4.8,14.9-5.6,17.9l-4.1-0.7L42.6,14.1z M22.1,6.8
	c0-1.4,1.7-5.5,5.6,5.6l4.1,12.1c-2-0.1-3.4-0.4-4.2,0.1C26.3,21.3,22.1,10.3,22.1,6.8L22.1,6.8z M21.8,30.4c3.5,0,8.2,11.4,8.2,13
	c0,0.6-0.6,1.4-1.3,1.4c-2.5,0-9.3-9.3-9.3-11.8C19.4,32.1,20.8,30.4,21.8,30.4L21.8,30.4z M44,53c-3.5,3.8-8,5.9-13.2,5.9
	c-7.2,0-12.8-3.9-15.5-10.6c-2-5.2,0.4-8.2,2.5-8.2c1.4,0,6.6,7.2,6.6,8.7c0,0.6-1,1-1.4,1c-2,0-2.7-1.8-6.2-6.2
	c-3.5,3.5,2.5,10.6,7,10.6c3.2,0,5.2-3,4.6-5.1c0.4,0,1,0,1.4-0.1c0.1,3.2,1.1,7.2,5.1,7.5c0-0.1,0.3-0.8,0.3-0.8
	c0-2.1-1.3-3.9-1.3-6.1c0-3.4,2.7-6.8,5.4-8.7c1-0.7,2.1-1.1,3.2-1.5c1.1-0.4,2.4-1,3.2-1.8c-0.1-1.4-0.7-2.5-2-2.5
	c-3.5-0.1-14.8,0.3-14.8-4.9c0-0.7,0-1.6,2.1-1.6c3.8,0,13.8,1,16.8,3.5C50,33.8,50.7,45.5,44,53L44,53z M32.2,37.6
	c1.1,0.4,2.4,0.4,3.5,0.7c-0.8,0.7-1.7,1.4-2.4,2.3C32.9,39.7,32.5,38.8,32.2,37.6z"/>
</svg>
