<?xml version="1.0" encoding="utf-8"?>
<!-- Generator: Adobe Illustrator 22.0.1, SVG Export Plug-In . SVG Version: 6.00 Build 0)  -->
<svg version="1.1" id="lni_lni-apple-pay" xmlns="http://www.w3.org/2000/svg" xmlns:xlink="http://www.w3.org/1999/xlink" x="0px"
	 y="0px" viewBox="0 0 64 64" style="enable-background:new 0 0 64 64;" xml:space="preserve">
<path d="M12.2,22.5c-0.7,0.8-1.8,1.6-3,1.4c-0.1-1.1,0.4-2.4,1.1-3.2c0.7-0.8,2-1.6,3-1.6C13.4,20.6,12.9,21.7,12.2,22.5 M13.3,24.4
	c-1.7-0.1-3.1,1-3.8,1c-0.8,0-2.1-1-3.4-1c-1.7,0-3.2,1-4.2,2.5C0,30,1.4,34.7,3.1,37.2C4,38.5,5,39.9,6.4,39.9
	c1.3,0,1.7-0.8,3.2-0.8s2,0.8,3.4,0.7c1.4,0,2.3-1.3,3.1-2.5c1-1.4,1.4-2.8,1.4-3c0,0-2.7-1.1-2.7-4.2c0-2.7,2.1-3.8,2.3-3.8
	C15.8,24.5,14,24.4,13.3,24.4 M23,20.7v18.9h3v-6.5h4.1c3.7,0,6.4-2.5,6.4-6.2s-2.5-6.2-6.2-6.2L23,20.7L23,20.7z M26,23.2h3.4
	c2.5,0,4,1.4,4,3.8s-1.4,3.8-4,3.8H26L26,23.2L26,23.2z M41.7,39.9c1.8,0,3.5-1,4.4-2.4h0.1v2.3h2.7v-9.5c0-2.7-2.1-4.5-5.5-4.5
	c-3.1,0-5.4,1.7-5.5,4.2h2.5c0.1-1.1,1.3-2,2.8-2c1.7,0,2.8,0.8,2.8,2.3v1.1l-3.7,0.1c-3.4,0.1-5.2,1.6-5.2,4
	C37,38.2,39,39.9,41.7,39.9z M42.5,37.6c-1.6,0-2.5-0.7-2.5-2c0-1.1,1-1.8,2.8-2l3.2-0.1v1.1C46.1,36.4,44.5,37.6,42.5,37.6z
	 M52.4,44.8c2.8,0,4.2-1.1,5.4-4.4L63,26.1h-3l-3.5,11.2h-0.1l-3.5-11.2h-3.1l4.9,13.8l-0.3,0.7c-0.4,1.4-1.1,2-2.4,2
	c-0.1,0-0.7,0-0.8,0v2.3C51.6,44.8,52.3,44.8,52.4,44.8L52.4,44.8z"/>
</svg>
