<?xml version="1.0" encoding="utf-8"?>
<!-- Generator: Adobe Illustrator 22.0.1, SVG Export Plug-In . SVG Version: 6.00 Build 0)  -->
<svg fill="#000000" width="52" height="52" version="1.1" id="lni_lni-music" xmlns="http://www.w3.org/2000/svg" xmlns:xlink="http://www.w3.org/1999/xlink" x="0px"
	 y="0px" viewBox="0 0 64 64" style="enable-background:new 0 0 64 64;" xml:space="preserve">
<path d="M61.2,7.9c-1-0.9-2.4-1.4-3.8-1.3L21.7,9.3c-2.6,0.2-4.6,2.4-4.6,5v12.4v0.7V45c-1.7-1-3.8-1.6-6.2-1.6
	c-5.4,0-9.7,3.1-9.7,7s4.2,7,9.7,7s9.7-3.1,9.7-7V27l38.7-3v18.2c-1.7-1-3.8-1.6-6.2-1.6c-5.4,0-9.7,3.1-9.7,7s4.2,7,9.7,7
	s9.7-3.1,9.7-7v-24v-2.4v-9.8C62.8,10.2,62.2,8.8,61.2,7.9z M10.9,53.9c-3.6,0-6.2-1.9-6.2-3.5s2.5-3.5,6.2-3.5s6.2,1.9,6.2,3.5
	S14.5,53.9,10.9,53.9z M53.1,51.3c-3.6,0-6.2-1.9-6.2-3.5s2.5-3.5,6.2-3.5s6.2,1.9,6.2,3.5S56.7,51.3,53.1,51.3z M20.6,14.3
	c0-0.8,0.6-1.4,1.4-1.5l35.7-2.7c0,0,0.1,0,0.1,0c0.4,0,0.7,0.1,1,0.4c0.3,0.3,0.5,0.7,0.5,1.1v9l-38.7,3V14.3z"/>
</svg>
