<?xml version="1.0" encoding="utf-8"?>
<!-- Generator: Adobe Illustrator 22.0.1, SVG Export Plug-In . SVG Version: 6.00 Build 0)  -->
<svg version="1.1" id="lni_lni-apple" xmlns="http://www.w3.org/2000/svg" xmlns:xlink="http://www.w3.org/1999/xlink" x="0px"
	 y="0px" viewBox="0 0 64 64" style="enable-background:new 0 0 64 64;" xml:space="preserve">
<g>
	<path d="M54.8,47.8c-1.5-0.8-2.9-2.1-4-3.8c-1.6-2.4-2.4-5-2.4-7.8c0-2.6,0.7-4.9,2.2-7.2c0.6-0.9,1.6-1.9,2.6-2.9
		c0.3-0.3,0.5-0.8,0.5-1.2s-0.2-0.9-0.5-1.3c-0.8-0.8-1.6-1.5-2.3-2c-2.1-1.5-4.5-2.2-7.3-2.2c-1.7,0-3.7,0.4-6,1.2
		c-2.3,0.8-3.9,1.2-5,1.2c-0.4,0-1.4,0-4.8-1c-2.5-0.7-4.5-1-6.1-1c-3.9,0-7.1,1.7-9.7,4.9C9.6,28,8.3,32.3,8.3,37.6
		c0,5.4,1.7,11.2,5.1,17.3c3.4,5.9,6.9,8.8,10.3,8.8c1.3,0,2.8-0.4,4.5-1.2c1.8-0.8,3.5-1.1,4.9-1.1c1.5,0,3.3,0.4,5.3,1.1
		c2.1,0.7,3.7,1.1,4.8,1.1c2.9,0,5.8-2.3,8.8-6.7c1.5-2.2,2.8-4.6,3.6-7C55.9,49.1,55.6,48.2,54.8,47.8z M49.1,55
		C49.1,55,49.1,55,49.1,55c-2.2,3.3-4.3,5.2-5.9,5.2c-0.2,0-1.1,0-3.6-0.9c-2.3-0.9-4.5-1.3-6.5-1.3c-2,0-4,0.5-6.3,1.4
		c-1.3,0.6-2.4,0.9-3.2,0.9c-0.9,0-3.5-0.7-7.3-7.1c-3.1-5.5-4.6-10.7-4.6-15.6c0-4.5,1.1-8.1,3.1-10.7c1.9-2.4,4.1-3.6,6.9-3.6
		c1.3,0,3,0.3,5.1,0.9c3.4,1,4.8,1.2,5.8,1.2c1.5,0,3.4-0.4,6.1-1.4c1.9-0.7,3.5-1,4.8-1c2,0,3.8,0.5,5.3,1.6
		c0.2,0.1,0.3,0.2,0.5,0.4c-0.7,0.7-1.3,1.4-1.8,2.1c-1.9,2.8-2.9,5.9-2.9,9.2c0,3.5,1,6.8,3,9.8c1.1,1.7,2.5,3,3.9,4
		C51.1,51.8,50.2,53.4,49.1,55z"/>
	<path d="M32.9,16c0.2,0,0.5,0,0.7-0.1c2.3-0.4,5.5-1.3,7.7-3.2l0.1-0.1c2.2-2.2,3.1-5.6,3.5-8.2c0.2-1.2-0.2-2.3-1.1-3.2
		c-0.8-0.8-2-1.2-3.2-1c-2.5,0.4-5.9,1.3-8.2,3.4C31.1,5,30,7.6,29.3,11.5c-0.2,1.2,0.1,2.5,1,3.3C31,15.6,31.9,16,32.9,16z
		 M32.7,12.2c0.9-4.5,1.9-5.8,2.1-6c1.2-1.1,3.5-2,6.3-2.4c0,0,0,0,0,0c0,0,0.1,0,0.1,0.1c0.1,0.1,0.1,0.1,0.1,0.2
		C41,6.8,40.1,8.9,39,10.1c-1.2,1-3.4,1.9-6,2.4c-0.1,0-0.2,0-0.2-0.1C32.7,12.3,32.7,12.2,32.7,12.2z"/>
</g>
</svg>
