<?xml version="1.0" encoding="utf-8"?>
<!-- Generator: Adobe Illustrator 22.0.1, SVG Export Plug-In . SVG Version: 6.00 Build 0)  -->
<svg version="1.1" id="lni_lni-altassian" xmlns="http://www.w3.org/2000/svg" xmlns:xlink="http://www.w3.org/1999/xlink" x="0px"
	 y="0px" viewBox="0 0 64 64" style="enable-background:new 0 0 64 64;" xml:space="preserve">
<path d="M19.3,29.7c-1-1-2.4-1-3,0.3L1.2,60.3c-0.6,1.1,0.3,2.7,1.7,2.7H24c0.7,0,1.4-0.4,1.7-1C30.2,52.5,27.4,38.2,19.3,29.7
	L19.3,29.7z M30.5,2c-14.6,23.4-1,42.1,7.9,60c0.3,0.6,1,1,1.7,1h21.1c1.4,0,2.3-1.4,1.7-2.7c0,0-28.3-56.9-29-58.3
	C33,0.7,31.3,0.7,30.5,2z"/>
</svg>
