<?xml version="1.0" encoding="utf-8"?>
<!-- Generator: Adobe Illustrator 22.0.1, SVG Export Plug-In . SVG Version: 6.00 Build 0)  -->
<svg version="1.1" id="lni_lni-blogger" xmlns="http://www.w3.org/2000/svg" xmlns:xlink="http://www.w3.org/1999/xlink" x="0px"
	 y="0px" viewBox="0 0 64 64" style="enable-background:new 0 0 64 64;" xml:space="preserve">
<path d="M62.9,27.5c-0.3-1.1-1-2.1-1.7-2.5c-0.3-0.1-1.8-0.3-3.5-0.4c-2.8-0.1-3.1-0.1-3.9-0.7C52.3,23,52,22.2,52,19.8
	c0-4.5-2-8.9-5.6-12.7c-2.7-2.7-5.6-4.5-9.2-5.6c-0.8-0.3-2.7-0.3-8.7-0.4c-9.6-0.1-11.7,0.1-15.1,1.4C7.4,4.8,3,9.9,1.5,16.2
	C1.2,17.5,1,19.5,1,30.7C0.9,44.8,1,46.8,2,49.6c0.7,2.4,1.4,3.7,3,5.8c3,3.8,7.2,6.6,11.4,7.3c2.1,0.3,27.3,0.4,30,0.1l0,0
	c4.5-0.6,8-2.4,11.4-5.8c2.4-2.4,3.9-5.1,4.8-8.6C63,47.1,63,46.4,63,37.8C63,31.4,63,28.3,62.9,27.5z M18.2,18.8
	c1.1-1.1,1.4-1.1,8.2-1.1c6.1,0,6.3,0,7.2,0.4c1.3,0.7,1.8,1.5,1.8,3c0,1.4-0.4,2.3-1.7,3c-0.6,0.4-1,0.4-7,0.4
	c-3.7,0-6.6-0.1-7-0.1C17.4,23.7,16.5,20.5,18.2,18.8z M44.8,46.4l-2,0.3L32,46.9c-9.4,0.1-12.1-0.1-12.7-0.3c-1-0.4-2-1.7-2-2.7
	c-0.1-1,0.4-2.4,1.1-3.1c1-0.8,1.4-0.8,13.5-1c12.4,0,12.3,0,13.5,1.1C47.1,42.6,46.8,45.2,44.8,46.4z"/>
</svg>
