<?xml version="1.0" encoding="utf-8"?>
<!-- Generator: Adobe Illustrator 22.0.1, SVG Export Plug-In . SVG Version: 6.00 Build 0)  -->
<svg version="1.1" id="lni_lni-chromecast" xmlns="http://www.w3.org/2000/svg" xmlns:xlink="http://www.w3.org/1999/xlink" x="0px"
	 y="0px" viewBox="0 0 64 64" style="enable-background:new 0 0 64 64;" xml:space="preserve">
<path d="M1.1,48.8v8.5h8.5C9.6,52.6,5.8,48.8,1.1,48.8z M1.1,37.6v5.6c7.7,0,14.1,6.3,14.1,14.1h5.6C20.7,46.5,12,37.6,1.1,37.6
	L1.1,37.6z M12.4,17.9v4.6C23.5,26.1,32.3,35,35.9,46.1h15.8V17.9H12.4z M1.1,26.4V32c14.1,0,25.4,11.4,25.4,25.4H32
	C32.1,40.2,18.2,26.4,1.1,26.4L1.1,26.4z M57.5,6.6H6.6C3.5,6.6,1,9.2,1,12.3v8.5h5.6v-8.5h50.7v39.3H37.6v5.6h19.7
	c3.1,0,5.6-2.5,5.6-5.6V12.3C63,9,60.5,6.6,57.5,6.6z"/>
</svg>
