<?xml version="1.0" encoding="utf-8"?>
<!-- Generator: Adobe Illustrator 22.0.1, SVG Export Plug-In . SVG Version: 6.00 Build 0)  -->
<svg version="1.1" id="lni_lni-creative-commons" xmlns="http://www.w3.org/2000/svg" xmlns:xlink="http://www.w3.org/1999/xlink"
	 x="0px" y="0px" viewBox="0 0 64 64" style="enable-background:new 0 0 64 64;" xml:space="preserve">
<path d="M31.7,26.9L27.5,29c-1.1-2.4-3.2-2.5-3.4-2.5c-2.8,0-4.2,1.8-4.2,5.5c0,3,1.1,5.5,4.2,5.5c1.8,0,3.1-0.8,3.8-2.7l3.8,2
	c-0.7,1.4-3.2,4.8-8.2,4.8c-2.8,0-9.2-1.3-9.2-9.6c0-7.3,5.4-9.6,9.2-9.6C27.4,22.4,30,23.8,31.7,26.9L31.7,26.9z M49.6,26.9
	L45.5,29c-1.1-2.5-3.2-2.5-3.5-2.5c-2.8,0-4.2,1.8-4.2,5.5c0,3,1.1,5.5,4.2,5.5c1.8,0,3.1-0.8,3.8-2.7l3.9,2
	c-0.3,0.4-2.7,4.8-8.2,4.8c-2.8,0-9.2-1.3-9.2-9.6c0-7.3,5.4-9.6,9.2-9.6C45.2,22.4,47.9,23.8,49.6,26.9L49.6,26.9z M31.9,1
	C14.1,1,1,15.4,1,32c0,17.3,14.2,31,30.9,31C48.2,63,63,50.5,63,32C63,14.8,49.6,1,31.9,1L31.9,1z M32.1,57.4
	C18.1,57.4,6.6,45.8,6.6,32c0-13.2,10.7-25.4,25.5-25.4c14.1,0,25.4,11.1,25.4,25.4C57.4,47.2,45,57.4,32.1,57.4L32.1,57.4z"/>
</svg>
