<?xml version="1.0" encoding="utf-8"?>
<!-- Generator: Adobe Illustrator 22.0.1, SVG Export Plug-In . SVG Version: 6.00 Build 0)  -->
<svg version="1.1" id="lni_lni-dribbble" xmlns="http://www.w3.org/2000/svg" xmlns:xlink="http://www.w3.org/1999/xlink" x="0px"
	 y="0px" viewBox="0 0 64 64" style="enable-background:new 0 0 64 64;" xml:space="preserve">
<path d="M32,0.3C14.5,0.3,0.3,14.5,0.3,32S14.5,63.8,32,63.8S63.8,49.5,63.8,32S49.5,0.3,32,0.3z M60.2,33.6
	c-6.6-0.5-13.7,0.1-20.6,1.9c-1.1-3-2.2-5.9-3.5-8.7c7.2-2.3,13.9-5.8,19.6-10.1c2.8,4.4,4.5,9.6,4.5,15.3
	C60.3,32.6,60.2,33.1,60.2,33.6z M53.7,13.9c-5.5,4.2-12,7.5-19.1,9.8C31,16.3,26.8,10,22.4,5.4c3-1.1,6.2-1.7,9.6-1.7
	C40.7,3.8,48.5,7.7,53.7,13.9z M19,7c4.3,4.3,8.5,10.4,12.2,17.7c-9.1,2.3-18.4,2.7-26.7,1C6.3,17.5,11.7,10.7,19,7z M3.9,29.1
	c3.7,0.7,7.5,1.1,11.4,1.1c5.7,0,11.6-0.8,17.4-2.4c1.3,2.7,2.4,5.6,3.5,8.6c-9.8,3-18.5,7.9-25.3,14.3c-4.4-5-7.2-11.6-7.2-18.8
	C3.8,31,3.8,30.1,3.9,29.1z M13.4,53.2c6.4-6,14.7-10.7,24-13.5c0.4,1.3,0.8,2.5,1.2,3.8c1.5,5.1,2.6,10.1,3.3,14.9
	c-3.1,1.2-6.4,1.8-9.9,1.8C24.9,60.3,18.4,57.6,13.4,53.2z M45.2,57c-0.8-4.7-1.8-9.5-3.3-14.4c-0.4-1.3-0.8-2.5-1.2-3.7
	c6.4-1.6,12.9-2.1,19-1.7C58.2,45.7,52.7,53,45.2,57z"/>
</svg>
