<?xml version="1.0" encoding="utf-8"?>
<!-- Generator: Adobe Illustrator 22.0.1, SVG Export Plug-In . SVG Version: 6.00 Build 0)  -->
<svg version="1.1" id="lni_lni-edge" xmlns="http://www.w3.org/2000/svg" xmlns:xlink="http://www.w3.org/1999/xlink" x="0px"
	 y="0px" viewBox="0 0 64 64" style="enable-background:new 0 0 64 64;" xml:space="preserve">
<path d="M3.3,28.4L3.3,28.4L3.3,28.4L3.3,28.4z M60.7,30.4c0-5.5-1-10.5-3.5-15.3C52.1,5.9,43,1,32.4,1C15,1,5.2,14.1,3.3,28.4
	c5.3-7.7,14.6-15.2,27.4-15.6c0,0,13.8,0,12.4,13.1H21.3c0.7-4.6,2.2-7.3,4.2-9.8c-9.4,4.5-15.2,12.1-15,23.6
	c0.1,8.9,6.3,18.1,15,21.5c10.4,3.9,24,0.8,29.9-2.7V45.4c-10,7-33.9,7.6-33.9-8.4h39.1V30.4L60.7,30.4z"/>
</svg>
