<svg height="512pt" viewBox="0 0 512.00018 512" width="512pt" xmlns="http://www.w3.org/2000/svg" xmlns:xlink="http://www.w3.org/1999/xlink"><linearGradient id="a" gradientUnits="userSpaceOnUse" x1=".000199" x2="512.000179" y1="256.00009" y2="256.00009"><stop offset="0" stop-color="#00f2fe"/><stop offset=".0208" stop-color="#03effe"/><stop offset=".2931" stop-color="#24d2fe"/><stop offset=".5538" stop-color="#3cbdfe"/><stop offset=".7956" stop-color="#4ab0fe"/><stop offset="1" stop-color="#4facfe"/></linearGradient><path d="m401.738281 442.710938c6.046875 9.242187 3.453125 21.636718-5.792969 27.683593-41.585937 27.195313-89.9375 41.582031-139.824218 41.605469-.039063 0-.082032 0-.121094 0-68.097656.003906-132.101562-26.234375-180.253906-73.890625-48.183594-47.683594-75.078125-111.46875-75.7343752-179.597656-.6601568-68.558594 25.4453122-133.210938 73.5039062-182.054688 48.066406-48.851562 112.265625-76 180.773437-76.45312475.5625 0 1.136719-.00390625 1.699219-.00390625 53.46875 0 104.816407 16.546875 148.613281 47.90625 43.277344 30.988281 75.519532 73.652344 93.238282 123.378906 3.707031 10.40625-1.722656 21.847656-12.125 25.554688-10.40625 3.707031-21.84375-1.722656-25.554688-12.125-30.898437-86.707032-112.84375-144.714844-204.195312-144.714844-.476563 0-.9375 0-1.414063.003906-57.796875.378906-111.964843 23.289063-152.523437 64.507813-40.546875 41.210937-62.570313 95.765625-62.015625 153.613281 1.132812 117.949219 98.019531 213.875 215.992187 213.875h.097656c42.097657-.019531 82.886719-12.148438 117.953126-35.082031 9.242187-6.046875 21.636718-3.453125 27.683593 5.792969zm110.261719-165.710938c0 50.179688-40.820312 91-91 91-32.0625 0-60.304688-16.667969-76.519531-41.796875-20.71875 26.058594-52.679688 42.796875-88.480469 42.796875-62.308594 0-113-50.691406-113-113s50.691406-113 113-113c28.277344 0 54.160156 10.441406 74 27.667969v-3.535157c0-11.042968 8.953125-20 20-20s20 8.957032 20 20v109.867188c0 28.121094 22.878906 51 51 51s51-22.878906 51-51c0-11.046875 8.953125-20 20-20s20 8.953125 20 20zm-183-21c0-40.25-32.746094-73-73-73-40.25 0-73 32.75-73 73 0 40.253906 32.75 73 73 73 40.253906 0 73-32.746094 73-73zm0 0" fill="url(#a)"/></svg>