<?xml version="1.0" encoding="utf-8"?>
<!-- Generator: Adobe Illustrator 22.0.1, SVG Export Plug-In . SVG Version: 6.00 Build 0)  -->
<svg version="1.1" id="lni_lni-facebook-messenger" xmlns="http://www.w3.org/2000/svg" xmlns:xlink="http://www.w3.org/1999/xlink"
	 x="0px" y="0px" viewBox="0 0 64 64" style="enable-background:new 0 0 64 64;" xml:space="preserve">
<path d="M31.9,1.1C14.5,1.1,1,13.9,1,31.1c0,9.1,3.7,16.9,9.7,22.2c0.4,0.4,0.7,1.1,0.8,1.7l0.1,5.5c0.1,1.7,1.8,3,3.5,2.2l6.2-2.7
	c0.4-0.1,1.1-0.3,1.7-0.1c2.8,0.7,5.8,1.3,9,1.3C49.5,61.1,63,48.3,63,31.2S49.4,1.1,31.9,1.1z M50.5,24.2l-9.1,14.3
	c-1.4,2.2-4.5,3-6.6,1.3l-7.2-5.5c-0.7-0.4-1.5-0.4-2.2,0l-9.8,7.3c-1.3,1-3-0.6-2.1-2l9.1-14.3c1.4-2.2,4.5-3,6.6-1.3l7.2,5.5
	c0.7,0.4,1.5,0.4,2.2,0l9.7-7.5C49.8,21.4,51.3,22.9,50.5,24.2z"/>
</svg>
