<?xml version="1.0" encoding="utf-8"?>
<!-- Generator: Adobe Illustrator 22.0.1, SVG Export Plug-In . SVG Version: 6.00 Build 0)  -->
<svg version="1.1" id="lni_lni-firefox" xmlns="http://www.w3.org/2000/svg" xmlns:xlink="http://www.w3.org/1999/xlink" x="0px"
	 y="0px" viewBox="0 0 64 64" style="enable-background:new 0 0 64 64;" xml:space="preserve">
<g>
	<path d="M32,61.8c-5.1,0-10.2-1.2-14.7-3.6C9.7,54.4,4.1,47.8,1.6,39.8c-2.4-7.6-1.7-15.6,1.9-22.7c-1.4-4-0.4-8.4,2.5-11.5
		c0.5-0.6,1.3-1,2.2-1c1.6,0,2.9,1.2,3,2.8c0.2,1.4,0.7,2.7,1.4,3.9l0.1,0.1c0.1,0.1,0.1,0.3,0.2,0.4c1.4-0.1,2.8-0.1,4-0.1
		c2.2-2.7,5.3-4.4,8.7-4.6l0.1,0c1.2,0,2.4,0.8,2.8,2c0.4,1,0.2,2.2-0.7,3.1c-1.8,1.7-2.7,3.4-2.9,4.1c0.4,0.2,1.4,0.5,3.3,0.5h2.7
		c1.4,0,2.6,0.9,2.9,2.3c0.3,1.2-0.2,2.4-1.3,3.2L28,25.3c-0.7,0.4-1.2,1.2-1.4,2c-0.2,0.8-0.6,1.5-1.1,2c-0.4,0.4-1.1,0.8-2.2,0.8
		l-0.1,0c-0.5,0-0.9,0-1.2,0.2l-0.2,0.1c-0.1,0.1-0.2,0.2-0.2,0.2c0.2,0.1,0.6,0.1,1.3,0.2c1.3,0.1,2.5,0.1,3.8,0.1l0.3,0
		c1.3,0,2.1,0,2.8-0.5c0.2-0.1,0.4-0.3,0.6-0.4c0.6-0.4,1.2-0.9,2-1.2c1-0.4,2.2-0.6,3.7-0.5c1,0.1,2.2,0.2,3.3,0.9
		c0.9,0.5,1.6,1.4,1.8,2.3c0.3,1.3-0.1,2.6-1.2,3.3L40,35c-0.4,0.3-0.8,0.4-1.2,0.5c-0.1,0-0.2,0.1-0.3,0.1
		c-0.3,0.1-0.7,0.4-1.1,0.7c-0.3,0.2-0.6,0.5-1,0.8c-0.5,0.3-1,0.6-1.5,0.9c-0.6,0.3-1.1,0.6-1.5,1c-0.4,0.4-0.7,1.1-1,1.8
		c-0.1,0.1-0.1,0.3-0.2,0.4c0.4,0,0.7,0,1,0l0.1,0c2.6,0,5-0.8,7.2-2.3c2.5-1.8,4.2-4.5,4.7-7.6c0.5-3.1-0.3-6.1-2.2-8.6
		c-0.8-1.1-0.8-2.5,0-3.6c0.4-0.6,1.1-1,1.9-1.2c0.8-0.1,1.6,0.1,2.3,0.5c0.4,0.3,0.7,0.5,1.1,0.8c-1.1-4.8-3.4-9.5-6.6-11.6
		l-0.1-0.1c-0.9-0.8-1.4-2-1.1-3.2c0.5-1.7,2.1-2.5,3.7-2.1l0,0c9.5,2.8,19.6,11.4,19.6,27.3v2.5C63.8,48.7,49.8,61.8,32,61.8z
		 M7.9,8.9c-1.6,2.2-2,5.1-0.9,7.7l0.3,0.8L7,18.1c-3.5,6.4-4.2,13.8-2,20.7c2.2,7.1,7.1,12.9,13.9,16.3c4.1,2.1,8.6,3.2,13.1,3.2
		c15.8,0,28.3-11.5,28.3-26.2v-2.5c0-12.5-7-19.8-14.4-23c4,4.1,6.2,11.1,6.6,17l0,0.1c0,1-0.6,1.8-1.5,2c-0.9,0.3-1.9-0.1-2.4-0.9
		c-0.3-0.4-0.6-0.8-1-1.2c1.1,2.5,1.5,5.4,1.1,8.2c-0.6,4-2.8,7.6-6.1,9.9c-2.7,1.9-5.8,2.9-9.1,2.9c-1,0.1-2-0.1-3-0.2l-0.1,0
		c-0.9-0.2-1.6-0.8-1.9-1.6c-0.3-0.8-0.2-1.7,0.2-2.4c0.2-0.3,0.4-0.8,0.6-1.2c0.4-0.8,0.8-1.8,1.6-2.6c0.7-0.8,1.6-1.3,2.4-1.7
		c0.4-0.2,0.8-0.4,1.1-0.7c0.3-0.2,0.5-0.4,0.8-0.6c0.6-0.5,1.3-1.1,2.2-1.4c-0.5-0.2-1-0.2-1.6-0.3c-1.1-0.1-1.7,0.1-2.1,0.2
		l-0.1,0c-0.4,0.2-0.8,0.4-1.3,0.8c-0.2,0.2-0.5,0.3-0.7,0.5c-1.6,1-3.3,1-4.7,1l-0.3,0c-1.4,0-2.6,0-4-0.1c-1.4-0.1-3-0.3-4-1.5
		c-0.5-0.6-0.8-1.4-0.7-2.2c0.1-1.2,0.7-2.2,1.7-3c0.1-0.1,0.3-0.3,0.6-0.4c0.8-0.5,1.9-0.7,3-0.7c0-0.1,0.1-0.1,0.1-0.2
		c0.4-1.6,1.5-3.1,2.8-4l3-2h-0.8c-3.7,0-5.9-0.8-6.6-2.5c-1-2.3,1.1-5.2,2.6-7c-2.1,0.5-3.9,1.8-5.1,3.7l-0.6,0.9l-1-0.1
		c-1.6-0.2-3.3-0.1-5.3,0.1l-0.9,0.1l-0.6-0.7c-0.4-0.4-0.9-1-1.2-1.8C8.8,11.8,8.3,10.3,7.9,8.9z M31.6,42.3
		C31.6,42.3,31.6,42.3,31.6,42.3C31.6,42.3,31.6,42.3,31.6,42.3z M43.2,5.7C43.2,5.7,43.2,5.7,43.2,5.7C43.2,5.7,43.2,5.7,43.2,5.7
		L43.2,5.7z"/>
</g>
</svg>
