<?xml version="1.0" encoding="utf-8"?>
<!-- Generator: Adobe Illustrator 22.0.1, SVG Export Plug-In . SVG Version: 6.00 Build 0)  -->
<svg version="1.1" id="lni_lni-gatsby" xmlns="http://www.w3.org/2000/svg" xmlns:xlink="http://www.w3.org/1999/xlink" x="0px"
	 y="0px" viewBox="0 0 64 64" style="enable-background:new 0 0 64 64;" xml:space="preserve">
<path d="M32,1C14.8,1,1,14.8,1,32s13.8,31,31,31s31-13.8,31-31S49.2,1,32,1z M7.6,32.3l24,24C18.5,56.2,7.8,45.5,7.6,32.3L7.6,32.3z
	 M37.5,55.7L8.3,26.5C10.9,15.7,20.4,7.6,32,7.6c8,0,15.2,3.9,19.7,10l-3.4,3c-3.5-5.2-9.6-8.5-16.3-8.5c-8.6,0-15.9,5.5-18.7,13.1
	l25.5,25.5c6.2-2.3,11-7.5,12.5-14H40.7V32h15.6C56.4,43.6,48.2,53.3,37.5,55.7L37.5,55.7z"/>
</svg>
