<?xml version="1.0" encoding="utf-8"?>
<!-- Generator: Adobe Illustrator 22.0.1, SVG Export Plug-In . SVG Version: 6.00 Build 0)  -->
<svg version="1.1" id="lni_lni-git" xmlns="http://www.w3.org/2000/svg" xmlns:xlink="http://www.w3.org/1999/xlink" x="0px"
	 y="0px" viewBox="0 0 64 64" style="enable-background:new 0 0 64 64;" xml:space="preserve">
<path d="M62.5,31L32.9,1.3c-0.4-0.4-1.4-0.4-2,0l-8.2,8.2l7.6,7.6c0.6-0.3,1.3-0.4,2-0.4c2.8,0,4.9,2.3,4.9,4.9c0,0.7-0.1,1.4-0.4,2
	l6.1,6.1c0.6-0.3,1.3-0.4,2-0.4c2.8,0,4.9,2.3,4.9,4.9c0,2.8-2.3,4.9-4.9,4.9c-2.8,0-4.9-2.3-4.9-4.9c0-0.7,0.1-1.4,0.4-2l-6.1-6.1
	h-0.1v11.5c1.8,0.8,3.1,2.5,3.1,4.6c0,2.8-2.3,4.9-4.9,4.9c-2.8,0-4.9-2.3-4.9-4.9c0-2.1,1.3-3.9,3.1-4.6V26.4
	c-1.8-0.8-3.1-2.5-3.1-4.6c0-0.7,0.1-1.4,0.4-2l-7.6-7.6L1.4,31c-0.4,0.4-0.4,1.4,0,2l29.7,29.7c0.4,0.4,1.4,0.4,2,0L62.7,33
	C63,32.4,63,31.6,62.5,31z"/>
</svg>
