<?xml version="1.0" encoding="utf-8"?>
<!-- Generator: Adobe Illustrator 22.0.1, SVG Export Plug-In . SVG Version: 6.00 Build 0)  -->
<svg version="1.1" id="lni_lni-google-wallet" xmlns="http://www.w3.org/2000/svg" xmlns:xlink="http://www.w3.org/1999/xlink"
	 x="0px" y="0px" viewBox="0 0 64 64" style="enable-background:new 0 0 64 64;" xml:space="preserve">
<path d="M22.7,14.1c5.2,8.5,8.9,15.6,11.7,22.5c-1.1,4.7-2.7,9.2-4.4,13.5c-1.8-7.3-3.7-14.1-7.8-20.6
	C23.1,24.7,22.5,19.5,22.7,14.1L22.7,14.1z M16,24.3H3.2c-0.8,0-1.4,1.1-0.8,1.7c5.8,7.6,9.9,16.2,12.7,25.9h14.4
	c-2.3-9.7-5.4-18.5-11.4-26.8C17.5,24.7,16.8,24.3,16,24.3z M22.7,12c9.4,15.1,18,32.6,19.2,51h15.6C55.8,44,48,26.2,37.7,12H22.7z
	 M57.5,2.6c-0.3-1-1.1-1.6-2.1-1.6H43.2c-0.7,0-1.3,0.7-1.1,1.4c1.8,6.3,3.1,13.2,3.7,20.3c6.6,11.8,11,24.7,12.5,37.3
	c2.3-8.3,3.5-18.5,3.5-28C61.8,21.9,60.2,12,57.5,2.6L57.5,2.6z"/>
</svg>
