<svg xmlns="http://www.w3.org/2000/svg" viewBox="0 0 68.33 68.33"><defs><style>.cls-1{fill:#231f20;}.cls-2{fill:#ed145b;}</style></defs><title>icon--color-black</title><g id="Layer_2" data-name="Layer 2"><g id="brand"><g id="icon--color-black"><path class="cls-1" d="M29.49,2,23.2.36A10.58,10.58,0,0,0,10.25,7.87L8.68,13.8A32.4,32.4,0,0,1,29.49,2Z"/><path class="cls-1" d="M1.9,39.33.36,45.14A10.58,10.58,0,0,0,7.87,58.08l6,1.6A32.41,32.41,0,0,1,1.9,39.33Z"/><path class="cls-1" d="M60.46,10.25,53.73,8.46a32.4,32.4,0,0,1,12.4,21.7l1.85-7A10.58,10.58,0,0,0,60.46,10.25Z"/><path class="cls-1" d="M38.69,66.26,45.14,68a10.58,10.58,0,0,0,12.94-7.51l1.82-6.84A32.42,32.42,0,0,1,38.69,66.26Z"/><path class="cls-2" d="M34.17,4.54A29.63,29.63,0,1,0,63.79,34.17,29.63,29.63,0,0,0,34.17,4.54ZM17.39,19.32a8.46,8.46,0,1,1,6.71,9.91A8.46,8.46,0,0,1,17.39,19.32ZM29.7,44.92A8.46,8.46,0,1,1,23,35,8.46,8.46,0,0,1,29.7,44.92Zm3.59-6.85a3.76,3.76,0,1,1,4.41-3A3.76,3.76,0,0,1,33.29,38.07ZM50.94,49a8.46,8.46,0,1,1-6.71-9.91A8.46,8.46,0,0,1,50.94,49Zm-5.6-15.68a8.46,8.46,0,1,1,9.91-6.71A8.46,8.46,0,0,1,45.34,33.33Z"/></g></g></g></svg>