<?xml version="1.0" encoding="utf-8"?>
<!-- Generator: Adobe Illustrator 22.0.1, SVG Export Plug-In . SVG Version: 6.00 Build 0)  -->
<svg version="1.1" id="lni_lni-imdb" xmlns="http://www.w3.org/2000/svg" xmlns:xlink="http://www.w3.org/1999/xlink" x="0px"
	 y="0px" viewBox="0 0 64 64" style="enable-background:new 0 0 64 64;" xml:space="preserve">
<g>
	<path d="M58.8,1L58.8,1H5.2C2.9,1.1,1.1,3,0.9,5.1v53.7C1.1,61,2.8,62.7,5,63h0.1h53.7H59c2.3-0.1,4.1-2.1,4.1-4.4V5.4
		C62.9,3.1,61.1,1.1,58.8,1z M61.7,58.6c0,1.7-1.3,3-2.8,3.1H5c-1.6-0.1-2.8-1.4-2.8-3V5.2c0.1-1.6,1.4-2.8,3-3h53.5
		c1.7,0.1,3,1.4,3,3.1V58.6z"/>
	<rect x="8.4" y="22.3" width="4.9" height="19"/>
	<path d="M22.6,31.3l-0.7-4.9c-0.1-1.5-0.4-3-0.6-4.1H15v19h4.2V28.8l1.8,12.5h3.1l1.7-12.8v12.8h4.2v-19h-6.5L22.6,31.3z"/>
	<path d="M42.1,23.8c-0.4-0.6-1.1-0.8-2-1.1c-0.8-0.1-2.3-0.3-4.5-0.3h-3.7v19c0,0,5.9,0,5.9,0c1.5,0,3.6,0.2,4.5-1.3
		c0.4-0.6,0.5-1.4,0.6-2.2c0.1-0.7,0.1-1.4,0.1-2.2c0,0,0-6.6,0-6.6c0-1.8,0-3-0.1-3.7C42.8,24.8,42.5,24.3,42.1,23.8z M38.6,35.4
		c0,1.3-0.3,2-0.4,2.3c-0.1,0.3-0.6,0.4-1.3,0.4V25.5c0.6,0,0.8,0,1.1,0.1c0.1,0.1,0.3,0.3,0.4,0.6c0.1,0.3,0.1,0.8,0.1,1.7V35.4
		L38.6,35.4z"/>
	<path d="M55.3,28.3c-0.2-0.4-0.5-0.6-1-0.8c-0.8-0.3-1.8-0.4-2.7-0.2c-0.4,0.1-0.8,0.2-1.2,0.4c-0.2,0.1-0.4,0.2-0.6,0.4
		c-0.1,0.1-0.5,0.3-0.5,0.4c0,0,0-6.2,0-6.2h-4.8v19H49l0.3-1.3c0.4,0.4,0.8,0.8,1.3,1.1c0.4,0.3,1,0.3,1.5,0.3
		c0.5,0,1.1-0.1,1.6-0.3c1.1-0.5,1.8-1.6,1.9-2.8c0.1-1.7,0.1-3.4,0.1-5.2c0-1.2,0-2.4,0-3.5C55.6,29.1,55.5,28.7,55.3,28.3z
		 M51.1,36.8c0,0.8,0,1.5-0.1,1.7c-0.1,0.3-0.4,0.4-0.8,0.4c-0.3,0-0.4-0.1-0.6-0.3c-0.1-0.3-0.1-0.7-0.1-1.5V32
		c0-0.8,0-1.4,0.1-1.5s0.3-0.3,0.6-0.3c0.3,0,0.7,0.1,0.8,0.4c0.1,0.3,0.1,0.7,0.1,1.5V36.8z"/>
</g>
</svg>
