<svg width="64" height="64" viewBox="0 0 64 64" fill="none" xmlns="http://www.w3.org/2000/svg">
<path d="M1 1V63H63V1H1ZM34.8 49.3C34.8 55.4 31.2 58.2 26 58.2C21.4 58.2 18.7 55.8 17.3 52.8L22.1 49.8C22.9 51.5 23.8 52.8 25.9 52.8C27.9 52.8 29 52.1 29 49.1V29.5H34.8V49.3ZM48.6 58.2C43.2 58.2 39.7 55.5 37.9 52.3L42.7 49.5C44 51.5 45.7 53 48.5 53C50.9 53 52.4 51.9 52.4 50C52.4 48 50.9 47.3 48.2 46.1L46.8 45.5C42.6 43.8 39.8 41.4 39.8 36.6C39.8 32.2 43 29 48.3 29C52 29 54.6 30.3 56.5 33.7L52 36.7C51 35 50 34.2 48.2 34.2C46.5 34.2 45.4 35.3 45.4 36.7C45.4 38.4 46.5 39.1 48.9 40.2L50.3 40.8C55.2 42.9 58.1 45 58.1 50C58.2 55.3 54.1 58.2 48.6 58.2Z" fill="black"/>
</svg>
