<svg width="64" height="64" viewBox="0 0 64 64" fill="none" xmlns="http://www.w3.org/2000/svg">
<path d="M56.8 43.7C57.1 39.5 55.7 35.4 52.8 32.3C55.6 29.1 57 24.8 56.5 20.7C60.2 19.3 62.7 15.6 62.7 11.4C62.7 5.89999 58.2 1.39999 52.7 1.39999C48.6 1.39999 44.9 3.89999 43.4 7.49999C39.2 7.09999 34.8 8.29999 31.5 11.2C28.4 8.39999 24.3 6.99999 20.2 7.39999C18.6 3.89999 15.1 1.29999 10.9 1.29999C5.5 1.09999 1 5.69999 1 11.2C1 15.2 3.3 18.5 6.6 20.2C6 24.7 7.3 29 10.4 32.3C7.4 35.5 6.2 39.6 6.6 43.9C3.3 45.5 1 49 1 52.8C1 58.3 5.5 62.8 11 62.8C15 62.8 18.5 60.5 20.2 57.2C24.4 57.6 28.4 56.2 31.6 53.4C34.8 56.4 39.4 57.8 43.7 57.1C45.4 60.5 48.9 62.7 52.9 62.7C58.4 62.7 62.9 58.2 62.9 52.7C63.1 48.9 60.6 45.2 56.8 43.7ZM44.1 42.4C44.1 43 44 43.5 43.4 44C42.7 44.7 41.7 44.8 40.9 44.4L43.9 41.4C43.9 41.7 44.1 42.1 44.1 42.4ZM19.5 41.5L22.5 44.5C21.8 44.8 20.8 44.6 20.1 44.1C19.7 43.7 19.4 43.1 19.4 42.5C19.4 42.1 19.4 41.7 19.5 41.5ZM31.6 35.6L28.4 32.4L31.6 29.2L34.8 32.4L31.6 35.6ZM19.4 22.3C19.4 21.7 19.5 21.2 20.1 20.7C20.8 20 21.8 19.9 22.6 20.3L19.6 23.3C19.4 22.9 19.4 22.6 19.4 22.3ZM43.8 23.2L40.8 20.2C41.5 19.9 42.6 20.1 43.3 20.6C43.7 21 44 21.6 44 22.2C44.1 22.6 43.9 22.9 43.8 23.2ZM44.5 12.6L47.2 13.3L47.6 10.5C48 7.99999 50.3 5.99999 52.7 5.99999C55.7 5.99999 57.9 8.29999 57.9 11.1C57.9 13.8 55.9 15.9 53.4 16.2L50.6 16.6L51.3 19.3C52.1 22.3 51.6 25.4 49.9 27.9L47.8 25.6C48.5 24.5 48.8 23.3 48.8 22.1C48.8 20.1 48.1 18.4 46.7 17C43.9 14.2 39.5 14.2 36.7 17L25.7 28L23.4 25.9L34.4 15C37 12.4 41 11.5 44.5 12.6ZM5.9 11.2C5.9 8.39999 8.2 6.09999 11.1 6.09999C13.6 6.09999 15.9 7.89999 16.2 10.5L16.6 13L19.1 12.4C22.1 11.7 24.9 12.3 27.3 14L25 16.3C22.3 14.6 18.6 15 16.4 17.4C15 18.8 14.3 20.5 14.3 22.5C14.3 24.5 15 26.2 16.4 27.6L27.4 38.6L25 40.6L15.3 30.6L14.2 29.5C11.5 26.8 10.7 23.1 11.5 19.3L12.2 16.9L9.7 16.3C7.5 15.8 5.9 13.6 5.9 11.2ZM19.2 52.3L16.8 51.7L16.2 54.1C15.8 56.5 13.5 58.2 11.1 58.2C8.1 58.2 5.9 55.9 5.9 53.1C5.9 50.7 7.6 48.6 9.9 48L12.3 47.4L11.7 44.7C11 41.7 11.6 38.6 13.1 36.2L15.4 38.5C14.7 39.6 14.4 40.8 14.4 42C14.4 44 15.1 45.7 16.5 47.1C19.3 49.9 23.7 49.9 26.5 47.1L37.5 36.1L39.8 38.2L28.8 49.2C26.3 52 22.7 53 19.2 52.3ZM53.1 58.1C50.4 58 48.3 56.3 47.7 53.9L47.3 51.2L44.8 52.2C41.7 53 38.4 52.6 35.9 50.8L38.2 48.5C40.9 50.2 44.6 49.8 46.8 47.4C48.2 46 48.9 44.3 48.9 42.3C48.9 40.3 48.2 38.6 46.8 37.2L35.9 26.4L38.2 24.1L49.2 35.1C51.7 37.6 52.7 41.3 51.9 44.8L51.3 47.5L54 48C56.5 48.4 58.5 50.7 58.5 53.1C58.2 55.8 55.9 58.1 53.1 58.1Z" fill="black"/>
</svg>
