<?xml version="1.0" encoding="utf-8"?>
<!-- Generator: Adobe Illustrator 22.0.1, SVG Export Plug-In . SVG Version: 6.00 Build 0)  -->
<svg version="1.1" id="lni_lni-laravel" xmlns="http://www.w3.org/2000/svg" xmlns:xlink="http://www.w3.org/1999/xlink" x="0px"
	 y="0px" viewBox="0 0 64 64" style="enable-background:new 0 0 64 64;" xml:space="preserve">
<path d="M62,15.2C61.8,15,61.8,15,62,15.2c-0.1-0.1-0.1-0.1-0.1-0.3c0,0,0-0.1-0.1-0.1l-0.1-0.1l-0.1-0.1l0,0L49.9,7.9
	c-0.3-0.1-0.7-0.1-1,0l-11.5,6.6l0,0l-0.1,0.1c0,0-0.1,0-0.1,0.1l-0.1,0.1c0,0,0,0.1-0.1,0.1c0,0.1,0,0.1-0.1,0.1v0
	c0,0.1,0,0.1,0,0.3v12.8l-9.7,5.6V8.7c0-0.1,0-0.1,0-0.3V8.3c0-0.1,0-0.1-0.1-0.1c0,0,0-0.1-0.1-0.1l-0.1-0.1l-0.1-0.1l-0.1-0.1l0,0
	L15.1,1.1c-0.3-0.1-0.7-0.1-1,0L2.6,7.7l0,0L2.5,7.9c0,0-0.1,0-0.1,0.1l0,0.1c0,0,0,0.1-0.1,0.1c0,0,0,0.1-0.1,0.1v0.1
	c0,0.1,0,0.1,0,0.3v39.8c0,0.4,0.1,0.7,0.4,0.8l23.2,13.4c0.1,0,0.1,0,0.1,0.1H26c0.1,0,0.3,0,0.4,0c0,0,0,0,0.1,0
	c0.1,0,0.1,0,0.1-0.1l22.9-13.4c0.3-0.1,0.4-0.4,0.4-0.8V36l11.1-6.3c0.3-0.1,0.4-0.4,0.4-0.8V15.5C62,15.3,62,15.2,62,15.2z
	 M14.6,3.2L14.6,3.2l9.7,5.6l-9.7,5.6L4.9,8.8L14.6,3.2z M25.1,10.5v24.3l-5.6,3.2l-4.1,2.3V16l5.6-3.2L25.1,10.5z M25.1,60.3
	L3.7,48.1V10.5l4.1,2.3l5.6,3.2v25.9V42v0.1l0,0v0.1c0,0,0,0.1,0.1,0.1l0,0c0,0,0,0.1,0.1,0.1l0.1,0.1l0,0c0,0,0.1,0,0.1,0.1
	l0.1,0.1l0,0l0,0l11.3,6.3v11H25.1z M26.1,47.5l-9.6-5.6L26.7,36l11.1-6.3l9.7,5.6l-7,4.1L26.1,47.5z M48.3,48.1L27.1,60.3V49.1
	l15.8-9l5.5-3.2V48.1z M48.3,33.6l-4.1-2.3l-5.6-3.2v-11l4.1,2.3l5.6,3.2V33.6z M49.3,20.9l-9.7-5.6l9.7-5.5l9.7,5.6L49.3,20.9z
	 M50.3,33.6v-11l5.6-3.2l4.1-2.3v11l0,0L50.3,33.6z"/>
</svg>
