<svg width="64" height="64" viewBox="0 0 64 64" fill="none" xmlns="http://www.w3.org/2000/svg">
<path fill-rule="evenodd" clip-rule="evenodd" d="M28.1679 23.6744C26.1665 21.0947 24.4764 19.6715 21.6744 19.6715C19.4505 19.6715 17.6715 21.4505 17.6715 23.6744C17.6715 25.8982 19.4505 27.6772 21.6744 27.6772C25.1435 27.6772 26.8781 25.5424 29.6356 21.7174L29.6987 21.6317C30.4751 20.5761 31.3024 19.4514 32.2376 18.3745C31.2612 19.4918 30.4071 20.6459 29.6356 21.7174C29.4525 21.9616 29.2746 22.2005 29.1019 22.4325C28.7714 22.8764 28.4601 23.2946 28.1679 23.6744ZM21.6744 13C26.6555 13 29.9022 15.446 32.3484 18.2479C34.8143 15.4448 38.0327 13 43.0231 13C48.894 13 53.6974 17.8035 53.6974 23.6744H47.026C47.026 21.4505 45.2469 19.6715 43.0231 19.6715C39.5539 19.6715 37.8193 21.8063 35.0618 25.6313C35.2444 25.3878 35.4219 25.1494 35.5942 24.9181L35.5955 24.9163L35.5958 24.9159C35.9262 24.4721 36.2374 24.0541 36.5295 23.6744C38.5309 26.254 40.2211 27.6773 43.0231 27.6773C45.2469 27.6773 47.026 25.8982 47.026 23.6744H53.6974C53.6974 29.5453 48.894 34.3487 43.0231 34.3487C38.0419 34.3487 34.7952 31.9027 32.349 29.1009C29.8831 31.9039 26.6647 34.3487 21.6744 34.3487C15.8035 34.3487 11 29.5453 11 23.6744C11 17.8035 15.8035 13 21.6744 13ZM34.9987 25.717C34.2214 26.7739 33.3931 27.9 32.4564 28.9781C33.4343 27.8596 34.2894 26.7041 35.0618 25.6313L34.9987 25.717ZM1 40.1314V51.2808H7.39875V49.8265H2.55121V40.1314H1ZM8.48945 40.907V42.4582H10.0407V40.907H8.48945ZM8.48945 43.2338V51.2808H10.0407V43.2338H8.48945ZM28.0493 40.907V42.4582H29.6005V40.907H28.0493ZM28.0493 43.2338V51.2808H29.6005V43.2338H28.0493ZM18.0391 45.1729C18.1603 45.5122 18.233 45.8515 18.2815 46.1666C18.3214 46.4262 18.3449 46.6693 18.3655 46.8824C18.3699 46.928 18.3741 46.9722 18.3784 47.0149V51.305H16.803V47.5482C16.803 47.2331 16.7787 46.918 16.7303 46.5786C16.6818 46.2393 16.5848 45.9485 16.4394 45.6576C16.294 45.391 16.1001 45.1486 15.8335 44.979C15.5668 44.8093 15.2275 44.7123 14.7912 44.7123C14.5004 44.7123 14.2338 44.7608 13.9914 44.8578C13.749 44.9547 13.5309 45.1001 13.337 45.294C13.1431 45.4879 12.9977 45.7546 12.9007 46.0939C12.7795 46.4332 12.731 46.821 12.731 47.3058H12.7068V51.305H11.1556V43.2581H12.7068V44.2276C12.9007 44.0337 13.0946 43.864 13.337 43.7186C13.846 43.4035 14.4519 43.2581 15.179 43.2581C15.7365 43.2581 16.197 43.355 16.5848 43.5247C16.9726 43.6944 17.2635 43.9367 17.5059 44.2276C17.724 44.5184 17.9179 44.8335 18.0391 45.1729ZM54.8804 45.1729C55.0016 45.5122 55.0743 45.8515 55.1227 46.1666C55.1427 46.2961 55.1585 46.4215 55.1736 46.5411C55.1952 46.7126 55.2154 46.8722 55.2439 47.0149V51.305H53.6685V47.5482C53.6685 47.2331 53.6443 46.918 53.5958 46.5786C53.5473 46.2393 53.4504 45.9485 53.3049 45.6576C53.1353 45.391 52.9414 45.1486 52.6747 44.979C52.4081 44.8093 52.0688 44.7123 51.6325 44.7123C51.3417 44.7123 51.0751 44.7608 50.8327 44.8578C50.5903 44.9547 50.3722 45.1001 50.1783 45.294C49.9844 45.4879 49.8389 45.7546 49.742 46.0939C49.6208 46.4332 49.5723 46.821 49.5723 47.3058H49.5481V51.305H47.9969V43.2581H49.5481V44.2276C49.742 44.0337 49.9359 43.864 50.1783 43.7186C50.6873 43.4035 51.2932 43.2581 52.0203 43.2581C52.5778 43.2581 53.0383 43.355 53.4261 43.5247C53.8139 43.6944 54.1048 43.9367 54.3471 44.2276C54.5653 44.5184 54.7592 44.8335 54.8804 45.1729ZM27.104 47.6693H26.3284V47.7178H25.5528H21.19C21.2385 48.348 21.4324 48.857 21.7475 49.2448C22.1353 49.7053 22.6927 49.9234 23.4441 49.9234C23.9289 49.9234 24.3409 49.8265 24.7045 49.6084C25.0438 49.4145 25.3346 49.0994 25.5285 48.7116L27.0555 49.1721C26.7404 49.8507 26.2557 50.384 25.6255 50.7475C24.9711 51.1111 24.2682 51.305 23.4926 51.305C22.6927 51.305 21.9898 51.1353 21.3839 50.796C20.778 50.4809 20.3174 50.0204 19.9781 49.4145C19.6388 48.8085 19.4691 48.1056 19.4691 47.33C19.4691 46.5059 19.6145 45.7788 19.9539 45.1729C20.2932 44.5427 20.7537 44.0822 21.3354 43.7428C21.9171 43.4035 22.62 43.2338 23.3956 43.2338C24.1955 43.2338 24.8984 43.4035 25.4801 43.7671C26.0375 44.1064 26.4738 44.6396 26.7647 45.294C27.0555 45.9727 27.1525 46.7483 27.104 47.6693ZM23.4199 44.5427C22.6443 44.5427 22.0625 44.7851 21.6747 45.2456C21.4324 45.5607 21.2627 45.9485 21.1415 46.4332H25.4801C25.4074 45.9 25.2377 45.4637 24.9953 45.1729C24.656 44.7608 24.1228 44.5427 23.4199 44.5427ZM32.3151 50.7475C32.8968 51.1111 33.5997 51.2808 34.4238 51.2808C35.2721 51.2808 36.0235 51.0869 36.6052 50.6991C37.2111 50.287 37.6474 49.7295 37.914 48.9782L36.3385 48.6146C36.1931 49.0266 35.9507 49.3417 35.6357 49.5599C35.3206 49.778 34.9328 49.8992 34.4238 49.8992C33.6724 49.8992 33.1149 49.6568 32.7514 49.1721C32.3636 48.6873 32.1697 48.0329 32.1697 47.2573C32.1697 46.7483 32.2424 46.2878 32.412 45.9C32.5575 45.4879 32.7998 45.1729 33.1392 44.9547C33.4785 44.7366 33.8905 44.6154 34.3995 44.6154C34.86 44.6154 35.2721 44.7366 35.6114 44.979C35.9507 45.2213 36.2174 45.5364 36.3628 45.9727L37.914 45.5607C37.7201 44.8578 37.3081 44.2761 36.6779 43.864C36.0477 43.452 35.2963 43.2338 34.4238 43.2338C33.6239 43.2338 32.921 43.4035 32.3393 43.7428C31.7576 44.0822 31.3213 44.5669 31.0063 45.1729C30.6912 45.7788 30.5215 46.4817 30.5215 47.2573C30.5215 48.0087 30.6669 48.7116 30.982 49.3175C31.2971 49.9234 31.7334 50.4082 32.3151 50.7475ZM40.871 50.7718C41.4527 51.1111 42.1556 51.2808 42.9554 51.2808C43.7553 51.2808 44.4339 51.1111 45.0399 50.796C45.6458 50.4324 46.1063 49.9719 46.4214 49.366C46.7365 48.76 46.9062 48.0571 46.9062 47.2573C46.9062 46.4817 46.7365 45.7788 46.4214 45.1729C46.0821 44.5669 45.6216 44.0822 45.0399 43.7428C44.4582 43.4035 43.7553 43.2338 42.9554 43.2338C42.1798 43.2338 41.4769 43.4035 40.8952 43.7428C40.2893 44.0822 39.853 44.5427 39.5137 45.1486C39.1986 45.7546 39.0289 46.4575 39.0289 47.2573C39.0289 48.0329 39.1986 48.7358 39.5137 49.3417C39.8288 49.9477 40.2893 50.4324 40.871 50.7718ZM44.6763 49.1721C44.2885 49.6568 43.731 49.8992 42.9554 49.8992C42.2041 49.8992 41.6224 49.6568 41.2588 49.1478C40.871 48.6631 40.6771 48.0329 40.6771 47.2331C40.6771 46.7241 40.7498 46.2636 40.9195 45.8758C41.0891 45.4879 41.3315 45.1729 41.6708 44.9547C42.0102 44.7366 42.4222 44.6154 42.9554 44.6154C43.731 44.6154 44.2885 44.8578 44.6763 45.3425C45.0641 45.8273 45.258 46.4575 45.258 47.2573C45.258 48.0571 45.0641 48.6873 44.6763 49.1721ZM57.3769 50.6748C58.007 51.0869 58.8069 51.2808 59.7764 51.2808C60.7944 51.2808 61.5942 51.0626 62.1274 50.6021C62.7091 50.1901 63 49.5841 63 48.8327C63 48.4449 62.903 48.1056 62.7334 47.839C62.5637 47.5724 62.2729 47.33 61.8851 47.1361C61.4973 46.918 60.964 46.7483 60.2854 46.5786C59.6552 46.4332 59.1704 46.2878 58.8554 46.1908C58.5403 46.0939 58.3221 45.9727 58.2009 45.8515C58.0798 45.7303 58.0313 45.5849 58.0313 45.4152C58.0313 45.1244 58.1767 44.9062 58.4675 44.7366C58.7584 44.5669 59.1462 44.4942 59.6067 44.5184C60.0915 44.5184 60.4793 44.6396 60.7944 44.8578C61.0852 45.0759 61.2791 45.3668 61.3276 45.7303L62.9273 45.4637C62.8788 45.0032 62.6849 44.6154 62.3941 44.2761C62.1032 43.9367 61.7154 43.6944 61.2307 43.5005C60.7459 43.3308 60.1884 43.2338 59.5825 43.2338C58.9523 43.2338 58.3948 43.3308 57.9343 43.5247C57.4738 43.7186 57.1102 43.9852 56.8436 44.3245C56.577 44.6639 56.4558 45.0759 56.4558 45.5364C56.4558 45.9 56.5528 46.2151 56.7224 46.4817C56.8921 46.7241 57.183 46.9664 57.595 47.1603C58.007 47.3543 58.5645 47.5482 59.2432 47.7178C59.8029 47.8685 60.2288 48.0001 60.5378 48.0956C60.5767 48.1076 60.6137 48.119 60.6489 48.1299C60.964 48.2268 61.1579 48.348 61.2549 48.4692C61.3518 48.5904 61.4003 48.7358 61.4003 48.9297C61.4003 49.269 61.2549 49.5114 60.9883 49.7053C60.7217 49.8992 60.3339 49.9962 59.8491 49.9962C59.3159 49.9962 58.8796 49.875 58.516 49.6568C58.1767 49.4145 57.9343 49.0994 57.8374 48.7116L56.2377 48.9539C56.3831 49.6811 56.7709 50.2628 57.3769 50.6748Z" fill="black"/>
</svg>
