<svg width="64" height="64" viewBox="0 0 64 64" fill="none" xmlns="http://www.w3.org/2000/svg">
<path fill-rule="evenodd" clip-rule="evenodd" d="M9.5 34.4346C8.50701 35.5467 7.23598 36.5 5.25 36.5C2.90654 36.5 1 34.5935 1 32.25C1 29.9065 2.90654 28 5.25 28C7.23598 28 8.54673 28.9533 9.5 30.0654C10.493 28.9533 11.764 28 13.75 28C16.0935 28 18 29.9065 18 32.25C18 34.5935 16.0935 36.5 13.75 36.5C11.764 36.5 10.4533 35.5467 9.5 34.4346ZM15.2991 32.25C15.2991 31.3762 14.5841 30.6612 13.7103 30.6612C12.5981 30.6612 11.9229 31.2173 11.1285 32.25C11.9229 33.2827 12.5981 33.8388 13.7103 33.8388C14.5841 33.8388 15.2991 33.1238 15.2991 32.25ZM7.83178 32.25C7.03738 31.2173 6.36215 30.6612 5.25 30.6612C4.37617 30.6612 3.66122 31.3762 3.66122 32.25C3.66122 33.1238 4.37617 33.8388 5.25 33.8388C6.36215 33.8388 7.03738 33.2827 7.83178 32.25ZM21 35.4368V28H22.0347V34.4668H25.2681V35.4368H21ZM25.9956 29.552V28.5174H27.0303V29.552H25.9956ZM25.9956 35.4368V30.0694H27.0303V35.4368H25.9956ZM39.0423 29.552V28.5174H40.0769V29.552H39.0423ZM39.0423 35.4368V30.0694H40.0769V35.4368H39.0423ZM32.527 32.0256C32.4947 31.8154 32.4462 31.5891 32.3653 31.3627C32.2845 31.1364 32.1552 30.9262 32.0097 30.7322C31.848 30.5382 31.654 30.3765 31.3953 30.2634C31.1366 30.1502 30.8295 30.0855 30.4576 30.0855C29.9726 30.0855 29.5685 30.1825 29.229 30.3927C29.0673 30.4897 28.938 30.6029 28.8086 30.7322V30.0855H27.7739V35.4529H28.8086V32.7854H28.8248C28.8248 32.4621 28.8571 32.2034 28.938 31.9771C29.0026 31.7507 29.0996 31.5729 29.229 31.4436C29.3583 31.3142 29.5038 31.2172 29.6655 31.1526C29.8271 31.0879 30.005 31.0556 30.199 31.0556C30.49 31.0556 30.7163 31.1202 30.8941 31.2334C31.072 31.3466 31.2013 31.5082 31.2983 31.6861C31.3953 31.8801 31.46 32.0741 31.4923 32.3004C31.5247 32.5267 31.5408 32.7369 31.5408 32.9471V35.4529H32.5917V32.5914L32.583 32.503C32.5693 32.3609 32.5536 32.1987 32.527 32.0256ZM57.1007 32.0256C57.0683 31.8154 57.0198 31.5891 56.939 31.3627C56.8582 31.1364 56.7288 30.9262 56.5833 30.7322C56.4217 30.5382 56.2276 30.3765 55.969 30.2634C55.7103 30.1502 55.4031 30.0855 55.0313 30.0855C54.5463 30.0855 54.1421 30.1825 53.8026 30.3927C53.6409 30.4897 53.5116 30.6029 53.3823 30.7322V30.0855H52.3476V35.4529H53.3823V32.7854H53.3984C53.3984 32.4621 53.4308 32.2034 53.5116 31.9771C53.5763 31.7507 53.6733 31.5729 53.8026 31.4436C53.932 31.3142 54.0775 31.2172 54.2391 31.1526C54.4008 31.0879 54.5786 31.0556 54.7726 31.0556C55.0636 31.0556 55.29 31.1202 55.4678 31.2334C55.6456 31.3466 55.775 31.5082 55.8881 31.6861C55.9851 31.8801 56.0498 32.0741 56.0822 32.3004C56.1145 32.5267 56.1306 32.7369 56.1306 32.9471V35.4529H57.1815V32.5914C57.1624 32.4963 57.149 32.39 57.1347 32.2757L57.1346 32.2753L57.1345 32.2746C57.1244 32.1951 57.1139 32.1116 57.1007 32.0256ZM37.8944 33.0279H38.4117C38.4441 32.4136 38.3794 31.8962 38.1854 31.4436C37.9914 31.0071 37.7004 30.6514 37.3286 30.425C36.9406 30.1825 36.4717 30.0694 35.9382 30.0694C35.4209 30.0694 34.952 30.1825 34.564 30.4089C34.176 30.6352 33.8689 30.9424 33.6425 31.3627C33.4162 31.7669 33.3192 32.2519 33.3192 32.8016C33.3192 33.3189 33.4323 33.7878 33.6587 34.1919C33.885 34.5961 34.1922 34.9033 34.5964 35.1134C35.0005 35.3398 35.4694 35.4529 36.0029 35.4529C36.5202 35.4529 36.9891 35.3236 37.4256 35.0811C37.8459 34.8386 38.1692 34.4829 38.3794 34.0303L37.3609 33.7231C37.2316 33.9818 37.0376 34.1919 36.8112 34.3213C36.5687 34.4668 36.2939 34.5314 35.9705 34.5314C35.4694 34.5314 35.0975 34.3859 34.8389 34.0788C34.6287 33.8201 34.4994 33.4806 34.467 33.0603H37.3771H37.8944V33.0279ZM34.7904 31.4112C35.049 31.1041 35.437 30.9424 35.9544 30.9424C36.4232 30.9424 36.7789 31.0879 37.0052 31.3627C37.1669 31.5567 37.2801 31.8477 37.3286 32.2034H34.4347C34.5155 31.8801 34.6287 31.6214 34.7904 31.4112ZM43.2941 35.4368C42.7445 35.4368 42.2756 35.3236 41.8876 35.0811C41.4996 34.8548 41.2086 34.5314 40.9984 34.1273C40.7883 33.7231 40.6913 33.2543 40.6913 32.7531C40.6913 32.2357 40.8044 31.7669 41.0146 31.3627C41.2248 30.9586 41.5158 30.6352 41.9038 30.4089C42.2918 30.1825 42.7606 30.0694 43.2941 30.0694C43.8762 30.0694 44.3773 30.2149 44.7977 30.4897C45.218 30.7646 45.4928 31.1526 45.6222 31.6214L44.5875 31.8962C44.4905 31.6052 44.3127 31.3951 44.0863 31.2334C43.86 31.0717 43.5851 30.9909 43.278 30.9909C42.9385 30.9909 42.6636 31.0717 42.4373 31.2172C42.211 31.3627 42.0493 31.5729 41.9523 31.8477C41.8391 32.1064 41.7906 32.4136 41.7906 32.7531C41.7906 33.2704 41.92 33.7069 42.1786 34.0303C42.4211 34.3536 42.793 34.5153 43.2941 34.5153C43.6337 34.5153 43.8923 34.4344 44.1025 34.2889C44.3127 34.1434 44.4743 33.9333 44.5713 33.6584L45.6222 33.9009C45.4443 34.4021 45.1533 34.7739 44.7492 35.0488C44.3612 35.3074 43.86 35.4368 43.2941 35.4368ZM48.9849 35.4368C48.4514 35.4368 47.9825 35.3236 47.5945 35.0973C47.2065 34.8709 46.8994 34.5476 46.6892 34.1434C46.479 33.7393 46.3659 33.2704 46.3659 32.7531C46.3659 32.2196 46.479 31.7507 46.6892 31.3466C46.9155 30.9424 47.2065 30.6352 47.6107 30.4089C47.9987 30.1825 48.4675 30.0694 48.9849 30.0694C49.5184 30.0694 49.9872 30.1825 50.3752 30.4089C50.7632 30.6352 51.0704 30.9586 51.2968 31.3627C51.5069 31.7669 51.6201 32.2357 51.6201 32.7531C51.6201 33.2866 51.5069 33.7554 51.2968 34.1596C51.0866 34.5638 50.7794 34.8709 50.3752 35.1134C49.9711 35.3236 49.5184 35.4368 48.9849 35.4368ZM48.9849 34.5153C49.5022 34.5153 49.8741 34.3536 50.1327 34.0303C50.3914 33.7069 50.5207 33.2866 50.5207 32.7531C50.5207 32.2196 50.3914 31.7992 50.1327 31.4759C49.8741 31.1526 49.5022 30.9909 48.9849 30.9909C48.6292 30.9909 48.3544 31.0717 48.128 31.2172C47.9017 31.3627 47.74 31.5729 47.6269 31.8316C47.5137 32.0902 47.4652 32.3974 47.4652 32.7369C47.4652 33.2704 47.5945 33.6908 47.8532 34.0141C48.0957 34.3536 48.4837 34.5153 48.9849 34.5153ZM60.2047 35.4368C59.558 35.4368 59.0245 35.3074 58.6042 35.0326C58.2 34.7578 57.9413 34.3698 57.8443 33.8848L58.9114 33.7231C58.976 33.9818 59.1377 34.1919 59.364 34.3536C59.6065 34.4991 59.8975 34.5799 60.2532 34.5799C60.5765 34.5799 60.8352 34.5153 61.013 34.3859C61.1909 34.2566 61.2879 34.0949 61.2879 33.8686C61.2879 33.7393 61.2556 33.6423 61.1909 33.5614C61.1262 33.4806 60.9969 33.3998 60.7867 33.3351L60.7126 33.3122C60.5065 33.2485 60.2224 33.1608 59.849 33.0603C59.3964 32.9471 59.0245 32.8177 58.7497 32.6884C58.4748 32.5591 58.2808 32.3974 58.1677 32.2357C58.0545 32.0579 57.9898 31.8477 57.9898 31.6052C57.9898 31.2981 58.0707 31.0232 58.2485 30.7969C58.4263 30.5706 58.6689 30.3927 58.976 30.2634C59.2832 30.134 59.655 30.0694 60.0754 30.0694C60.4795 30.0694 60.8514 30.134 61.1747 30.2472C61.4981 30.3765 61.7567 30.5382 61.9507 30.7646C62.1447 30.9909 62.2741 31.2496 62.3064 31.5567L61.2394 31.7346C61.2071 31.4921 61.0777 31.2981 60.8837 31.1526C60.6735 31.0071 60.4149 30.9262 60.0915 30.9262C59.7844 30.9101 59.5257 30.9586 59.3317 31.0717C59.1377 31.1849 59.0407 31.3304 59.0407 31.5244C59.0407 31.6376 59.073 31.7346 59.1539 31.8154C59.2347 31.8962 59.3802 31.9771 59.5904 32.0417C59.8005 32.1064 60.1239 32.2034 60.5442 32.3004C60.9969 32.4136 61.3526 32.5267 61.6112 32.6722C61.8699 32.8016 62.0639 32.9632 62.1771 33.1411C62.2902 33.3189 62.3549 33.5453 62.3549 33.8039C62.3549 34.3051 62.1609 34.7093 61.7729 34.9841C61.4172 35.2913 60.8837 35.4368 60.2047 35.4368Z" fill="black"/>
</svg>
