<?xml version="1.0" encoding="utf-8"?>
<!-- Generator: Adobe Illustrator 22.0.1, SVG Export Plug-In . SVG Version: 6.00 Build 0)  -->
<svg version="1.1" id="lni_lni-line" xmlns="http://www.w3.org/2000/svg" xmlns:xlink="http://www.w3.org/1999/xlink" x="0px"
	 y="0px" viewBox="0 0 64 64" style="enable-background:new 0 0 64 64;" xml:space="preserve">
<path d="M63,27.7C63,13.8,49,2.4,32,2.4S1,13.7,1,27.7c0,12.4,11,22.8,25.9,24.8c1,0.1,2.4,0.7,2.7,1.5c0.3,0.7,0.1,2,0.1,2.8
	c0,0-0.4,2.3-0.4,2.7c-0.1,0.7-0.6,3.1,2.7,1.5c3.2-1.4,17.8-10.6,24.4-18l0,0C60.9,38.2,63,33.2,63,27.7z M21,35
	c0,0.3-0.3,0.6-0.6,0.6h-8.7l0,0c-0.1,0-0.3-0.1-0.4-0.1l0,0l0,0c-0.1-0.1-0.1-0.3-0.1-0.4l0,0V21.5c0-0.3,0.3-0.6,0.6-0.6h2.1
	c0.3,0,0.6,0.3,0.6,0.6v10.7h5.9c0.3,0,0.6,0.3,0.6,0.6L21,35L21,35z M26.2,35c0,0.3-0.3,0.6-0.6,0.6h-2.1c-0.3,0-0.6-0.3-0.6-0.6
	V21.5c0-0.3,0.3-0.6,0.6-0.6h2.1c0.3,0,0.6,0.3,0.6,0.6V35z M41.3,35c0,0.3-0.3,0.6-0.6,0.6h-2.1c-0.1,0-0.1,0-0.1,0l0,0l0,0l0,0
	l0,0l0,0l0,0l0,0l0,0c-0.1,0-0.1-0.1-0.1-0.1L32,27.1v8c0,0.3-0.3,0.6-0.6,0.6h-2.1c-0.3,0-0.6-0.3-0.6-0.6V21.6
	c0-0.3,0.3-0.6,0.6-0.6h2.1l0,0l0,0l0,0l0,0l0,0l0,0l0,0l0,0l0,0l0,0l0,0l0,0l0,0l0,0l0,0l0,0l0,0l0,0c0,0,0,0,0.1,0.1l6.2,8.3v-8
	c0-0.3,0.3-0.6,0.6-0.6h2.4c0.3,0,0.6,0.3,0.6,0.6L41.3,35L41.3,35z M53.3,23.7c0,0.3-0.3,0.6-0.6,0.6h-5.9v2.3h5.9
	c0.3,0,0.6,0.3,0.6,0.6v2.1c0,0.3-0.3,0.6-0.6,0.6h-5.9V32h5.9c0.3,0,0.6,0.3,0.6,0.6v2.1c0,0.3-0.3,0.6-0.6,0.6H44l0,0
	c-0.1,0-0.3-0.1-0.4-0.1l0,0l0,0c-0.1-0.1-0.1-0.3-0.1-0.4l0,0V21.3l0,0c0-0.1,0.1-0.3,0.1-0.4l0,0l0,0c0.1-0.1,0.3-0.1,0.4-0.1l0,0
	h8.7c0.3,0,0.6,0.3,0.6,0.6V23.7L53.3,23.7z"/>
</svg>
