<?xml version="1.0" encoding="utf-8"?>
<!-- Generator: Adobe Illustrator 22.0.1, SVG Export Plug-In . SVG Version: 6.00 Build 0)  -->
<svg version="1.1" id="lni_lni-mailchimp" xmlns="http://www.w3.org/2000/svg" xmlns:xlink="http://www.w3.org/1999/xlink" x="0px"
	 y="0px" viewBox="0 0 64 64" style="enable-background:new 0 0 64 64;" xml:space="preserve">
<path d="M46.7,30.2c0.4-0.1,0.8-0.1,1.3,0c0.1-0.4,0.3-1.4,0.1-2.4c-0.3-1.4-0.7-2.4-1.5-2.3c-0.8,0.1-0.8,1.1-0.6,2.7
	C46,29,46.4,29.8,46.7,30.2L46.7,30.2z M39.4,31.4c0.6,0.3,1,0.4,1.1,0.3c0.3-0.3-0.4-1.3-1.7-1.8c-1.4-0.6-3-0.4-4.2,0.4
	c-0.4,0.3-0.8,0.7-0.8,1c0.1,0.4,1.4-0.4,3.1-0.4C38,30.8,38.7,31.2,39.4,31.4L39.4,31.4z M38.1,32.1c-1.3,0.1-2,0.8-1.8,1.4
	c0.1,0,0.1,0.1,0.7-0.1c0.8-0.3,1.7-0.4,2.7-0.3c0.4,0,0.6,0.1,0.7-0.1C40.5,32.8,39.5,31.9,38.1,32.1L38.1,32.1z M45.6,34.5
	c0.4-1-1.5-2-2-1C43.2,34.5,45.2,35.4,45.6,34.5L45.6,34.5z M47.7,31.6c-1.1,0-1.1,2.3,0,2.3C48.8,33.9,48.8,31.6,47.7,31.6
	L47.7,31.6z M17.6,42.5c-0.1,0-0.8,0.1-1.1-0.3c-0.7-1.1,1.5-2.8,0.4-4.9c-1.3-2.4-3.9-1.8-4.8-0.8c-1.1,1.4-1.1,3.2-0.7,3.2
	c0.6,0.1,0.6-0.8,1.1-1.7c0.4-0.8,1.7-1.1,2.4-0.4l0,0c1.7,1.1,0.1,2.4,0.3,3.9c0.1,2.4,2.5,2.3,3,1.3c0.1-0.1,0-0.1,0-0.3
	C18,42.6,18.1,42.3,17.6,42.5L17.6,42.5z M59,40.2c-0.4-1.7-0.4-1.3-1-2.8c0.3-0.4,2.1-3.2-0.4-6.1c-1.4-1.5-4.6-2.4-5.8-2.5
	c-0.1-1.5,0.7-8.2-3-11.4c3-3,4.6-6.3,4.6-9.2c0-5.5-6.6-7-14.8-3.7L37,5.4c0,0-3.1-3.1-3.2-3.1C24.5-6-4.7,26.6,4.6,34.3l2.1,1.8
	c-0.6,1.4-0.8,3.1-0.6,4.6c0.4,4.6,4.9,8.3,9.3,8.3c7.9,18.5,37,18.5,44.5,0.4c0.1-0.6,1.3-3.4,1.3-5.8C61.1,41.2,59.8,40.2,59,40.2
	L59,40.2z M15.3,46.9c-3.2-0.1-6.6-3-6.9-6.3c-0.8-8.5,10.3-10.4,11.7-1.7C20.6,42.9,19.4,47,15.3,46.9L15.3,46.9z M12.8,31.1
	c-2.1,0.4-3.9,1.5-5.1,3.2c-0.7-0.6-2-1.7-2.1-2c-1.8-3.4,2-10.1,4.5-13.8C16.6,9.2,26.7,2.2,31.5,3.5c0.8,0.1,3.4,3.1,3.4,3.1
	s-4.8,2.7-9.2,6.3C19.8,17.3,15.3,23.9,12.8,31.1L12.8,31.1z M45.7,45c0,0-4.9,0.8-9.6-1c0.8-2.8,3.7,0.8,13.2-2
	c2.1-0.6,4.8-1.8,7-3.5c0.4,1.1,0.8,2.3,1,3.4c0.4-0.1,2-0.1,1.5,2.5c-0.4,2.7-1.7,4.9-3.5,7c-1.3,1.4-2.7,2.4-4.2,3.2
	c-0.8,0.4-1.8,0.8-2.8,1.1c-7.3,2.4-14.9-0.1-17.5-5.9c-0.1-0.4-0.4-0.8-0.4-1.4c-1.1-3.8-0.1-8.2,2.7-11.1c0.1-0.1,0.4-0.4,0.4-0.7
	c0-0.1-0.1-0.4-0.3-0.6c-1-1.4-4.2-3.8-3.7-8.5c0.4-3.2,3.4-5.6,6.1-5.5h0.7c1.1,0.1,2.3,0.1,3.2,0.3c1.7,0.1,3.1-0.1,4.8-1.5
	c0.6-0.4,1.1-0.8,1.8-1.1c0.7-0.1,1.4,0,1.8,0.3c1.4,0.8,1.5,3.1,1.7,4.8c0,1,0.1,3.2,0.1,3.8c0.1,1.4,0.4,1.7,1.3,2
	c0.4,0.1,0.8,0.3,1.4,0.4c1.8,0.4,3,1.1,3.5,1.7c0.4,0.4,0.6,0.8,0.7,1.3c0.1,1.5-1.3,3.5-5.1,5.2c-6.5,3-13,2-13.8,2
	c-2.8-0.4-4.4,3.2-2.7,5.8c3.1,4.6,16.9,2.8,21-3c0.1-0.1,0-0.1-0.1-0.1c-5.8,3.9-13.4,5.2-17.7,3.5c-0.7-0.3-2-0.8-2.3-2.4
	c6.1,1.8,9.7,0.1,9.7,0.1S46,45,45.7,45L45.7,45z M24.7,18.4c2.4-2.7,5.1-5.1,7.7-6.3h0.1v0.1c-0.1,0.4-0.6,1.1-0.7,1.7
	c0,0.1,0,0.1,0.1,0.1h0c1.5-1.1,4.4-2.3,6.8-2.4c0.1,0,0.1,0,0.1,0.1v0.1c-0.4,0.3-0.8,0.7-1.1,1.1v0.1c0,0,0,0,0.1,0
	c1.7,0,4.1,0.6,5.6,1.4c0.1,0.1,0,0.3-0.1,0.1c-9.6-2.3-16.9,2.5-18.6,3.7C24.9,18.3,24.9,18.3,24.7,18.4L24.7,18.4L24.7,18.4z"/>
</svg>
