<?xml version="1.0" encoding="utf-8"?>
<!-- Generator: Adobe Illustrator 22.0.1, SVG Export Plug-In . SVG Version: 6.00 Build 0)  -->
<svg version="1.1" id="lni_lni-markdown" xmlns="http://www.w3.org/2000/svg" xmlns:xlink="http://www.w3.org/1999/xlink" x="0px"
	 y="0px" viewBox="0 0 64 64" style="enable-background:new 0 0 64 64;" xml:space="preserve">
<g>
	<path d="M58.4,13H5.5c-2.4,0-4.5,2-4.5,4.5v29.1C1,48.9,3,51,5.5,51h53c2.4,0,4.5-2,4.5-4.5V17.3C62.9,14.9,60.9,13,58.4,13z
		 M59.9,46.6c0,0.8-0.7,1.5-1.5,1.5H5.5c-0.8,0-1.5-0.7-1.5-1.5V17.3c0-0.8,0.7-1.5,1.5-1.5h53c0.8,0,1.5,0.7,1.5,1.5v29.2H59.9z"/>
	<polygon points="50.1,21.8 44.2,21.8 44.2,32.2 38.1,32.2 47.1,42.1 56,32.2 50.1,32.2 	"/>
	<polygon points="21.8,29.3 15.9,21.8 9.9,21.8 9.9,42.1 15.9,42.1 15.9,30.4 21.8,37.8 27.7,30.4 27.7,42.1 33.8,42.1 33.8,21.8 
		27.7,21.8 	"/>
</g>
</svg>
