<?xml version="1.0" encoding="utf-8"?>
<!-- Generator: Adobe Illustrator 22.0.1, SVG Export Plug-In . SVG Version: 6.00 Build 0)  -->
<svg version="1.1" id="lni_lni-microsoft" xmlns="http://www.w3.org/2000/svg" xmlns:xlink="http://www.w3.org/1999/xlink" x="0px"
	 y="0px" viewBox="0 0 64 64" style="enable-background:new 0 0 64 64;" xml:space="preserve">
<g>
	<path d="M1,30.6c9.9,0,19.7,0,29.6,0c0-9.9,0-19.7,0-29.6H1V30.6z"/>
	<path d="M63,30.6c0-9.9,0-19.7,0-29.6H33.4c0,9.9,0,19.7,0,29.6C43.3,30.6,53.1,30.6,63,30.6z"/>
	<path d="M1,63h29.6c0-9.9,0-19.7,0-29.6c-9.9,0-19.7,0-29.6,0V63z"/>
	<path d="M33.4,63H63c0-9.9,0-19.7,0-29.6c-9.9,0-19.7,0-29.6,0C33.4,43.3,33.4,53.1,33.4,63z"/>
</g>
</svg>
