<?xml version="1.0" encoding="utf-8"?>
<!-- Generator: Adobe Illustrator 22.0.1, SVG Export Plug-In . SVG Version: 6.00 Build 0)  -->
<svg version="1.1" id="lni_lni-paypal" xmlns="http://www.w3.org/2000/svg" xmlns:xlink="http://www.w3.org/1999/xlink" x="0px"
	 y="0px" viewBox="0 0 64 64" style="enable-background:new 0 0 64 64;" xml:space="preserve">
<path d="M52.8,10.9C51.8,4.5,47,0.3,40.3,0.3H18.5c-0.8,0-1.5,0.5-1.7,1.3L4.3,52.3c-0.1,0.5,0,1.1,0.3,1.5C5,54.2,5.5,54.5,6,54.5
	h6.9l-1.7,7.1c-0.1,0.5,0,1.1,0.3,1.5c0.3,0.4,0.8,0.7,1.4,0.7h15.5c0.8,0,1.5-0.6,1.7-1.4L34.8,42h5.4c4.2,0,8.5-1.7,12-4.6
	c3.5-2.9,6-6.9,7-11.2C60.8,19.5,58.1,13.4,52.8,10.9z M19.9,3.8h20.4c5.1,0,8.7,3.3,9,8.3c0.1,1.6,0,2.8-0.3,4c0,0,0,0,0,0
	c-0.8,3.4-2.9,6.8-5.9,9.3c-2.9,2.5-6.4,3.8-9.8,3.8h-6.6c-0.8,0-1.5,0.6-1.7,1.3L20.1,51H8.3L19.9,3.8z M55.9,25.4
	c-0.8,3.5-2.9,6.8-5.9,9.3c-2.9,2.5-6.4,3.8-9.8,3.8h-6.8c-0.8,0-1.5,0.6-1.7,1.4L27,60.3H15.1l1.4-5.8h4.9c0.8,0,1.5-0.6,1.7-1.3
	l4.9-20.4h5.3c4.2,0,8.5-1.7,12.1-4.6c3.6-3,6-7,7-11.1c0.2-0.6,0.3-1.3,0.3-2C55.6,17.1,56.9,21.1,55.9,25.4z"/>
</svg>
