<?xml version="1.0" encoding="utf-8"?>
<!-- Generator: Adobe Illustrator 22.0.1, SVG Export Plug-In . SVG Version: 6.00 Build 0)  -->
<svg version="1.1" id="lni_lni-php" xmlns="http://www.w3.org/2000/svg" xmlns:xlink="http://www.w3.org/1999/xlink" x="0px"
	 y="0px" viewBox="0 0 64 64" style="enable-background:new 0 0 64 64;" xml:space="preserve">
<path d="M32,17.4c16.6,0,29.3,6.9,29.3,14.7S48.6,46.9,32,46.9s-29.3-7-29.3-14.8S15.4,17.4,32,17.4 M32,15.7
	c-17.2,0-31,7.3-31,16.3s13.8,16.2,31,16.2s31-7.2,31-16.2S49.2,15.7,32,15.7z M22.1,30.8c-0.7,3.9-3.5,3.5-6.8,3.5l1.4-6.9
	C20.4,27.4,22.8,27,22.1,30.8L22.1,30.8z M10.4,41.2H14l0.8-4.4c3.9,0,6.5,0.3,8.7-1.8c2.5-2.4,3.2-6.5,1.4-8.5
	c-1-1.1-2.4-1.7-4.5-1.7h-6.9L10.4,41.2z M28.5,20.5H32l-0.8,4.4c3,0,5.9-0.1,7.3,1.1c1.4,1.4,0.7,3-0.7,11h-3.7
	c1.4-7.6,1.7-8.3,1.3-8.9c-0.4-0.6-2-0.6-4.8-0.6L28.8,37h-3.5L28.5,20.5L28.5,20.5z M49.9,30.8c-0.7,3.9-3.5,3.5-6.8,3.5l1.4-6.9
	C48.2,27.4,50.6,27,49.9,30.8L49.9,30.8z M38.2,41.2h3.5l0.8-4.2c4.2,0,6.5,0.3,8.7-1.8c2.5-2.4,3.2-6.5,1.4-8.5
	c-1-1.1-2.4-1.7-4.5-1.7h-6.9L38.2,41.2z"/>
</svg>
