<?xml version="1.0" encoding="utf-8"?>
<!-- Generator: Adobe Illustrator 22.0.1, SVG Export Plug-In . SVG Version: 6.00 Build 0)  -->
<svg version="1.1"
	 id="lni_lni-playstation" inkscape:version="0.92.3 (2405546, 2018-03-11)" sodipodi:docname="PlayStation.svg" xmlns:cc="http://creativecommons.org/ns#" xmlns:dc="http://purl.org/dc/elements/1.1/" xmlns:inkscape="http://www.inkscape.org/namespaces/inkscape" xmlns:rdf="http://www.w3.org/1999/02/22-rdf-syntax-ns#" xmlns:sodipodi="http://sodipodi.sourceforge.net/DTD/sodipodi-0.dtd" xmlns:svg="http://www.w3.org/2000/svg"
	 xmlns="http://www.w3.org/2000/svg" xmlns:xlink="http://www.w3.org/1999/xlink" x="0px" y="0px" viewBox="0 0 64 64"
	 style="enable-background:new 0 0 64 64;" xml:space="preserve">
<sodipodi:namedview  bordercolor="#666666" borderopacity="1" gridtolerance="10" guidetolerance="10" id="namedview4" inkscape:current-layer="g10" inkscape:cx="-461.5369" inkscape:cy="793.50526" inkscape:pageopacity="0" inkscape:pageshadow="2" inkscape:window-height="705" inkscape:window-maximized="1" inkscape:window-width="1366" inkscape:window-x="-8" inkscape:window-y="-8" inkscape:zoom="0.1767767" objecttolerance="10" pagecolor="#ffffff" showgrid="false">
	</sodipodi:namedview>
<g>
	<path d="M38.8,15.7v14.9c6.3,3.1,11.2,0,11.2-8c0-8.2-3-11.8-11.4-14.8c-3.4-1.1-9.6-3-13.9-3.8v44.6l10.1,3.2V14.5
		c0-1.8,0.8-3,2.1-2.5C38.4,12.3,38.8,14,38.8,15.7z"/>
	<path d="M58.8,35.4c-4.2-1.5-9.6-2.1-13.9-1.7c-4.4,0.4-7.5,1.5-7.5,1.5l-0.7,0.3v6l10.8-3.8c1.8-0.7,4.5-0.8,6-0.3
		c1.5,0.4,1.3,1.4-0.6,2.1l-16.3,5.6V51l22.1-7.9c0,0,3-1.1,4.2-2.7C64.1,39.1,63.6,37,58.8,35.4z"/>
	<path d="M2.7,38.8c-2.2,1.7-1.4,4.5,3.5,5.9c5.2,1.7,10.5,2.1,15.5,1.3c0.3,0,0.7-0.1,1-0.1v-5.2l-5.1,1.8c-1.8,0.7-4.5,0.8-6,0.3
		c-1.5-0.4-1.3-1.4,0.7-2.1L22.7,37V31L8.2,36.2C8.3,36.1,4.8,37.2,2.7,38.8z"/>
</g>
</svg>
