<?xml version="1.0" encoding="utf-8"?>
<!-- Generator: Adobe Illustrator 22.0.1, SVG Export Plug-In . SVG Version: 6.00 Build 0)  -->
<svg version="1.1" id="lni_lni-play-store" xmlns="http://www.w3.org/2000/svg" xmlns:xlink="http://www.w3.org/1999/xlink" x="0px"
	 y="0px" viewBox="0 0 64 64" style="enable-background:new 0 0 64 64;" xml:space="preserve">
<path d="M59,24.4L12.6,1.2C9.9-0.2,6.8,0,4.3,1.5c-2.5,1.6-4,4.3-4,7.3v46.4c0,3,1.5,5.7,4.1,7.3c1.4,0.9,2.9,1.3,4.5,1.3
	c1.3,0,2.6-0.3,3.8-0.9L59,39.6c2.9-1.5,4.7-4.4,4.7-7.6S61.9,25.8,59,24.4z M37.5,17.5l-9,11.6L8.8,3.7c0.8,0,1.5,0.2,2.2,0.5
	L37.5,17.5z M3.8,55.2V8.8c0-1.4,0.6-2.8,1.7-3.7L26.3,32L5.4,58.9C4.3,58,3.8,56.6,3.8,55.2z M11,59.7c-0.7,0.4-1.5,0.5-2.3,0.5
	l19.7-25.4l9,11.7L11,59.7z M57.5,36.5l-16.8,8.4L30.7,32l10-12.9l16.8,8.4c1.7,0.9,2.8,2.6,2.8,4.5C60.3,33.9,59.2,35.6,57.5,36.5z
	"/>
</svg>
