<?xml version="1.0" encoding="utf-8"?>
<!-- Generator: Adobe Illustrator 22.0.1, SVG Export Plug-In . SVG Version: 6.00 Build 0)  -->
<svg version="1.1" id="lni_lni-quora" xmlns="http://www.w3.org/2000/svg" xmlns:xlink="http://www.w3.org/1999/xlink" x="0px"
	 y="0px" viewBox="0 0 64 64" style="enable-background:new 0 0 64 64;" xml:space="preserve">
<g>
	<path d="M57.6,54.6c-1.3-0.5-3.3-1.5-4.5-2.4c0,0,0,0,0,0c6.3-5.4,9.2-12.3,9.2-21.6C62.3,13.8,48.7,0.3,32,0.3
		C15.3,0.3,1.7,13.8,1.7,30.6c0,16.8,13.6,30.4,30.3,30.4c3.6,0,7.1-0.6,10.3-1.8c2.6,3.1,6,4.6,10.2,4.6c0.9,0,4.2-0.2,4.5-0.3
		c0.9-0.1,1.6-0.8,1.6-1.7v-5.5C58.7,55.5,58.2,54.9,57.6,54.6z M55.2,60.1c-1.1,0.1-2.3,0.1-2.7,0.1c-4.6,0-6.8-2.3-8.2-4.2
		c-0.3-0.5-0.9-0.7-1.4-0.7c-0.2,0-0.5,0-0.7,0.1c-3.2,1.3-6.6,2-10.2,2c-14.8,0-26.8-12.1-26.8-26.9c0-14.8,12-26.8,26.8-26.8
		c14.8,0,26.9,12,26.9,26.8c0,8.4-2.5,14.3-8,19c0,0,0,0,0,0c-1.4,1.2-2,1.8-1.8,2.9c0,0.3,0.1,0.5,0.3,0.7c1.2,1.8,4.2,3.4,5.9,4.2
		V60.1z"/>
	<path d="M32.3,8.2c-7.7,0-13.9,6.2-13.9,13.9V39c0,7.7,6.2,13.9,13.9,13.9c2.9,0,5.8-1,8.3-2.7c0.4-0.3,0.7-0.8,0.7-1.3
		c0-0.5-0.2-1-0.6-1.4c-1.5-1.4-4.9-3.2-6.6-4.1v-2.9c3.5,0.7,7.7,1.8,8.9,2.7c0.5,0.4,1.1,0.5,1.7,0.3c0.6-0.2,1-0.7,1.1-1.3
		c0.2-0.9,0.3-11.5,0.4-20.2c0-3.7-1.4-7.2-4-9.8C39.6,9.7,36,8.2,32.3,8.2z M42.4,39.1c-3.5-1.3-8.5-2.2-9.8-2.5
		c-0.5-0.1-1,0.1-1.4,0.4c-0.4,0.3-0.6,0.8-0.6,1.3v6.1c0,0.7,0.4,1.3,1,1.6c0.9,0.5,3,1.5,4.7,2.5c-1.3,0.5-2.6,0.8-4,0.8
		c-5.7,0-10.4-4.7-10.4-10.4V22.1c0-5.7,4.7-10.4,10.4-10.4c2.8,0,5.4,1.1,7.3,3c2,2,3,4.6,3,7.3C42.6,27.3,42.5,35.2,42.4,39.1z"/>
</g>
</svg>
