<?xml version="1.0" encoding="utf-8"?>
<!-- Generator: Adobe Illustrator 22.0.1, SVG Export Plug-In . SVG Version: 6.00 Build 0)  -->
<svg version="1.1" id="lni_lni-react" xmlns="http://www.w3.org/2000/svg" xmlns:xlink="http://www.w3.org/1999/xlink" x="0px"
	 y="0px" viewBox="0 0 64 64" style="enable-background:new 0 0 64 64;" xml:space="preserve">
<path d="M51.6,22.6c-0.7-0.1-1.3-0.4-2-0.6c0.1-0.4,0.1-0.8,0.3-1.4c1.4-7.2,0.4-12.9-2.8-14.9c-3.2-1.8-8.4,0.1-13.6,4.6
	c-0.4,0.4-1.1,0.8-1.5,1.4c-0.3-0.3-0.7-0.6-1-1c-5.5-4.9-10.9-6.9-14.3-5c-3.2,1.8-4.2,7.3-2.8,14c0.1,0.7,0.3,1.4,0.4,2
	c-0.7,0.1-1.5,0.4-2.2,0.7C5.6,24.7,1,28.4,1,31.9c0,3.8,4.9,7.6,11.6,9.8c0.6,0.1,1.1,0.4,1.7,0.4c-0.1,0.7-0.4,1.4-0.4,2.2
	c-1.3,6.6-0.3,11.9,2.9,13.7c3.2,2,8.8,0,14-4.8c0.4-0.4,0.8-0.7,1.3-1.1c0.4,0.4,1.1,1,1.7,1.4c5,4.5,10.2,6.3,13.5,4.5
	c3.2-2,4.3-7.6,2.9-14.6c-0.1-0.4-0.1-1.1-0.4-1.7c0.4-0.1,0.7-0.1,1.1-0.4c7-2.1,12.1-5.9,12.1-9.7C62.9,28.5,58.1,24.9,51.6,22.6
	L51.6,22.6z M35.2,12.4c4.5-3.9,8.7-5.3,10.7-4.3c2,1.1,2.8,5.9,1.5,12.2c-0.1,0.4-0.1,0.7-0.3,1.3c-2.7-0.6-5.3-1.1-8.1-1.3
	c-1.5-2.2-3.2-4.5-5-6.3C34.4,13.2,34.8,12.8,35.2,12.4z M21.3,38.3c0.6,1.1,1.3,2.1,2,3.1c-2-0.1-3.8-0.4-5.6-0.8
	c0.4-1.7,1.1-3.5,2-5.3C20.1,36.2,20.8,37.4,21.3,38.3L21.3,38.3z M17.7,23.9c1.7-0.4,3.5-0.7,5.5-1c-0.7,1-1.3,2-1.8,3.1
	s-1.1,2-1.7,3.2C18.8,27.3,18.3,25.6,17.7,23.9L17.7,23.9z M20.9,32.2c0.7-1.7,1.7-3.2,2.7-4.9c1-1.7,2-3.2,2.9-4.8
	c1.8-0.1,3.6-0.1,5.5-0.1c1.8,0,3.8,0.1,5.5,0.1c1.1,1.5,2,3.1,2.9,4.6c1,1.5,1.8,3.2,2.7,4.9c-0.7,1.7-1.7,3.2-2.7,4.9
	c-1,1.7-2,3.2-2.9,4.8c-1.8,0.1-3.6,0.1-5.6,0.1s-3.8-0.1-5.5-0.1c-1.1-1.5-2-3.1-2.9-4.8S21.8,33.9,20.9,32.2L20.9,32.2z
	 M42.7,38.3c0.6-1.1,1.1-2.1,1.7-3.2c0.7,1.7,1.4,3.5,2,5.3c-1.8,0.4-3.8,0.7-5.8,1C41.4,40.4,42.1,39.3,42.7,38.3L42.7,38.3z
	 M44.5,29.1c-0.6-1.1-1.1-2.1-1.7-3.2s-1.3-2-1.8-2.9c2,0.3,3.8,0.6,5.5,1C45.9,25.7,45.2,27.4,44.5,29.1z M32,15.6
	c1.3,1.4,2.4,2.8,3.5,4.3c-2.4-0.1-4.8-0.1-7.2,0C29.6,18.3,30.9,16.9,32,15.6z M18,8.2c2-1.1,6.6,0.4,11.2,4.8
	c0.3,0.3,0.6,0.6,1,0.8c-1.8,2-3.5,4.2-5.2,6.3c-2.7,0.3-5.5,0.7-8.1,1.3c-0.1-0.6-0.3-1.3-0.4-1.8C15.4,13.7,16.1,9.3,18,8.2
	L18,8.2z M15.2,40c-0.4-0.1-1-0.3-1.5-0.4C11,38.9,8.2,37.5,6,35.8c-1.4-1-2.1-2.2-2.4-3.6c0-2.2,3.9-5,9.4-7
	c0.7-0.3,1.4-0.4,2.1-0.7c0.8,2.7,1.8,5.2,2.9,7.7C17,34.7,15.9,37.2,15.2,40z M29.1,51.7c-2,1.8-4.3,3.2-6.9,4.2
	c-1.4,0.7-2.9,0.7-4.2,0.1c-2-1.1-2.7-5.3-1.7-11.1c0.1-0.7,0.3-1.4,0.4-2c2.7,0.6,5.5,1,8.1,1.1c1.5,2.2,3.4,4.5,5.2,6.5
	C29.9,51.1,29.5,51.4,29.1,51.7L29.1,51.7z M32.1,48.9c-1.3-1.4-2.4-2.8-3.6-4.3c1.1,0,2.2,0.1,3.5,0.1s2.5,0,3.6-0.1
	C34.5,45.9,33.4,47.3,32.1,48.9z M47.9,52.4c-0.1,1.4-0.8,2.9-2,3.8c-2,1.1-6-0.3-10.4-4.2c-0.4-0.4-1-0.8-1.5-1.4
	c1.8-2,3.5-4.2,5-6.5c2.8-0.1,5.5-0.7,8.1-1.3c0.1,0.4,0.1,1,0.3,1.4C48.1,47,48.1,49.8,47.9,52.4L47.9,52.4z M50.1,39.5
	c-0.3,0.1-0.7,0.1-1.1,0.3c-0.8-2.7-2-5.2-3.1-7.7c1.1-2.4,2.1-5,2.9-7.6c0.7,0.1,1.3,0.4,1.8,0.6c5.6,2,9.5,4.8,9.5,7
	C60.2,34.4,56.1,37.5,50.1,39.5z M32,37.6c3.1,0,5.5-2.5,5.5-5.5s-2.5-5.5-5.5-5.5c-2.9,0-5.5,2.5-5.5,5.5S28.9,37.6,32,37.6
	L32,37.6z"/>
</svg>
