<?xml version="1.0" encoding="utf-8"?>
<!-- Generator: Adobe Illustrator 22.0.1, SVG Export Plug-In . SVG Version: 6.00 Build 0)  -->
<svg version="1.1" id="lni_lni-shopify" xmlns="http://www.w3.org/2000/svg" xmlns:xlink="http://www.w3.org/1999/xlink" x="0px"
	 y="0px" viewBox="0 0 64 64" style="enable-background:new 0 0 64 64;" xml:space="preserve">
<g>
	<path d="M40.5,63l18.8-4.1c0,0-6.8-45.8-6.8-46c-0.1-0.3-0.3-0.4-0.4-0.4S47,12,47,12s-3.4-3.2-3.8-3.5c-0.1-0.1-0.1-0.1-0.3-0.1
		L40.5,63z"/>
	<path d="M42.1,8.2c-0.1,0-0.1,0-0.1,0.1c-0.1,0-0.7,0.1-1.8,0.6c-1.1-3.2-3-6.1-6.5-6.1c-0.1,0-0.1,0-0.3,0c-1-1.4-2.1-1.8-3.2-1.8
		C22,1,18.1,11,17,16.1c-3.1,1-5.4,1.7-5.6,1.7c-1.7,0.4-1.7,0.6-2,2.3c-0.1,1.3-4.7,36.6-4.7,36.6L39.8,63L42.1,8.2z M33.1,10.6
		c0,0.1,0,0.3,0,0.3c-2,0.6-4.1,1.3-6.2,2c1.1-4.7,3.4-6.8,5.5-7.6C32.6,6.5,33.1,8.2,33.1,10.6z M29.8,3c0.3,0,0.7,0.1,1.1,0.3
		c-2.7,1.1-5.4,4.2-6.5,10.3c-1.7,0.4-3.4,1.1-4.8,1.6C20.8,10.6,24,3,29.8,3z M31.2,30.1c0,0-2-1.1-4.7-1.1c-3.7,0-4,2.4-4,3
		c0,3.2,8.5,4.5,8.5,12c0,5.9-3.8,9.9-8.9,9.9C16.1,53.8,13,50,13,50l1.7-5.4c0,0,3.2,2.8,5.9,2.8c1.7,0,2.5-1.4,2.5-2.4
		c0-4.2-6.9-4.4-6.9-11.4c0-5.8,4.2-11.4,12.6-11.4c3.2,0,4.8,1,4.8,1L31.2,30.1z M34.3,4.8C36,5,37.3,7.1,38,9.3
		c-0.8,0.3-2,0.6-3,1c0-0.1,0-0.4,0-0.7C35,7.8,34.9,6.1,34.3,4.8z"/>
</g>
</svg>
