<?xml version="1.0" encoding="utf-8"?>
<!-- Generator: Adobe Illustrator 22.0.1, SVG Export Plug-In . SVG Version: 6.00 Build 0)  -->
<svg version="1.1" id="lni_lni-slack" xmlns="http://www.w3.org/2000/svg" xmlns:xlink="http://www.w3.org/1999/xlink" x="0px"
	 y="0px" viewBox="0 0 64 64" style="enable-background:new 0 0 64 64;" xml:space="preserve">
<g>
	<path d="M23.8,33.7c-3.5,0-6.5,3-6.5,6.5v16.2c0,3.5,3,6.5,6.5,6.5s6.5-3,6.5-6.5V40.2C30.3,36.5,27.5,33.7,23.8,33.7L23.8,33.7z"
		/>
	<path d="M1,40.2c0,3.5,3,6.5,6.5,6.5s6.5-3,6.5-6.5v-6.5H7.6l0,0C4,33.7,1,36.5,1,40.2z"/>
	<path d="M23.8,1L23.8,1c-3.5,0-6.5,3-6.5,6.5s3,6.5,6.5,6.5h6.5c0-3.7,0-2.8,0-6.5C30.3,4,27.5,1,23.8,1z"/>
	<path d="M7.5,30.3h16.3c3.5,0,6.5-3,6.5-6.5s-3-6.5-6.5-6.5H7.5c-3.5,0-6.5,3-6.5,6.5S3.8,30.3,7.5,30.3L7.5,30.3z"/>
	<path d="M56.4,17.3c-3.5,0-6.5,3-6.5,6.5l0,0v6.5h6.5c3.5,0,6.5-3,6.5-6.5S60,17.3,56.4,17.3L56.4,17.3z"/>
	<path d="M33.7,7.5v16.3c0,3.5,3,6.5,6.5,6.5s6.5-3,6.5-6.5V7.5c0-3.5-3-6.5-6.5-6.5C36.5,1,33.7,4,33.7,7.5L33.7,7.5z"/>
	<path d="M46.7,56.5c0-3.5-3-6.5-6.5-6.5h-6.5v6.5c0,3.5,3,6.5,6.5,6.5C43.7,63,46.7,60,46.7,56.5L46.7,56.5z"/>
	<path d="M56.5,33.7H40.2c-3.5,0-6.5,3-6.5,6.5s3,6.5,6.5,6.5h16.3c3.5,0,6.5-3,6.5-6.5C63,36.5,60,33.7,56.5,33.7z"/>
</g>
</svg>
