<?xml version="1.0" encoding="utf-8"?>
<!-- Generator: Adobe Illustrator 22.0.1, SVG Export Plug-In . SVG Version: 6.00 Build 0)  -->
<svg version="1.1" id="lni_lni-slack-line" xmlns="http://www.w3.org/2000/svg" xmlns:xlink="http://www.w3.org/1999/xlink" x="0px"
	 y="0px" viewBox="0 0 64 64" style="enable-background:new 0 0 64 64;" xml:space="preserve">
<g>
	<path d="M20.2,13.6h4.6c1,0,1.8-0.8,1.8-1.8V7.2c0-3.2-2.1-6.1-5.1-6.7c-2.2-0.5-4.5,0.1-6.2,1.7c-1.6,1.6-2.3,4-1.8,6.3
		C14.2,11.5,17,13.6,20.2,13.6z M17.8,4.7c0.6-0.6,1.3-0.9,2.2-0.9c0.2,0,0.5,0,0.7,0.1C22.1,4.2,23,5.6,23,7.2v2.9h-2.8
		c-1.6,0-3-1-3.3-2.4v0C16.7,6.6,17,5.5,17.8,4.7z"/>
	<path d="M9.7,32.7h11.2c4.7,0,8.4-3.8,8.4-8.4c0-4.6-3.8-8.4-8.4-8.4H9.7c-4.7,0-8.4,3.8-8.4,8.4C1.2,28.9,5,32.7,9.7,32.7z
		 M9.7,19.4h11.2c2.7,0,4.9,2.2,4.9,4.9c0,2.7-2.2,4.9-4.9,4.9H9.7c-2.7,0-4.9-2.2-4.9-4.9C4.7,21.6,6.9,19.4,9.7,19.4z"/>
	<path d="M39.5,28.6c4.6,0,8.3-3.8,8.3-8.5V8.8c0-4.7-3.7-8.5-8.3-8.5s-8.3,3.8-8.3,8.5V20C31.2,24.7,34.9,28.6,39.5,28.6z
		 M34.7,8.8c0-2.8,2.2-5,4.8-5s4.8,2.3,4.8,5V20c0,2.8-2.2,5-4.8,5s-4.8-2.3-4.8-5V8.8z"/>
	<path d="M53.6,30.7h-8.7c-4.6,0-8.3,3.7-8.3,8.2c0,4.5,3.7,8.2,8.3,8.2h8.7c4.6,0,8.3-3.7,8.3-8.2C61.9,34.4,58.1,30.7,53.6,30.7z
		 M53.6,43.7h-8.7c-2.6,0-4.8-2.1-4.8-4.7s2.2-4.7,4.8-4.7h8.7c2.6,0,4.8,2.1,4.8,4.7S56.2,43.7,53.6,43.7z"/>
	<path d="M26.1,37c-4.4,0-7.9,3.7-7.9,8.2V54c0,4.5,3.6,8.2,7.9,8.2s7.9-3.7,7.9-8.2v-8.9C34.1,40.6,30.5,37,26.1,37z M30.6,54
		c0,2.6-2,4.7-4.4,4.7s-4.4-2.1-4.4-4.7v-8.9c0-2.6,2-4.7,4.4-4.7s4.4,2.1,4.4,4.7V54z"/>
	<path d="M60.9,16.2c-1.6-1.6-3.8-2.2-5.9-1.7c-2.8,0.7-4.9,3.4-4.9,6.5l0,4.4c0,1,0.8,1.7,1.8,1.7h4.3c3.1,0,5.8-2.1,6.4-4.9
		C63.1,20,62.5,17.8,60.9,16.2z M59.2,21.5c-0.3,1.3-1.6,2.2-3,2.2h-2.6l0-2.6c0-1.5,0.9-2.8,2.2-3.1c1-0.2,2,0,2.7,0.8
		C59.2,19.4,59.4,20.4,59.2,21.5z"/>
	<path d="M12.7,36.1H8.4c-3.1,0-5.8,2.1-6.4,4.9c-0.5,2.2,0.1,4.5,1.7,6c1.2,1.2,2.8,1.8,4.5,1.8c0.5,0,1-0.1,1.5-0.2c0,0,0,0,0,0
		c2.8-0.7,4.9-3.4,4.9-6.5v-4.4C14.4,36.9,13.7,36.1,12.7,36.1z M10.9,42.2c0,1.5-0.9,2.8-2.2,3.1c-1,0.2-2,0-2.7-0.8
		c-0.7-0.7-1-1.7-0.8-2.8c0.3-1.3,1.6-2.2,3-2.2h2.6V42.2z"/>
	<path d="M43.9,50.9h-4.3c-1,0-1.8,0.8-1.8,1.8v4.4c0,3.1,2.1,5.8,4.9,6.5c0.5,0.1,1,0.2,1.5,0.2c1.7,0,3.3-0.6,4.5-1.8
		c1.6-1.6,2.2-3.8,1.7-6C49.7,53,47,50.9,43.9,50.9z M46.1,59.4c-0.7,0.7-1.7,1-2.7,0.8c-1.3-0.3-2.2-1.6-2.2-3.1v-2.6h2.6
		c1.5,0,2.7,0.9,3,2.2C47.1,57.7,46.8,58.7,46.1,59.4z"/>
</g>
</svg>
