<?xml version="1.0" encoding="utf-8"?>
<!-- Generator: Adobe Illustrator 22.0.1, SVG Export Plug-In . SVG Version: 6.00 Build 0)  -->
<svg version="1.1" id="lni_lni-steam" xmlns="http://www.w3.org/2000/svg" xmlns:xlink="http://www.w3.org/1999/xlink" x="0px"
	 y="0px" viewBox="0 0 64 64" style="enable-background:new 0 0 64 64;" xml:space="preserve">
<g>
	<path d="M31.9,0.9C15.7,0.9,2.1,13.5,1,29.5l16.6,6.9c1.4-1,3.1-1.4,4.9-1.4c0.1,0,0.4,0,0.4,0l7.3-10.9c0-0.1,0-0.1,0-0.1
		c0-6.5,5.2-11.7,11.7-11.7S53.7,17.5,53.7,24S48.5,35.7,42,35.7c-0.1,0-0.1,0-0.3,0l-10.6,7.6c0,0.1,0,0.3,0,0.4
		c0,4.8-3.9,8.9-8.9,8.9c-4.2,0-7.9-3.1-8.6-7L2,40.5c3.7,13,15.8,22.7,29.9,22.7C49,63.1,63,49.2,63,32S49,0.9,31.9,0.9z"/>
	<path d="M20.4,48.1l-3.8-1.5c0.7,1.4,1.8,2.7,3.4,3.2c3.2,1.4,7.2-0.1,8.6-3.5c0.7-1.7,0.7-3.4,0-5.1s-2-3-3.5-3.7
		c-1.6-0.7-3.2-0.6-4.8-0.1l3.9,1.7c2.4,1.1,3.7,3.9,2.7,6.3C25.8,47.9,23,49,20.4,48.1z"/>
	<path d="M50,24c0-4.2-3.5-7.9-7.9-7.9c-4.2,0-7.9,3.5-7.9,7.9s3.7,7.9,7.9,7.9S50,28.3,50,24z M36.4,24c0-3.2,2.7-5.8,5.8-5.8
		c3.2,0,5.8,2.7,5.8,5.8c0,3.2-2.7,5.8-5.8,5.8C39,29.9,36.4,27.2,36.4,24z"/>
</g>
</svg>
