<svg id="Capa_1" enable-background="new 0 0 512 512" height="512" viewBox="0 0 512 512" width="512" xmlns="http://www.w3.org/2000/svg"><g><path d="m419.66 96.65v94.73c0 4.71-3.81 8.52-8.52 8.52h-45.24c-4.7 0-8.51-3.81-8.51-8.52v-32.45c0-4.71-3.82-8.52-8.52-8.52h-53.21c-4.71 0-8.52 3.81-8.52 8.52v234.14c0 4.71 3.81 8.52 8.52 8.52h23.27c4.71 0 8.52 3.81 8.52 8.52v45.24c0 4.7-3.81 8.51-8.52 8.51h-125.86c-4.71 0-8.52-3.81-8.52-8.51v-45.24c0-4.71 3.81-8.52 8.52-8.52h23.27c4.71 0 8.52-3.81 8.52-8.52v-234.14c0-4.71-3.81-8.52-8.52-8.52h-53.21c-4.7 0-8.52 3.81-8.52 8.52v32.45c0 4.71-3.81 8.52-8.51 8.52h-45.24c-4.71 0-8.52-3.81-8.52-8.52v-94.73c0-4.7 3.81-8.51 8.52-8.51h310.28c4.71 0 8.52 3.81 8.52 8.51z" fill="#334973"/><g><path d="m15 114.235c-8.284 0-15-6.716-15-15v-84.235c0-8.284 6.716-15 15-15h84.235c8.284 0 15 6.716 15 15s-6.716 15-15 15h-69.235v69.235c0 8.285-6.716 15-15 15z" fill="#7ed8f6"/></g><g><path d="m497 114.235c-8.284 0-15-6.716-15-15v-69.235h-69.235c-8.284 0-15-6.716-15-15s6.716-15 15-15h84.235c8.284 0 15 6.716 15 15v84.235c0 8.285-6.716 15-15 15z" fill="#6aa9ff"/></g><g><path d="m497 512h-84.235c-8.284 0-15-6.716-15-15s6.716-15 15-15h69.235v-69.235c0-8.284 6.716-15 15-15s15 6.716 15 15v84.235c0 8.284-6.716 15-15 15z" fill="#6aa9ff"/></g><g><path d="m99.235 512h-84.235c-8.284 0-15-6.716-15-15v-84.235c0-8.284 6.716-15 15-15s15 6.716 15 15v69.235h69.235c8.284 0 15 6.716 15 15s-6.715 15-15 15z" fill="#7ed8f6"/></g><path d="m419.66 96.65v94.73c0 4.71-3.81 8.52-8.52 8.52h-45.24c-4.7 0-8.51-3.81-8.51-8.52v-32.45c0-4.71-3.82-8.52-8.52-8.52h-53.21c-4.71 0-8.52 3.81-8.52 8.52v234.14c0 4.71 3.81 8.52 8.52 8.52h23.27c4.71 0 8.52 3.81 8.52 8.52v45.24c0 4.7-3.81 8.51-8.52 8.51h-62.93v-375.72h155.14c4.71 0 8.52 3.81 8.52 8.51z" fill="#1f3259"/></g></svg>