<?xml version="1.0" encoding="iso-8859-1"?>
<!-- Generator: Adobe Illustrator 21.0.0, SVG Export Plug-In . SVG Version: 6.00 Build 0)  -->
<svg xmlns="http://www.w3.org/2000/svg" xmlns:xlink="http://www.w3.org/1999/xlink" version="1.1" id="Capa_1" x="0px" y="0px" viewBox="0 0 511.991 511.991" style="enable-background:new 0 0 511.991 511.991;" xml:space="preserve" width="512" height="512">
<g>
	<path style="fill:#47568C;" d="M296.303,511.991c-26.421,0-52.365-4.96-77.377-14.816c-23.369-9.206-39.961-22.721-50.721-41.317   c-9.906-17.123-14.556-38.3-14.21-64.736V225h-45c-8.284,0-15-6.716-15-15v-67.21c0-6.429,4.098-12.144,10.188-14.207   c51.915-17.587,80.348-55.275,86.922-115.219C191.939,5.759,198.364,0,206.015,0h67.98c8.284,0,15,6.716,15,15   c0,0.111,0,45.007-0.008,104.91h97.008c8.284,0,15,6.716,15,15V210c0,8.284-6.716,15-15,15h-97.022   c-0.01,55.966-0.021,111.691-0.048,145.81c0.974,20.004,9.701,25.253,12.58,26.985c21.128,12.706,68.414-1.517,95.042-14.177   c4.646-2.209,10.105-1.885,14.456,0.864c4.351,2.749,6.992,7.533,6.992,12.679v73.05c0,5.772-3.313,11.032-8.518,13.527   c-32.078,15.372-63.521,24.57-93.456,27.339C309.426,511.687,302.848,511.991,296.303,511.991z"/>
	<path style="fill:#2C3B73;" d="M296.303,511.991c6.545,0,13.123-0.305,19.719-0.915c29.936-2.769,61.378-11.968,93.456-27.339   c5.205-2.495,8.518-7.755,8.518-13.527v-73.05c0-5.146-2.642-9.93-6.992-12.679c-4.351-2.749-9.81-3.073-14.456-0.864   c-26.628,12.66-73.914,26.883-95.042,14.177c-2.879-1.731-11.606-6.981-12.58-26.985c0.027-34.119,0.038-89.844,0.048-145.81   h97.022c8.284,0,15-6.716,15-15v-75.09c0-8.284-6.716-15-15-15h-97.008c0.008-59.904,0.008-104.799,0.008-104.91   c0-8.284-6.716-15-15-15h-34v504.245C258.403,509.391,277.228,511.991,296.303,511.991z"/>
</g>















</svg>
