<?xml version="1.0" encoding="utf-8"?>
<!-- Generator: Adobe Illustrator 22.0.1, SVG Export Plug-In . SVG Version: 6.00 Build 0)  -->
<svg version="1.1" id="lni_lni-wordpress" xmlns="http://www.w3.org/2000/svg" xmlns:xlink="http://www.w3.org/1999/xlink" x="0px"
	 y="0px" viewBox="0 0 64 64" style="enable-background:new 0 0 64 64;" xml:space="preserve">
<path d="M58.6,16.2c-0.8-1.4-2-3-3-4.1C49.8,5.1,41.2,1,32,1C19.7,1,8.7,8,3.7,19.2c-0.1,0.3-0.3,0.6-0.4,0.8
	c-0.1,0.4-0.4,1.1-0.7,1.8c0,0.1-0.1,0.3-0.1,0.4C1.4,25.4,1,28.8,1,32c0,11,5.6,20.9,15.1,26.5l0.4,0.3l0,0
	c0.6,0.3,1.1,0.7,1.7,0.8c0.3,0.1,0.4,0.3,0.7,0.4H19c0.4,0.3,1.1,0.4,1.7,0.7l0.1,0.1c3.5,1.4,7.3,2.1,11.3,2.1
	c2.1,0,4.2-0.1,6.3-0.7c0.7-0.1,1.3-0.3,2-0.4c0.8-0.1,1.7-0.4,2.5-0.8c1.4-0.4,2.7-1.1,3.9-1.8C56.7,53.8,63,43.4,63,32
	C63,26.4,61.6,21,58.6,16.2z M32,4.5c6.6,0,13.1,2.5,18.2,6.9c-4.6,2.1-1.3,8.3,0.1,12.1c0.4,1.1,0.7,2.1,0.7,3l-5.6,16.9L38.9,24
	c0.8-0.1,1.7-0.8,1.7-1.7c0-1-0.7-1.8-1.8-1.8h-1.1h-3.8H29h-4.8H24l0,0c-0.8,0.1-1.6,0.8-1.6,1.7c0,1,0.7,1.8,1.8,1.8H25l3.8,11
	l-2.7,8.3L19.5,24c0.8-0.1,1.4-0.8,1.4-1.7c0-1-0.7-1.8-1.8-1.8h-0.8h-3.9h-7C11.6,10.9,21.3,4.5,32,4.5z M28.8,24.1L28.8,24.1h4.9
	h1.1l8.5,24.9l-2.8,9.2h-0.1l-3.2-9.7l0,0L28.8,24.1z M20.7,56.9L9.5,24.1h4.8h1.4l8.5,24.9l-2.7,8.3C21.1,57.2,20.9,57.1,20.7,56.9
	z M4.5,32c0-2.7,0.4-5.4,1.1-7.9l10.3,30C8.7,49.2,4.5,41,4.5,32z M24.8,58.5l5.9-17.8l6.1,18.2c-1.7,0.3-3.2,0.4-4.8,0.4
	C29.5,59.5,27.1,59.2,24.8,58.5z M45,56.1c-0.1,0-0.1,0.1-0.1,0.1L55.3,25c0.6-1.4,1.1-3,1.5-4.5c1.7,3.5,2.5,7.5,2.5,11.6
	C59.5,42.1,53.8,51.4,45,56.1z"/>
</svg>
