<?xml version="1.0" encoding="utf-8"?>
<!-- Generator: Adobe Illustrator 22.0.1, SVG Export Plug-In . SVG Version: 6.00 Build 0)  -->
<svg version="1.1" id="lni_lni-500px" xmlns="http://www.w3.org/2000/svg" xmlns:xlink="http://www.w3.org/1999/xlink" x="0px"
	 y="0px" viewBox="0 0 64 64" style="enable-background:new 0 0 64 64;" xml:space="preserve">
<g>
	<path d="M35.6,7.8c-3.7,0-7.5,0.8-10.4,2c-0.3,0.1-0.4,0.4-0.4,0.7s0.1,0.7,0.3,1.3c0.1,0.4,0.7,1.7,1.6,1.3c3-1.1,6.1-1.7,9-1.7
		c3.2,0,6.5,0.7,9.6,2c2.4,1.1,4.7,2.5,7.2,4.7c0.1,0.1,0.4,0.1,0.6,0.1c0.4,0,1-0.4,1.4-0.8c0.7-0.8,1.1-1.4,0.4-2
		c-2.4-2.3-4.9-3.9-8.2-5.2C43.1,8.5,39.4,7.8,35.6,7.8z"/>
	<path d="M16.3,41.9c0,0,0.3,1,0.4,1.4c1.1,2.4,2.5,4.5,4.4,6.5c1.8,1.8,4.1,3.2,6.5,4.4c2.5,1.1,5.1,1.5,7.9,1.5
		c2.8,0,5.4-0.6,7.9-1.5c2.4-1.1,4.5-2.5,6.5-4.4c1.8-1.8,3.2-4.1,4.4-6.5c1.1-2.5,1.5-5.1,1.5-7.9c0-2.8-0.6-5.5-1.5-7.9
		c-1.1-2.4-2.5-4.5-4.4-6.5c-1.8-1.8-4.1-3.2-6.5-4.4c-2.5-1.1-5.1-1.6-7.9-1.6c-2.8,0-5.5,0.6-8,1.6c-2,0.8-5.4,3-7.3,5.1l0,0V4.9
		h28c1.1,0,1.1-1.4,1.1-2s0-2-1.1-2L17.9,1.1c-0.8,0-1.4,0.7-1.4,1.4v23.5c0,0.7,1,1.3,1.8,1.4c1.7,0.4,2.1-0.1,2.5-0.7l0.1-0.1
		c0.7-1,2.7-3,2.7-3c3.1-3.1,7.3-4.8,11.7-4.8s8.6,1.7,11.7,4.8s4.8,7.3,4.8,11.7S50.1,44,47,47.1c-3.1,3.1-7.3,4.8-11.8,4.8
		c-3,0-5.9-0.7-8.3-2.4V35.2c0-2,0.8-3.9,2.3-5.5c1.6-1.7,3.8-2.8,6.1-2.8s4.5,0.8,6.1,2.4c1.5,1.6,2.4,3.7,2.4,5.9
		c0,4.8-3.8,8.5-8.5,8.5c-1,0-2.7-0.4-2.7-0.4c-1-0.3-1.4,1.1-1.5,1.4c-0.4,1.7,0.3,2,0.4,2.1c1.6,0.4,2.5,0.6,3.9,0.6
		c6.8,0,12.3-5.5,12.3-12.3c0-6.6-5.5-12.3-12.3-12.3c-3.2,0-6.3,1.3-8.7,3.5c-2.3,2.3-3.5,5.1-3.5,8v0.1c0,0.4,0,8.9,0,11.7l0,0
		c-1.3-1.4-2.5-3.5-3.4-5.8c-0.3-0.8-1.1-0.7-2-0.4C17.3,40.5,16,40.9,16.3,41.9L16.3,41.9z"/>
	<path d="M55.2,52.6L55.2,52.6c-0.4-0.4-0.7-0.7-1.1-0.7c-0.3-0.1-0.6,0-0.8,0.1l-0.1,0.1c-2.3,2.3-4.8,4.1-7.8,5.2
		c-3,1.3-6.2,2-9.6,2c-3.2,0-6.5-0.7-9.6-2c-3-1.3-5.5-3-7.8-5.2c-2.3-2.4-4.1-4.9-5.2-7.8c-1.1-2.7-1.4-4.8-1.6-5.5
		c0-0.1,0-0.1,0-0.1c-0.1-0.7-0.8-0.8-2-0.7C9.3,38.2,8,38.3,8,39.3l0,0c0.4,2.3,1,4.5,1.8,6.5c1.4,3.4,3.5,6.3,6.1,8.9
		c2.7,2.7,5.6,4.6,8.9,6.1c3.5,1.4,7.2,2.3,11,2.3s7.5-0.7,11-2.3c3.4-1.4,6.3-3.5,8.9-6.1l0.1-0.1C56,54.3,56.3,53.8,55.2,52.6z"/>
	<path d="M30.7,38.5c0,0.4,0.4,0.7,0.6,1l0.1,0.1c0.4,0.4,0.7,0.6,1.1,0.6c0.4,0,0.4-0.1,0.4-0.1c0.1-0.1,2.1-2.1,2.3-2.3l2.1,2.1
		c0.1,0.1,0.4,0.3,0.7,0.4c0.4,0,0.7-0.1,1.1-0.6c1-1,0.4-1.4,0.1-1.7l-2.1-2.1l2.3-2.4c0.4-0.6,0.1-1.1-0.4-1.5
		c-0.7-0.7-1.3-0.7-1.7-0.4l-2.3,2l-2.1-2.3c-0.1-0.1-0.3-0.1-0.4-0.1c-0.3,0-0.7,0.1-1.1,0.6c-0.7,0.7-0.8,1.1-0.4,1.6l2.3,2.3
		l-2.1,2.4C30.8,38.1,30.7,38.3,30.7,38.5z"/>
</g>
</svg>
