<?xml version="1.0" encoding="utf-8"?>
<!-- Generator: Adobe Illustrator 22.0.1, SVG Export Plug-In . SVG Version: 6.00 Build 0)  -->
<svg version="1.1" id="lni_lni-airbnb" xmlns="http://www.w3.org/2000/svg" xmlns:xlink="http://www.w3.org/1999/xlink" x="0px"
	 y="0px" viewBox="0 0 64 64" style="enable-background:new 0 0 64 64;" xml:space="preserve">
<path d="M32,48.2c-3.5-4.4-5.5-8.2-6.2-11.6c-3.1-12.3,15.6-12.3,12.5,0C37.5,40,35.4,44,32,48.2L32,48.2z M51,58.3
	c-5.8,2.5-11.6-1.5-16.5-6.9c14.4-18,6.5-27.8-2.5-27.8c-7.6,0-11.8,6.3-10.1,13.9c1,4.1,3.5,8.6,7.6,13.8
	c-4.5,4.9-8.3,7.3-11.8,7.6c-6.9,1.1-12.3-5.6-9.7-12.5c2.1-5.4,15.5-32,16.1-33.4c2.1-4.2,3.5-7.9,8.2-7.9c4.5,0,6.1,3.5,8.3,8.3
	c5.1,9.7,12.4,24.5,15.9,33C58,50.9,56.1,56.2,51,58.3L51,58.3z M57.6,39.5C39.7,1.6,38.7,1,32,1c-6.3,0-9,4.4-11.7,10
	C5.5,40.5,4.2,44.5,3.9,45c-3.4,9.6,3.8,18,12.4,18c3,0,8.5-0.8,15.6-8.6c8.2,8.9,14.1,8.6,15.6,8.6c8.7,0,15.9-8.5,12.4-18
	C60,44.4,57.6,39.6,57.6,39.5L57.6,39.5z"/>
</svg>
