<?xml version="1.0" encoding="utf-8"?>
<!-- Generator: Adobe Illustrator 22.0.1, SVG Export Plug-In . SVG Version: 6.00 Build 0)  -->
<svg version="1.1" id="lni_lni-amazon" xmlns="http://www.w3.org/2000/svg" xmlns:xlink="http://www.w3.org/1999/xlink" x="0px"
	 y="0px" viewBox="0 0 64 64" style="enable-background:new 0 0 64 64;" xml:space="preserve">
<g>
	<path d="M29.8,38c0.2,0,0.4,0,0.8-0.1c0.1,0,0.2,0,0.3,0c1.8-0.4,3.2-1.6,4.1-3.4c0.4-0.8,0.7-1.6,0.9-2.4c0.2-0.7,0.3-1.4,0.3-2.1
		v-3.3c0-1-0.8-1.8-1.8-1.8c-2.1,0-3.5,0.1-4.6,0.4c-3.5,1-5.4,3.4-5.4,6.9c0,1.6,0.4,2.9,1.3,4.1C27,37.4,28.3,38,29.8,38z
		 M30.9,28.7c0.4-0.1,1-0.2,1.9-0.3V30c0,0.3-0.1,0.7-0.2,1.3c-0.1,0.5-0.3,1-0.6,1.5c-0.4,0.9-1,1.4-1.8,1.6c-0.1,0-0.3,0-0.5,0.1
		c-0.5,0-0.8-0.2-1.1-0.5c-0.4-0.5-0.5-1.1-0.5-1.8C28.1,30.3,28.9,29.2,30.9,28.7z"/>
	<path d="M21.5,20.1c-2.8,1.1-5,2.9-6.6,5.1c-1.6,2.4-2.4,5.2-2.4,8.4c0,4.2,1.2,7.4,3.7,9.7c2.4,2.3,5.5,3.5,9.2,3.5
		c2.3,0,4.2-0.2,5.8-0.7c2.1-0.6,4.2-1.9,6.3-3.9c1.2,1.4,2.8,3.3,3.3,3.7c0.1,0.1,0.2,0.2,0.4,0.3c0.5,0.3,1.1,0.4,1.7,0.4
		c0.8,0,1.4-0.2,2-0.6c0.1-0.1,6.9-5.4,6.9-7.2c0-0.6-0.2-1.2-0.6-1.9c0-0.1-0.1-0.1-0.1-0.2c-0.7-0.9-1.1-1.5-1.5-2
		c-0.2-0.2-0.4-0.7-0.6-1.4c-0.2-0.7-0.3-1.5-0.3-2.4V15.7c0-0.7,0-1.3-0.1-1.7c-0.1-1.3-0.2-1.7-0.3-2h0
		C47.6,9.5,45.2,1.6,32.3,1.1c-0.3,0-6.4-0.2-11.9,2.6c-3.1,1.6-5.5,5.3-6.5,9.9c-0.1,0.4-0.1,0.7-0.1,0.9c0,1.5,0.9,2.6,2.5,2.9
		c0,0,0.1,0,0.1,0l7.2,0.9c0.2,0,0.4,0,0.6,0c1.4-0.3,2.3-1.4,2.6-2.8c0.2-0.9,0.6-1.6,1.3-2.1c1.5-1.2,3.1-1.1,3.1-1.1
		c0,0,0.1,0,0.1,0c1.1,0,1.8,0.4,2.4,1.3c0.1,0.1,0.5,0.9,0.6,3.9c-1.8,0.2-3.1,0.3-4,0.4C27,18.3,24,19.1,21.5,20.1z M35,21
		l1.2-0.1c0.9-0.1,1.6-0.8,1.6-1.7V18c0-3.1-0.4-5.2-1.2-6.4c-1.3-1.9-3.1-2.8-5.3-2.8c-0.5,0-3.1,0-5.5,1.9c-1.3,1-2.2,2.4-2.6,4.1
		l-6-0.7c0.8-3.4,2.5-6.1,4.6-7.2c4.6-2.4,10.1-2.2,10.1-2.2c10.3,0.3,12.2,6.2,12.5,7.9c0,0,0,0.1,0,0.2l0,0c0,0.1,0.1,0.4,0.2,1.5
		c0.1,0.8,0.1,1.3,0.1,1.5v15.2c0,1.3,0.2,2.5,0.5,3.5c0.4,1.2,0.8,1.9,1.3,2.5c0.3,0.4,0.6,0.8,1.1,1.5c-1.3,1.3-4.3,3.9-5.1,4.6
		c-0.9-1-3.4-4-3.7-4.3c-0.3-0.4-0.8-0.7-1.3-0.8c-0.5,0-1.1,0.2-1.4,0.6c-2.1,2.3-4.1,3.7-6.1,4.3c-1.3,0.4-2.9,0.6-4.8,0.6
		c-2.7,0-5-0.8-6.7-2.5c-1.7-1.6-2.6-4-2.6-7.2c0-2.5,0.6-4.7,1.8-6.4c1.2-1.7,2.9-3,5.1-3.9c0,0,0,0,0,0c2.2-0.9,4.9-1.6,7.9-2
		C31.7,21.2,33.1,21.1,35,21z"/>
	<path d="M54.6,54.1c-0.1,0.1-0.4,0.1-0.7,0.3c-0.4,0.1-0.6,0.2-0.8,0.3c-6.8,2.5-13.5,3.9-20.5,3.9c-10.4,0-19.9-2.5-28.8-7.6
		c-0.4-0.2-0.7-0.2-0.9,0.1c-0.1,0.1-0.1,0.2-0.1,0.3c0,0.1,0.1,0.4,0.3,0.5C7,55.3,11.4,58,16.3,60c4.9,1.9,10.1,2.9,15.7,2.9
		c3.6,0,7.2-0.5,11-1.5c3.7-1,7.1-2.4,10.2-4.2c1-0.6,1.8-1.2,2.4-1.6c0.5-0.4,0.6-0.7,0.3-1.2C55.6,54,55.1,53.9,54.6,54.1z"/>
	<path d="M60.9,50.5c-0.3-0.4-1.2-0.7-2.8-0.8c-0.3-0.1-0.7-0.1-1-0.1c-1.2,0-2.5,0.2-3.9,0.6c-0.8,0.2-1.7,0.6-2.5,1.2
		c-0.1,0.1-0.2,0.3-0.3,0.4c0,0.1-0.1,0.1-0.1,0.1c0,0.1,0,0.1,0.1,0.2c0.1,0.1,0.2,0.1,0.4,0.1c0.7-0.1,1.5-0.2,2.4-0.3
		c0.8-0.1,1.5-0.1,2.1-0.1c1.6,0,2.6,0.2,3,0.7c0.1,0.1,0.2,0.4,0.2,0.9c0,1.2-0.7,3.3-2,6.4c-0.1,0.3-0.1,0.5,0.1,0.6
		c0.1,0,0.1,0.1,0.2,0.1c0.1,0,0.3-0.1,0.5-0.2c1.2-1,2.1-2.4,2.8-4.1c0.7-1.7,1-3.1,1-4.4v-0.4C61.1,51,61,50.7,60.9,50.5z"/>
</g>
</svg>
