<?xml version="1.0" encoding="utf-8"?>
<!-- Generator: Adobe Illustrator 22.0.1, SVG Export Plug-In . SVG Version: 6.00 Build 0)  -->
<svg version="1.1" id="lni_lni-app-store" xmlns="http://www.w3.org/2000/svg" xmlns:xlink="http://www.w3.org/1999/xlink" x="0px"
	 y="0px" viewBox="0 0 64 64" style="enable-background:new 0 0 64 64;" xml:space="preserve">
<path d="M32,15.1l1.1-2c0.7-1.3,2.3-1.7,3.5-1c1.3,0.7,1.7,2.3,1,3.5l-11,18.9h7.9c2.5,0,3.9,3,3,5.1H14.2c-1.4,0-2.5-1.1-2.5-2.5
	c0-1.4,1.1-2.5,2.5-2.5h6.5L29,20l-2.7-4.5c-0.7-1.3-0.3-2.8,1-3.5c1.3-0.7,2.8-0.3,3.5,1L32,15.1L32,15.1z M22.1,42.4l-2.4,4.2
	c-0.7,1.3-2.3,1.7-3.5,1c-1.3-0.7-1.7-2.3-1-3.5l1.8-3.2C19.2,40.2,20.9,40.7,22.1,42.4L22.1,42.4z M43.3,34.7h6.6
	c1.4,0,2.5,1.1,2.5,2.5c0,1.4-1.1,2.5-2.5,2.5h-3.7l2.5,4.4c0.7,1.3,0.3,2.8-1,3.5s-2.8,0.3-3.5-1C40,39.3,36.9,34,34.8,30.3
	c-2.1-3.7-0.6-7.3,0.8-8.6C37.4,24.5,39.9,28.9,43.3,34.7L43.3,34.7z M32,1C14.8,1,1,14.8,1,32s13.8,31,31,31s31-13.8,31-31
	S49.2,1,32,1z M59.1,32c0,14.8-12,27.1-27.1,27.1c-14.8,0-27.1-12-27.1-27.1c0-14.8,12-27.1,27.1-27.1C46.8,4.9,59.1,16.9,59.1,32z"
	/>
</svg>
