<?xml version="1.0" encoding="utf-8"?>
<!-- Generator: Adobe Illustrator 22.0.1, SVG Export Plug-In . SVG Version: 6.00 Build 0)  -->
<svg version="1.1" id="lni_lni-aws" xmlns="http://www.w3.org/2000/svg" xmlns:xlink="http://www.w3.org/1999/xlink" x="0px"
	 y="0px" viewBox="0 0 64 64" style="enable-background:new 0 0 64 64;" xml:space="preserve">
<path d="M18.5,26.9c0,2.2,1.1,3.2,1.1,3.8c0,0.3-0.1,0.4-0.4,0.6l-1.3,0.8c-0.1,0.1-0.4,0.1-0.6,0.1c0,0-0.8,0.1-2-2.5
	c-1.4,1.8-3.7,3-6,2.8c-1.5,0.1-5.8-0.8-5.6-5.5c-0.1-3.7,3.2-6,6.9-5.8c0.7,0,2.1,0,4.5,0.6v-1.5c0.3-2.5-1.4-4.5-4.4-4.2
	c-0.1,0-1.8,0-4.5,1c-0.7,0.4-0.7,0.4-1,0.4c-0.7,0-0.4-2-0.3-2.4c0.4-0.6,3.5-1.7,6.3-1.7c2-0.1,3.9,0.4,5.5,1.7
	c1.3,1.4,1.8,3.2,1.7,5.1L18.5,26.9L18.5,26.9z M10,30c3.1,0,4.5-2,4.8-3c0.1-1,0.1-1.5,0.1-2.7c-1-0.1-2.4-0.4-3.9-0.4
	c-1.4-0.1-4.2,0.6-4.1,3.1C7.1,28.8,8.2,30.1,10,30z M26.6,32.2c-0.8,0.1-1.1-0.4-1.3-1l-4.8-15.9c-0.1-0.3-0.1-0.6-0.1-0.8
	c0-0.3,0.1-0.4,0.4-0.4c0,0-0.1,0,2.1,0c0.8-0.1,1.1,0.6,1.3,1l3.5,13.6L31,15.1c0.1-0.3,0.3-1.1,1.3-1h1.7c0.1,0,1.1,0,1.3,1
	l3.2,13.8l3.5-13.8c0-0.1,0.3-1.1,1.3-1h2c0.1,0,0.6-0.1,0.4,0.8c0,0.1,0.3-1.1-5.1,16.4c-0.1,0.6-0.4,1.1-1.3,1h-1.8
	c-1.1,0.1-1.3-1-1.3-1.1L32.7,18l-3.2,13.2c0,0.1-0.1,1.1-1.3,1.1h-1.5V32.2z M53,32.8c-0.6,0-3.2,0-5.5-1.1
	c-0.4-0.1-0.8-0.7-0.8-1.1v-1.1c0-0.8,0.6-0.7,0.8-0.6c1,0.4,1.5,0.7,2.8,1c3.5,0.8,5.1-0.1,5.5-0.4c1.3-0.8,1.4-2.5,0.4-3.4
	c-1-0.8-1.4-0.8-5.1-2C50.8,23.9,47,22.7,47,19c-0.1-2.7,2.4-5.5,6.7-5.5c1.3,0,4.5,0.4,5.5,1.5c0.1,0.1,0.1,0.4,0.1,0.7v1
	c0,0.4-0.1,0.7-0.4,0.7c-0.8-0.1-2-1.1-4.8-1.1c-0.7,0-3.9,0.1-3.7,2.4c0,1.8,2.7,2.5,3,2.7c3.5,1.1,4.8,1.3,6,3
	c1.7,2.1,0.8,4.6,0.4,5.3C57.9,33.2,53.2,32.8,53,32.8L53,32.8z M57,43c-6.7,4.9-16.6,7.6-24.9,7.6C20.7,50.8,9.7,46.6,1.3,39
	c-0.7-0.6-0.1-1.4,0.7-0.8c9.3,5.2,19.8,8,30.6,8c8,0,15.9-1.7,23.3-4.8C57.1,40.9,58.1,42.1,57,43L57,43z M59.8,39.8
	c-0.8-1.1-5.8-0.4-7.9-0.3c-0.7,0.1-0.8-0.4-0.1-0.8c3.9-2.7,10.3-2,11-1.1c0.8,0.8-0.1,7.3-3.9,10.4c-0.6,0.4-1.1,0.1-0.8-0.4
	C58.8,45.4,60.6,40.9,59.8,39.8z"/>
</svg>
