<?xml version="1.0" encoding="utf-8"?>
<!-- Generator: Adobe Illustrator 22.0.1, SVG Export Plug-In . SVG Version: 6.00 Build 0)  -->
<svg version="1.1" id="lni_lni-behance" xmlns="http://www.w3.org/2000/svg" xmlns:xlink="http://www.w3.org/1999/xlink" x="0px"
	 y="0px" viewBox="0 0 64 64" style="enable-background:new 0 0 64 64;" xml:space="preserve">
<g>
	<path d="M23.2,31.8c2.6-1.6,4.6-4.1,5.2-6.9c0.8-3.4,0-7-2.2-9.7c-2.2-2.7-5.4-4.3-8.9-4.3H5.9c-3.1,0-5.7,2.5-5.7,5.7v13.6v3.5
		v13.6c0,3.1,2.5,5.7,5.7,5.7h10.9c6,0,11-4.3,11.7-10c0.4-3.2-0.6-6.5-2.8-8.9C25,33.2,24.1,32.4,23.2,31.8z M3.8,16.6
		c0-1.2,1-2.2,2.2-2.2h11.3c2.4,0,4.7,1.1,6.2,3c1.5,1.9,2.1,4.3,1.5,6.7c-0.7,3.2-4.5,6.1-8.1,6.1H3.8V16.6z M25.1,42.5
		c-0.5,3.9-4.1,6.9-8.2,6.9H5.9c-1.2,0-2.2-1-2.2-2.2V33.7h13.1h0.4c2.3,0,4.4,1,5.9,2.6C24.7,38,25.4,40.2,25.1,42.5z"/>
	<path d="M39.6,15.3h21.1c1,0,1.8-0.8,1.8-1.8s-0.8-1.8-1.8-1.8H39.6c-1,0-1.8,0.8-1.8,1.8S38.6,15.3,39.6,15.3z"/>
	<path d="M49.4,24.3c-7.9,0-14.4,6.5-14.4,14.4s6.5,14.4,14.4,14.4c3.5,0,6.9-1.3,9.5-3.6c0.7-0.6,0.8-1.7,0.2-2.5
		c-0.6-0.7-1.7-0.8-2.5-0.2c-2,1.7-4.5,2.7-7.2,2.7c-5.4,0-9.9-4-10.7-9.1H62c1,0,1.8-0.8,1.8-1.8C63.8,30.7,57.3,24.3,49.4,24.3z
		 M49.4,27.8c5.4,0,9.9,4,10.7,9.1H38.6C39.4,31.8,43.9,27.8,49.4,27.8z"/>
</g>
</svg>
