<?xml version="1.0" encoding="utf-8"?>
<!-- Generator: Adobe Illustrator 22.0.1, SVG Export Plug-In . SVG Version: 6.00 Build 0)  -->
<svg version="1.1" id="lni_lni-bitbucket" xmlns="http://www.w3.org/2000/svg" xmlns:xlink="http://www.w3.org/1999/xlink" x="0px"
	 y="0px" viewBox="0 0 64 64" style="enable-background:new 0 0 64 64;" xml:space="preserve">
<g>
	<path d="M21.1,12.1c0,3.3,5.5,4.8,10.9,4.8s10.9-1.5,10.9-4.8c0-3.3-5.5-4.8-10.9-4.8S21.1,8.8,21.1,12.1z M32,13.4
		c-3.6,0-6.1-0.7-7.1-1.3c1-0.6,3.4-1.3,7.1-1.3c3.6,0,6.1,0.7,7.1,1.3C38.1,12.7,35.6,13.4,32,13.4z"/>
	<path d="M32,22.4c-3.4,0-6.2,2.8-6.2,6.2s2.8,6.2,6.2,6.2c3.4,0,6.2-2.8,6.2-6.2S35.4,22.4,32,22.4z M32,31.3
		c-1.5,0-2.7-1.2-2.7-2.7c0-1.5,1.2-2.7,2.7-2.7c1.5,0,2.7,1.2,2.7,2.7C34.7,30.1,33.5,31.3,32,31.3z"/>
	<path d="M52.3,3.7C47.1,1.4,38.2,0.3,32,0.3c-6.2,0-15.1,1.2-20.3,3.5c-0.9,0.4-1.5,1.4-1.4,2.4L13,34c0.1,0.8,0.6,1.5,1.2,1.8
		C16,36.7,25,41,32,41c7.4,0,14.2-2,18.2-5.4c0.5-0.4,0.7-0.9,0.8-1.5l2.7-27.9C53.8,5.1,53.3,4.1,52.3,3.7z M47.6,33.2
		c-3.4,2.7-9.3,4.3-15.6,4.3c-5.6,0-13.3-3.4-15.6-4.6L13.9,6.6C18.2,5,25.8,3.8,32,3.8c6.2,0,13.8,1.2,18.1,2.9L47.6,33.2z"/>
	<path d="M48.9,41.3c-0.7-0.5-1.5-0.6-2.3-0.2l-0.2,0.1c-2.8,1.2-8.7,3.8-14.4,3.7c-6.3-0.1-12.2-2.7-14.7-3.8
		c-0.7-0.3-1.6-0.2-2.3,0.2c-0.7,0.5-1,1.3-0.9,2.1l1.7,15.1c0.1,0.9,0.6,1.7,1.4,2.1c4,2,9.3,3.1,14.7,3.1s10.7-1.1,14.7-3.1
		c0.8-0.4,1.3-1.2,1.4-2l1.7-15.1l0,0C50,42.6,49.6,41.8,48.9,41.3z M44.7,57.7c-3.5,1.7-8,2.6-12.7,2.6c-4.7,0-9.2-0.9-12.7-2.6
		l-1.5-12.6c3.2,1.3,8.4,3.2,14.1,3.3c5.5,0.1,10.8-1.8,14.2-3.3L44.7,57.7z"/>
</g>
</svg>
