<?xml version="1.0" encoding="utf-8"?>
<!-- Generator: Adobe Illustrator 22.0.1, SVG Export Plug-In . SVG Version: 6.00 Build 0)  -->
<svg version="1.1" id="lni_lni-bitcoin" xmlns="http://www.w3.org/2000/svg" xmlns:xlink="http://www.w3.org/1999/xlink" x="0px"
	 y="0px" viewBox="0 0 64 64" style="enable-background:new 0 0 64 64;" xml:space="preserve">
<path d="M47.7,31.9c4.4-2.3,7.4-6.8,7.6-11.8c0-0.3,0-0.7,0-1c-0.3-8-7.2-14.5-15.6-14.5h-4.4V2c0-1-0.8-1.8-1.8-1.8
	c-1,0-1.8,0.8-1.8,1.8v2.5h-5.5V2c0-1-0.8-1.8-1.8-1.8S22.9,1,22.9,2v2.5h-8.2H13h-2.6c-1,0-1.8,0.8-1.8,1.8S9.4,8,10.4,8H13v22.1
	v3.5v22h-2.6c-1,0-1.8,0.8-1.8,1.8s0.8,1.8,1.8,1.8H13h1.8h8.2V62c0,1,0.8,1.8,1.8,1.8s1.8-0.8,1.8-1.8v-2.8h5.5V62
	c0,1,0.8,1.8,1.8,1.8c1,0,1.8-0.8,1.8-1.8v-2.8h4.3c8.3,0,15.3-6.5,15.6-14.5c0-0.4,0-0.8,0-1.1C55.1,38.6,52.1,34.2,47.7,31.9z
	 M16.5,8h23.3c6.5,0,11.9,5,12.1,11.1c0,0.3,0,0.5,0,0.8c-0.2,5.6-5.1,10.2-11.1,10.2H16.5V8z M51.8,44.6L51.8,44.6
	c-0.2,6.1-5.6,11.1-12.1,11.1H16.5v-22h24.3c0,0,0,0,0,0c5.9,0,10.8,4.5,11,10C51.8,44,51.8,44.3,51.8,44.6z"/>
</svg>
