<?xml version="1.0" encoding="utf-8"?>
<!-- Generator: Adobe Illustrator 22.0.1, SVG Export Plug-In . SVG Version: 6.00 Build 0)  -->
<svg version="1.1" id="lni_lni-bootstrap" xmlns="http://www.w3.org/2000/svg" xmlns:xlink="http://www.w3.org/1999/xlink" x="0px"
	 y="0px" viewBox="0 0 64 64" style="enable-background:new 0 0 64 64;" xml:space="preserve">
<path d="M41.4,39.7c0,5.9-5.5,5.8-6,5.8H24.1V34.2h11.2C41.3,34,41.4,38.5,41.4,39.7z M34.5,29.5c0.1,0,5.3,0.1,5.3-5.1
	c0-2.1-0.4-4.9-5.3-4.9H24.1v10H34.5z M62.9,11.4v41.3c0,5.6-4.6,10.3-10.4,10.3H11.5C5.7,63,1.1,58.4,1.1,52.6V11.4
	C1.1,5.6,5.7,1,11.5,1h41.3C58.3,1,62.9,5.6,62.9,11.4z M47.7,40.4c0-3-0.8-8-6.7-9.3v-0.1c3.2-1.4,5.1-3.9,5.1-7.6
	c0-1,0.3-9-10.7-9H17.9v36c17.7,0,19.4,0.1,22.6-0.7C42.4,49.1,47.7,47.3,47.7,40.4z"/>
</svg>
