<?xml version="1.0" encoding="utf-8"?>
<!-- Generator: Adobe Illustrator 22.0.1, SVG Export Plug-In . SVG Version: 6.00 Build 0)  -->
<svg version="1.1" id="lni_lni-btc" xmlns="http://www.w3.org/2000/svg" xmlns:xlink="http://www.w3.org/1999/xlink" x="0px"
	 y="0px" viewBox="0 0 64 64" style="enable-background:new 0 0 64 64;" xml:space="preserve">
<path d="M46.3,30.3c3.4-1.7,5.5-4.8,5.1-9.9c-0.7-6.9-6.3-9.3-13.9-9.9V1h-5.9v9.4c-1.6,0-3.1,0-4.6,0.1V1H21v9.6
	c-2.1,0.1-4.6,0-11.8,0v6.3c4.6-0.1,7-0.4,7.6,2.7V46c-0.4,2.4-2.3,2-6.5,2l-1.1,7C19.9,55,21,55,21,55v8h5.9v-8.2
	c1.7,0,3.2,0,4.6,0V63h5.9v-8.2c9.9-0.6,16.5-3,17.3-12.3C55.4,35,51.8,31.7,46.3,30.3L46.3,30.3z M26.9,17.2
	c3.2,0,13.7-1.1,13.7,5.9c0,6.6-10.4,5.8-13.7,5.8L26.9,17.2L26.9,17.2z M26.9,47.8V35c3.9,0,16.1-1.1,16.1,6.5
	C43.1,48.6,30.8,47.8,26.9,47.8L26.9,47.8z"/>
</svg>
