<?xml version="1.0" encoding="utf-8"?>
<!-- Generator: Adobe Illustrator 22.0.1, SVG Export Plug-In . SVG Version: 6.00 Build 0)  -->
<svg version="1.1" id="lni_lni-chrome" xmlns="http://www.w3.org/2000/svg" xmlns:xlink="http://www.w3.org/1999/xlink" x="0px"
	 y="0px" viewBox="0 0 64 64" style="enable-background:new 0 0 64 64;" xml:space="preserve">
<path d="M62.9,39.4c3.4-14.2-3.4-29.3-17-35.9c-3.3-1.6-6.7-2.6-10.1-3c-0.1,0-0.2,0-0.3,0c-12.9-1.4-26,5.3-32,17.7
	c-5.3,10.9-3.7,23.5,3,32.7c0,0.1,0.1,0.1,0.1,0.1c2.9,4,6.8,7.3,11.6,9.6c4.5,2.2,9.2,3.2,13.8,3.2c11.8,0,23.1-6.6,28.6-17.9
	c1-2.1,1.8-4.2,2.3-6.3C62.8,39.5,62.9,39.4,62.9,39.4z M59.9,36.2l-21-13.7c-0.3-0.2-0.6-0.4-1-0.6l-0.1-0.1
	c-0.1-0.1-0.2-0.1-0.3-0.2c-0.1-0.1-0.2-0.1-0.4-0.2c-2.9-1.4-6.1-1.5-8.9-0.5l8.1-16.8c2.7,0.4,5.4,1.2,8,2.5
	C55.7,12.1,61.7,24.3,59.9,36.2z M39.4,35.6L39.4,35.6c-2,4.1-6.9,5.8-11,3.8c-4.1-2-5.8-6.9-3.8-11c1.4-2.9,4.4-4.6,7.4-4.6
	c1.2,0,2.4,0.3,3.6,0.8c0.2,0.1,0.3,0.2,0.5,0.3l1,0.6C40.1,27.8,41.2,32,39.4,35.6z M6.6,19.7c5-10.2,15.4-16.1,26.1-15.9
	L21.4,26.9c-1.4,2.8-1.6,6-0.5,9c1,2.8,2.9,5.1,5.5,6.5L8.6,47.8C3.2,39.7,2,29,6.6,19.7z M19.7,57.4c-3.4-1.7-6.4-3.9-8.8-6.6
	l24.9-7.6c0,0,0.1,0,0.1,0c2.8-1,5.3-3,6.7-5.9v0c1.2-2.4,1.4-5,0.9-7.4l15.6,10.2c-0.4,1.5-1,3-1.7,4.5
	C50.6,58.3,33.7,64.2,19.7,57.4z"/>
</svg>
