<?xml version="1.0" encoding="utf-8"?>
<!-- Generator: Adobe Illustrator 22.0.1, SVG Export Plug-In . SVG Version: 6.00 Build 0)  -->
<svg version="1.1" id="lni_lni-cloudflare" xmlns="http://www.w3.org/2000/svg" xmlns:xlink="http://www.w3.org/1999/xlink" x="0px"
	 y="0px" viewBox="0 0 64 64" style="enable-background:new 0 0 64 64;" xml:space="preserve">
<g>
	<polygon points="9,37.3 7.6,37.3 7.6,42.2 11.3,42.2 11.3,41 9,41 	"/>
	<path d="M28,37.3h-1.8v4.8H28c1.7,0,2.7-1,2.7-2.5l0,0C30.7,38.3,29.7,37.3,28,37.3z M29.4,39.8c0,0.8-0.5,1.2-1.3,1.2l0,0h-0.5
		v-2.5h0.5C28.8,38.6,29.4,39,29.4,39.8L29.4,39.8z"/>
	<path d="M3.6,38.5c0.5,0,1,0.4,1.2,0.8h1.4c-0.3-1.2-1.3-2.1-2.6-2.1C2,37.2,1,38.3,1,39.8l0,0c0,1.4,1.2,2.5,2.6,2.5
		c1.3,0,2.3-0.8,2.6-1.9H4.7C4.5,40.8,4.1,41,3.6,41c-0.8,0-1.3-0.6-1.3-1.3l0,0C2.4,39.1,2.8,38.5,3.6,38.5z"/>
	<path d="M22.6,40c0,0.6-0.3,1-0.8,1c-0.5,0-0.9-0.4-0.9-1v-2.7h-1.4V40c0,1.5,0.9,2.2,2.2,2.2c1.4,0,2.3-0.6,2.3-2.2v-2.7h-1.4V40
		L22.6,40z"/>
	<path d="M15.3,37.3c-1.6,0-2.6,1.2-2.6,2.6l0,0c0,1.4,1.2,2.5,2.6,2.5s2.6-1.2,2.6-2.6l0,0C17.9,38.3,16.9,37.3,15.3,37.3z
		 M16.6,39.8c0,0.6-0.5,1.3-1.3,1.3S14,40.4,14,39.8l0,0c0-0.6,0.5-1.3,1.2-1.3C16.1,38.5,16.6,39.1,16.6,39.8L16.6,39.8z"/>
	<polygon points="32.6,37.3 32.6,42.2 34.1,42.2 34.1,40.4 36.3,40.4 36.3,39.4 34.1,39.4 34.1,38.5 36.5,38.5 36.5,37.3 	"/>
	<polygon points="58.2,40.3 60.5,40.3 60.5,39.2 58.2,39.2 58.2,38.5 60.8,38.5 60.8,37.3 56.9,37.3 56.9,42.2 60.8,42.2 60.8,41 
		58.2,41 	"/>
	<path d="M55,39L55,39c0-0.5-0.1-0.9-0.4-1.2c-0.4-0.4-0.8-0.5-1.6-0.5h-2.3v4.8H52v-1.4h0.6l1,1.4h1.5L54,40.5
		C54.6,40.3,55,39.8,55,39z M53.6,39.1c0,0.4-0.3,0.5-0.8,0.5h-0.9v-1.2h0.9C53.3,38.5,53.6,38.7,53.6,39.1L53.6,39.1z"/>
	<path d="M62.5,37.4c-0.3,0-0.5,0.3-0.5,0.5s0.3,0.5,0.5,0.5c0.3,0,0.5-0.3,0.5-0.5S62.7,37.4,62.5,37.4z M62.5,38.3
		c-0.3,0-0.4-0.1-0.4-0.4s0.1-0.4,0.4-0.4c0.3,0,0.4,0.1,0.4,0.4S62.7,38.3,62.5,38.3z"/>
	<path d="M62.7,37.8c0-0.1-0.1-0.1-0.3-0.1h-0.3v0.5h0.1v-0.3h0.1l0.1,0.3h0.1l-0.1-0.3C62.7,37.9,62.7,37.9,62.7,37.8z M62.5,37.9
		L62.5,37.9h-0.1v-0.1h0.1C62.6,37.7,62.6,37.7,62.5,37.9C62.6,37.8,62.6,37.9,62.5,37.9z"/>
	<polygon points="39.8,37.3 38.5,37.3 38.5,37.3 38.5,42.2 42.1,42.2 42.1,41 39.8,41 	"/>
	<path d="M45.6,37.3l-2.1,4.9h1.4l0.4-0.9h1.8l0.4,0.9h1.4l-2.1-4.9H45.6z M45.7,40.3l0.5-1.4l0.5,1.4H45.7z"/>
	<path d="M52.3,34.8l0.1-0.5c0.1-0.6,0.1-1.2-0.1-1.6c-0.3-0.4-0.8-0.6-1.3-0.6L40.4,32c-0.1,0-0.1,0-0.1-0.1v-0.1
		c0-0.1,0.1-0.1,0.3-0.1l10.7-0.1c1.3,0,2.7-1,3.1-2.3l0.6-1.5c0-0.1,0-0.1,0-0.3c-0.8-3.4-3.6-5.7-6.8-5.7c-3.1,0-5.7,1.9-6.6,4.8
		c-0.6-0.4-1.4-0.6-2.2-0.6c-1.4,0.1-2.7,1.3-2.8,2.8c0,0.4,0,0.8,0.1,1c-2.5,0.1-4.4,2.1-4.4,4.5c0,0.3,0,0.4,0,0.6
		c0,0.1,0.1,0.1,0.3,0.1h19.6C52.1,35,52.3,35,52.3,34.8z"/>
	<path d="M55.9,27.5c-0.1,0-0.3,0-0.3,0c-0.1,0-0.1,0-0.1,0.1L55.1,29c-0.1,0.6-0.1,1.2,0.1,1.6c0.3,0.4,0.8,0.6,1.3,0.6l2.3,0.1
		c0.1,0,0.1,0,0.1,0.1v0.1c0,0.1-0.1,0.1-0.3,0.1L56.3,32c-1.3,0-2.7,1-3.1,2.3l-0.1,0.4c0,0.1,0,0.1,0.1,0.1h8.1
		c0.1,0,0.1,0,0.3-0.1c0.1-0.5,0.3-1,0.3-1.5C61.7,30.1,59.1,27.5,55.9,27.5z"/>
</g>
</svg>
