<?xml version="1.0" encoding="utf-8"?>
<!-- Generator: Adobe Illustrator 22.0.1, SVG Export Plug-In . SVG Version: 6.00 Build 0)  -->
<svg version="1.1" id="lni_lni-codepen" xmlns="http://www.w3.org/2000/svg" xmlns:xlink="http://www.w3.org/1999/xlink" x="0px"
	 y="0px" viewBox="0 0 64 64" style="enable-background:new 0 0 64 64;" xml:space="preserve">
<path d="M62,20.4L33.5,1.4c-1-0.6-2-0.6-3,0L2.1,20.4C1.4,20.8,1,21.8,1,22.5v18.9c0,0.8,0.4,1.7,1.1,2.3l28.4,18.9c1,0.6,2,0.6,3,0
	l28.4-18.9c0.7-0.4,1.1-1.4,1.1-2.3V22.5C63.1,21.7,62.7,20.8,62,20.4L62,20.4z M34.7,8.6l20.9,14l-9.5,6.2L34.6,21
	C34.7,21,34.7,8.6,34.7,8.6z M29.4,8.6V21l-11.6,7.8l-9.3-6.2L29.4,8.6z M6.4,27.5L13,32l-6.6,4.5V27.5L6.4,27.5z M29.4,55.4
	l-20.9-14l9.3-6.2L29.4,43C29.4,43,29.4,55.4,29.4,55.4z M32.1,38.4L22.6,32l9.5-6.4l9.5,6.4L32.1,38.4z M34.7,55.4V43l11.6-7.8
	l9.3,6.2L34.7,55.4z M57.7,36.5L51.1,32l6.6-4.5V36.5L57.7,36.5z"/>
</svg>
