<svg width="64" height="64" viewBox="0 0 64 64" fill="none" xmlns="http://www.w3.org/2000/svg">
<path d="M49.2001 15.0999C48.5001 14.2999 47.5001 13.8999 46.4001 13.8999H15.6C14.6 13.8999 13.8 14.6999 13.8 15.6999C13.8 16.6999 14.6 17.4999 15.6 17.4999H46.4001C46.5001 17.4999 46.6 17.4999 46.6 17.4999C46.6 17.5999 46.6 17.5999 46.6 17.5999L45.2001 25.1999H18.4C17.4 25.1999 16.6 25.9999 16.6 26.9999C16.6 27.9999 17.4 28.7999 18.4 28.7999H44.7001L42.5 41.3999L32.7001 44.8999L22.9 41.3999L21.6 35.0999C21.4 34.1999 20.5 33.4999 19.5 33.6999C18.6 33.8999 17.9 34.7999 18.1 35.7999L19.4 42.1999C19.6 43.2999 20.4 44.1999 21.4 44.4999L31.5 48.0999C31.8 48.1999 32.2 48.2999 32.6 48.2999C33 48.2999 33.3001 48.1999 33.7001 48.0999L43.8 44.4999C44.9 44.0999 45.6 43.1999 45.8 42.0999L50.1 18.1999C50.3 17.0999 50.0001 16.0999 49.2001 15.0999Z" fill="black"/>
<path d="M59.9 2.79995C58.5 1.19995 56.4 0.199951 54.2 0.199951H9.79999C7.59999 0.199951 5.59999 1.09995 4.09999 2.79995C2.69999 4.39995 1.99999 6.59995 2.29999 8.79995L7.59999 53.0999C7.99999 56.2999 10.3 58.8999 13.4 59.5999L30.3 63.5999C30.9 63.6999 31.5 63.7999 32 63.7999C32.5 63.7999 33.2 63.6999 33.7 63.5999L50.6 59.5999C53.7 58.8999 56 56.2999 56.4 53.0999L61.7 8.79995C62 6.59995 61.3 4.39995 59.9 2.79995ZM58.3 8.29995L53 52.5999C52.8 54.2999 51.5 55.6999 49.9 56.0999L33 60.0999C32.4 60.1999 31.7 60.1999 31.1 60.0999L14.2 56.0999C12.5 55.6999 11.3 54.2999 11.1 52.5999L5.69999 8.29995C5.59999 7.19995 5.99999 5.99995 6.79999 5.09995C7.59999 4.19995 8.69999 3.69995 9.89999 3.69995H54.2C55.4 3.69995 56.5 4.19995 57.3 5.09995C58 5.99995 58.4 7.19995 58.3 8.29995Z" fill="black"/>
</svg>
