<?xml version="1.0" encoding="utf-8"?>
<!-- Generator: Adobe Illustrator 22.0.1, SVG Export Plug-In . SVG Version: 6.00 Build 0)  -->
<svg version="1.1" id="lni_lni-digitalocean" xmlns="http://www.w3.org/2000/svg" xmlns:xlink="http://www.w3.org/1999/xlink"
	 x="0px" y="0px" viewBox="0 0 64 64" style="enable-background:new 0 0 64 64;" xml:space="preserve">
<g>
	<path d="M61.5,22.1C58.6,12.8,51.2,5.5,41.9,2.5C20.6-4.1,1,11.7,1,32h12c0-12.7,12.7-22.6,26.1-17.8c4.9,1.8,8.9,5.8,10.7,10.7
		C54.6,38.3,44.7,51,32,51V39H20v12h12v12C52.3,63,68.1,43.4,61.5,22.1z"/>
	<polygon points="10.9,43.3 3.1,43.3 3.1,51 10.9,51 10.9,60.2 20,60.2 20,51 10.9,51 	"/>
</g>
</svg>
