<?xml version="1.0" encoding="utf-8"?>
<!-- Generator: Adobe Illustrator 22.0.1, SVG Export Plug-In . SVG Version: 6.00 Build 0)  -->
<svg version="1.1" id="lni_lni-diners-club" xmlns="http://www.w3.org/2000/svg" xmlns:xlink="http://www.w3.org/1999/xlink"
	 x="0px" y="0px" viewBox="0 0 64 64" style="enable-background:new 0 0 64 64;" xml:space="preserve">
<g>
	<path d="M24.4,32.4c3.1,0,3.5-2.1,3.5-3c0-1.6-1.3-3-3.5-3c-0.7,0-1.1,0-1.5,0c-0.4,0-0.7,0-1.1,0v0.1c0.4,0,0.7,0,0.7,0.7v4.2
		c0,0.6-0.3,0.6-0.7,0.7v0.1c0.4,0,0.7,0,1.1,0C23.5,32.4,24,32.4,24.4,32.4z M23.5,26.6c0.1,0,0.3,0,0.7,0c1.7,0,2.7,1.1,2.7,2.8
		c0,1.3-0.6,2.7-2.5,2.7c-0.4,0-0.8-0.1-0.8-0.7V26.6z"/>
	<path d="M30.2,32.4v-0.1H30c-0.3,0-0.4,0-0.4-0.3v-3.2c0-0.1,0-0.1-0.1-0.1h-0.1c0,0-0.4,0.1-1,0.3V29c0.3,0.1,0.4,0.1,0.4,0.6v2.3
		c0,0.3-0.1,0.3-0.4,0.3h-0.1v0.1c0.3,0,0.7,0,1,0C29.5,32.4,29.9,32.4,30.2,32.4z"/>
	<path d="M29.2,27c0.1,0,0.4-0.1,0.4-0.4c0-0.1-0.1-0.4-0.4-0.4c-0.1,0-0.4,0.1-0.4,0.4S29,27,29.2,27z"/>
	<path d="M34.7,32.1h-0.1c-0.3,0-0.4,0-0.4-0.3v-2.3c0-0.7-0.3-1.3-1-1.3c-0.6,0-1,0.3-1.6,0.7v-0.6c0-0.1,0-0.1-0.1-0.1
		c-0.4,0.1-0.8,0.3-1.1,0.4v0.1c0.4,0.1,0.4,0.3,0.4,0.6v2.3c0,0.3-0.1,0.3-0.4,0.3h-0.1v0.1c0.3,0,0.6,0,1,0c0.3,0,0.6,0,1,0v-0.1
		H32c-0.3,0-0.4,0-0.4-0.3V29c0.3-0.1,0.7-0.4,1-0.4c0.4,0,0.7,0.3,0.7,0.7v2.3c0,0.3-0.1,0.3-0.4,0.3h-0.1v0.1c0.3,0,0.6,0,1,0
		c0.3,0,0.6,0,0.8,0L34.7,32.1L34.7,32.1z"/>
	<path d="M36.4,32.4c0.7,0,1.1-0.4,1.7-1l-0.1-0.1c-0.3,0.3-0.7,0.6-1.1,0.6c-0.7,0-1.3-0.7-1.3-1.6c0-0.3,0-0.4,0-0.4h2.4l0.1-0.1
		c0-0.1,0-0.1,0-0.1c0-1-0.7-1.4-1.4-1.4c-0.6,0-1.7,0.4-1.7,2.3C34.7,31.2,35,32.4,36.4,32.4z M36.5,28.7c0.4,0,0.7,0.4,0.7,0.7
		c0,0.1,0,0.1-0.1,0.1h-1.5C35.5,29,35.9,28.7,36.5,28.7z"/>
	<path d="M40.3,32.4v-0.1h-0.4c-0.3,0-0.4,0-0.4-0.3v-2c0-0.4,0.4-0.7,0.7-0.7c0.3,0,0.3,0.1,0.6,0.1s0.4-0.1,0.4-0.4
		s-0.3-0.4-0.4-0.4c-0.4,0-0.8,0.6-1.1,0.8l0,0v-0.7c0-0.1,0-0.1-0.1-0.1S39,28.7,38.3,29v0.1c0.1,0.1,0.4,0.1,0.4,0.4v2.4
		c0,0.3-0.1,0.3-0.4,0.3h-0.1v0.1c0.3,0,0.7,0,1.1,0C39.6,32.4,39.9,32.4,40.3,32.4z"/>
	<path d="M42.6,32.2c-0.7,0-1-0.4-1.1-1.1h-0.1l0.1,1c0.3,0.1,0.7,0.3,1.1,0.3c1.1,0,1.4-0.6,1.4-1.1c0-1.4-2-1.1-2-2
		c0-0.4,0.3-0.6,0.7-0.6c0.6,0,0.8,0.3,1,0.8h0.1l-0.1-0.8c-0.3-0.1-0.7-0.3-1-0.3c-1,0-1.4,0.6-1.4,1.1c0,1.4,2,1.1,2,2.1
		C43.3,31.8,43,32.2,42.6,32.2z"/>
	<path d="M51.6,32.1l0.1-1.3l-0.1-0.1c-0.1,0.8-0.8,1.5-1.7,1.5c-1.4,0-2.7-1.3-2.7-3c0-2.1,1.4-2.7,2.4-2.7c1,0,1.7,0.4,1.8,1.4
		h0.3l-0.1-1.3c-0.4-0.4-1.1-0.6-2-0.6c-1.7,0-3.2,1.3-3.2,3.1c0,2,1.3,3.2,3.2,3.2C50.3,32.4,51.3,32.2,51.6,32.1z"/>
	<path d="M54,32.4v-0.1h-0.1c-0.3,0-0.4,0-0.4-0.3v-6.1c0-0.1,0-0.1-0.1-0.1c0,0-0.1,0-0.1,0.1c-0.1,0.1-0.6,0.3-0.8,0.4l0,0
		c0.3,0.1,0.4,0.1,0.4,0.7v4.8c0,0.3-0.1,0.3-0.4,0.3h-0.1v0.1c0.3,0,0.7,0,1,0C53.4,32.4,53.7,32.4,54,32.4z"/>
	<path d="M54.5,29.3v2.3c0,0.7,0.4,1.1,1,1.1c0.6,0,1.1-0.3,1.5-0.7v0.7l0,0c0.1-0.1,0.8-0.1,1.3-0.3v-0.4c-0.1,0-0.3,0-0.4,0
		c-0.1,0-0.3,0-0.3-0.1v-3.2c0-0.1,0-0.1-0.1-0.1s-0.6,0.1-1.4,0.1v0.1c0.3,0.1,0.7,0.1,0.7,0.4v2.3c-0.4,0.3-0.7,0.4-1.1,0.4
		c-0.7,0-0.7-0.7-0.7-1v-2.3c0-0.1,0-0.3-0.1-0.3s-0.7,0.1-1.1,0.1v0.1C54.5,28.7,54.5,29,54.5,29.3z"/>
	<path d="M58.8,27v3.8c0,0.4,0,1.1-0.1,1.5l0.1,0.1l0.3-0.1c0.1,0.1,0.6,0.3,1.1,0.3c1.3,0,2-1.1,2-2.3c0-1-0.6-1.8-1.7-1.8
		c-0.4,0-1,0.3-1.3,0.6v-3.2c0-0.1,0-0.1-0.1-0.1c0,0-0.1,0-0.1,0.1c-0.1,0.1-0.6,0.3-0.8,0.4l0,0C58.5,26.4,58.8,26.4,58.8,27z
		 M59.5,29.3c0.1-0.1,0.4-0.4,0.8-0.4c0.7,0,1.4,0.7,1.4,1.7c0,0.7-0.4,1.7-1.4,1.7c-0.6,0-0.8-0.6-0.8-0.8V29.3z"/>
	<path d="M22.6,34.3c-0.1,0-0.4,0-0.7,0l0,0v0.1l0,0H22c0.1,0,0.3,0,0.3,0.3v2.5c0,0.1-0.1,0.3-0.3,0.3h-0.1l0,0l0,0v0.1l0,0l0,0
		c0.1,0,0.4,0,0.7,0c0.3,0,0.4,0,0.7,0l0,0v-0.1l0,0h-0.1c-0.1,0-0.3,0-0.3-0.3v-2.5c0-0.1,0.1-0.3,0.3-0.3h0.1l0,0v-0.1l0,0l0,0
		C23.1,34.2,22.8,34.3,22.6,34.3z"/>
	<path d="M26.8,34.3c-0.1,0-0.4,0-0.7,0l0,0v0.1l0,0h0.1c0.1,0,0.4,0,0.4,0.4v1.7l-2-2.4c-0.1,0-0.3,0-0.4,0s-0.4,0-0.6,0l0,0v0.1
		l0,0h-0.1c0.1,0,0.4,0.1,0.4,0.4v2c0,0.4-0.1,0.6-0.4,0.6h-0.1l0,0v0.3l0,0l0,0c0.1,0,0.4,0,0.7,0c0.1,0,0.4,0,0.6,0l0,0v-0.1l0,0
		h-0.1c-0.4,0-0.4-0.1-0.4-0.6v-2l2.4,2.7h0.1l0,0l0,0c0-0.1,0-0.3,0-0.4V35c0-0.6,0.1-0.6,0.4-0.6h0.1l0,0v-0.1l0,0l0,0
		C27.2,34.2,26.9,34.3,26.8,34.3z"/>
	<path d="M30.6,34L30.6,34c0,0.1-0.1,0.1-0.1,0.1h-2.4l0,0c-0.1,0-0.1,0-0.1-0.1l0,0h-0.1l0,0l0,0c0,0.1,0,0.3,0,0.4
		c0,0.1,0,0.3-0.1,0.4l0,0h0.1l0,0l0,0c0.1-0.4,0.1-0.4,0.4-0.4h0.7V37c0,0.4-0.1,0.4-0.4,0.4h-0.1l0,0v0.1l0,0l0,0
		c0.1,0,0.4,0,0.7,0c0.3,0,0.6,0,0.8,0l0,0v-0.1l0,0h-0.1c-0.1,0-0.4,0-0.4-0.4v-2.5H30c0.3,0,0.3,0.3,0.3,0.4l0,0l0.1-0.1l0,0l0,0
		c0-0.1,0-0.3,0-0.4s0-0.3,0.1-0.4l0,0L30.6,34L30.6,34z"/>
	<path d="M33.4,36.7L33.4,36.7c-0.1,0.6-0.4,0.6-1,0.6c-0.3,0-0.6,0-0.6-0.3v-1.1h0.6c0.3,0,0.3,0.1,0.4,0.4l0,0H33l0,0l0,0
		c0-0.1,0-0.4,0-0.6c0-0.1,0-0.4,0-0.6l0,0h-0.1l0,0l0,0c0,0.3-0.1,0.4-0.4,0.4H32v-1.1h0.7c0.4,0,0.4,0.1,0.6,0.6l0,0h0.1l0,0l0,0
		c0-0.1,0-0.3,0-0.4s0-0.1,0-0.3l0,0l0,0c-0.3,0-0.7,0-1.1,0s-0.8,0-1.1,0l0,0v0.1l0,0H31c0.1,0,0.3,0,0.3,0.3v2.5
		c0,0.1-0.1,0.3-0.3,0.3h-0.1l0,0l0,0v0.1l0,0l0,0c0.3,0,0.8,0,1.3,0c0.4,0,1,0,1.3,0l0,0l0,0c0-0.3,0.1-0.4,0.1-0.7l0,0L33.4,36.7
		L33.4,36.7z"/>
	<path d="M36.6,37l-0.7-1.1c0.4-0.1,0.7-0.4,0.7-0.8c0-0.7-0.6-0.8-1.1-0.8c-0.3,0-0.4,0-0.7,0c-0.3,0-0.6,0-0.7,0l0,0v0.1l0,0h0.1
		c0.1,0,0.3,0,0.3,0.4v2.4c0,0.1-0.1,0.1-0.3,0.1h-0.1l0,0v0.3l0,0l0,0c0.1,0,0.4,0,0.7,0c0.3,0,0.6,0,0.7,0l0,0v-0.1l0,0h-0.1
		c-0.1,0-0.4,0-0.4-0.4v-1h0.3c0.3,0.6,0.6,1.1,1,1.5c0.1,0,0.3,0,0.4,0s0.3,0,0.4,0l0,0v-0.1l0,0l0,0C36.8,37.4,36.8,37.3,36.6,37z
		 M35.1,35.9H35v-1.4c0.1,0,0.1,0,0.3,0c0.4,0,0.7,0.3,0.7,0.7C35.8,35.6,35.5,35.9,35.1,35.9z"/>
	<path d="M41,34.3v-0.1l0,0l0,0c-0.1,0-0.4,0-0.6,0c-0.1,0-0.4,0-0.7,0l0,0v0.1l0,0h0.1c0.1,0,0.4,0,0.4,0.4v1.7l-2-2.4
		c-0.1,0-0.3,0-0.4,0s-0.4,0-0.6,0l0,0v0.1l0,0h0.1c0.1,0,0.4,0.1,0.4,0.4v2c0,0.4-0.1,0.6-0.4,0.6h-0.1l0,0v0.4l0,0l0,0
		c0.1,0,0.4,0,0.7,0c0.1,0,0.4,0,0.6,0l0,0v-0.1l0,0h-0.1c-0.4,0-0.4-0.1-0.4-0.6v-2l2.4,2.7h0.1l0,0l0,0c0-0.1,0-0.3,0-0.4V35
		C40.5,34.5,40.7,34.3,41,34.3L41,34.3L41,34.3z"/>
	<path d="M44,37.1c-0.1-0.1-0.1-0.3-0.1-0.4L43,34.2V34c0,0,0,0-0.1,0l0,0c-0.1,0.1-0.3,0.1-0.4,0.1c0,0.1-0.1,0.4-0.1,0.6l-0.7,2.1
		c-0.1,0.1-0.1,0.3-0.4,0.3l0,0l0,0v0.1l0,0l0,0c0.1,0,0.4,0,0.4,0c0.1,0,0.4,0,0.6,0l0,0v-0.1l0,0H42c-0.1,0-0.3,0-0.3-0.1
		s0.1-0.1,0.1-0.4l0.1-0.4h1.1l0.1,0.6c0.1,0.1,0.1,0.3,0.1,0.3c0,0.1-0.1,0.1-0.3,0.1H43l0,0v0.1l0,0l0,0c0.1,0,0.4,0,0.7,0
		c0.3,0,0.4,0,0.7,0l0,0v-0.1l0,0h-0.1C44.1,37.4,44,37.3,44,37.1z M42.1,36.2l0.4-1.3l0.4,1.3H42.1z"/>
	<path d="M47.1,34L47.1,34c0,0.1-0.1,0.1-0.1,0.1h-2.4l0,0c-0.1,0-0.1,0-0.1-0.1l0,0h-0.1l0,0l0,0c0,0.1,0,0.3,0,0.4
		c0,0.1,0,0.3-0.1,0.4l0,0h0.1l0,0l0,0c0.1-0.4,0.1-0.4,0.4-0.4h0.7V37c0,0.4-0.1,0.4-0.4,0.4h-0.1l0,0v0.1l0,0l0,0
		c0.1,0,0.4,0,0.7,0c0.3,0,0.6,0,0.7,0l0,0v-0.1l0,0h-0.1c-0.1,0-0.4,0-0.4-0.4v-2.5h0.7c0.3,0,0.3,0.3,0.3,0.4l0,0l0.1-0.1l0,0l0,0
		c0-0.1,0-0.3,0-0.4s0-0.3,0.1-0.4l0,0L47.1,34L47.1,34z"/>
	<path d="M48.1,34.3c-0.1,0-0.4,0-0.7,0l0,0v0.1l0,0h0.1c0.1,0,0.3,0,0.3,0.3v2.5c0,0.1-0.1,0.3-0.3,0.3h-0.1l0,0l0,0v0.1l0,0l0,0
		c0.1,0,0.4,0,0.7,0c0.3,0,0.4,0,0.7,0l0,0v-0.1l0,0h-0.1c-0.1,0-0.3,0-0.3-0.3v-2.5c0-0.1,0.1-0.3,0.3-0.3h0.3l0,0v-0.1l0,0l0,0
		C48.6,34.2,48.2,34.3,48.1,34.3z"/>
	<path d="M50.7,34.2c-1,0-1.7,0.7-1.7,1.7c0,1.1,0.7,1.7,1.7,1.7c1,0,1.8-0.7,1.8-1.8C52.6,34.7,51.7,34.2,50.7,34.2z M50.7,37.4
		c-0.7,0-1.1-0.7-1.1-1.7c0-0.6,0.1-1.4,1.1-1.4c0.7,0,1.1,0.7,1.1,1.5C51.9,36.6,51.7,37.4,50.7,37.4z"/>
	<path d="M56.5,34.3v-0.1l0,0l0,0c-0.1,0-0.4,0-0.6,0c-0.1,0-0.4,0-0.7,0l0,0v0.1l0,0h0.1c0.1,0,0.4,0,0.4,0.4v1.7l-2-2.4
		c-0.1,0-0.3,0-0.4,0s-0.4,0-0.6,0l0,0v0.1l0,0H53c0.1,0,0.4,0.1,0.4,0.4v2c0,0.4-0.1,0.6-0.4,0.6h-0.1l0,0v0.4l0,0l0,0
		c0.1,0,0.4,0,0.7,0c0.1,0,0.4,0,0.6,0l0,0v-0.1l0,0H54c-0.4,0-0.4-0.1-0.4-0.4v-2l2.4,2.7h0.1l0,0l0,0c0-0.1,0-0.3,0-0.4v-2.1
		C56,34.5,56.2,34.3,56.5,34.3L56.5,34.3L56.5,34.3z"/>
	<path d="M59.5,37.1c-0.1-0.1-0.1-0.3-0.1-0.4l-0.8-2.5V34c0,0,0,0-0.1,0l0,0c-0.1,0.1-0.3,0.1-0.4,0.1c0,0.1-0.1,0.4-0.1,0.6
		l-0.7,2.1c-0.1,0.1-0.1,0.3-0.4,0.3l0,0l0,0v0.1l0,0l0,0c0.1,0,0.4,0,0.4,0c0.1,0,0.4,0,0.6,0l0,0v-0.1l0,0h-0.1
		c-0.1,0-0.3,0-0.3-0.1s0.1-0.1,0.1-0.4l0.1-0.4h1.1l0.1,0.6c0.1,0.1,0.1,0.3,0.1,0.3c0,0.1-0.1,0.1-0.3,0.1h-0.1l0,0v0.1l0,0l0,0
		c0.1,0,0.4,0,0.7,0c0.3,0,0.4,0,0.7,0l0,0v-0.1l0,0l0,0C59.5,37.4,59.5,37.3,59.5,37.1z M57.5,36.2l0.4-1.3l0.4,1.3H57.5z"/>
	<path d="M62.4,36.7L62.4,36.7c0,0.1-0.1,0.3-0.1,0.4c-0.1,0.1-0.3,0.1-0.4,0.3c-0.1,0-0.3,0-0.4,0s-0.1,0-0.3,0
		c-0.1,0-0.3-0.1-0.3-0.3v-2.4c0-0.1,0.1-0.1,0.3-0.1h0.1l0,0v-0.1l0,0l0,0c-0.3,0-0.4,0-0.7,0c-0.3,0-0.4,0-0.7,0l0,0v0.1l0,0H60
		c0.1,0,0.3,0,0.3,0.3v2.4c0,0.3-0.1,0.3-0.3,0.3h-0.1l0,0v0.1l0,0l0,0c0.4,0,0.8,0,1.3,0c0.4,0,0.8,0,1.3,0l0,0l0,0
		c0.1-0.3,0.1-0.6,0.1-0.7l0,0l0,0v-0.3H62.4z"/>
	<path d="M62.6,34c-0.3,0-0.4,0.1-0.4,0.4c0,0.3,0.1,0.4,0.4,0.4s0.4-0.1,0.4-0.4C63,34.2,62.9,34,62.6,34z M62.6,35
		c-0.1,0-0.4-0.1-0.4-0.4s0.1-0.4,0.4-0.4s0.4,0.1,0.4,0.4S62.7,35,62.6,35z"/>
	<path d="M62.6,34.6c0.1,0,0.1-0.1,0.1-0.1c0-0.1-0.1-0.1-0.1-0.1h-0.3l0,0c0.1,0,0.1,0,0.1,0.1v0.4c0,0,0,0-0.1,0l0,0h0.1l0,0
		c-0.1,0-0.1,0-0.1,0v-0.1h0.3c0,0.1,0,0.3,0.1,0.3h0.1l0,0l-0.1-0.1L62.6,34.6z M62.6,34.6L62.6,34.6l-0.1-0.1h0.1
		C62.6,34.3,62.6,34.3,62.6,34.6L62.6,34.6z"/>
	<path d="M11,27.4v8.9c1.8-0.7,3.1-2.4,3.1-4.5C14.2,30,12.8,28.1,11,27.4z"/>
	<path d="M4.5,31.9c0,2,1.3,3.8,3.1,4.5v-8.9C5.8,28.1,4.5,30,4.5,31.9z"/>
	<path d="M11.4,23.8H9.3c-4.5,0-8.3,3.4-8.3,8.3c0,4.5,3.8,8.2,8.3,8.2h2.1c4.5,0,8.6-3.7,8.6-8.2C20,27.1,16.1,23.8,11.4,23.8z
		 M9.3,39.5c-4.2,0-7.6-3.4-7.6-7.6s3.4-7.6,7.6-7.6s7.6,3.4,7.6,7.6S13.5,39.5,9.3,39.5z"/>
</g>
</svg>
