<?xml version="1.0" encoding="utf-8"?>
<!-- Generator: Adobe Illustrator 22.0.1, SVG Export Plug-In . SVG Version: 6.00 Build 0)  -->
<svg version="1.1" id="lni_lni-discord" xmlns="http://www.w3.org/2000/svg" xmlns:xlink="http://www.w3.org/1999/xlink" x="0px"
	 y="0px" viewBox="0 0 64 64" style="enable-background:new 0 0 64 64;" xml:space="preserve">
<g>
	<path d="M26.4,27.1c-1.8,0-3.1,1.6-3.1,3.4s1.4,3.4,3.1,3.4c1.8,0,3.1-1.5,3.1-3.4C29.6,28.6,28.2,27.1,26.4,27.1z"/>
	<ellipse cx="37.6" cy="30.4" rx="3.1" ry="3.4"/>
	<path d="M52.7,1H11.3C7.8,1,4.9,3.8,4.9,7.3v41.9c0,3.5,2.8,6.3,6.3,6.3h35.1l-1.7-5.6l3.9,3.7l3.8,3.5l6.6,5.9V7.3
		C59.2,3.8,56.2,1,52.7,1z M40.7,41.4c0,0-1.1-1.3-2.1-2.5c4.1-1.1,5.6-3.7,5.6-3.7c-1.3,0.8-2.5,1.4-3.5,1.8
		c-1.5,0.7-3.1,1.1-4.5,1.3c-3,0.6-5.6,0.4-8,0c-1.8-0.3-3.2-0.8-4.5-1.3c-0.7-0.3-1.6-0.6-2.3-1c-0.1,0-0.1-0.1-0.3-0.1
		c0,0-0.1,0-0.1-0.1c-0.6-0.3-0.8-0.6-0.8-0.6s1.6,2.5,5.5,3.7c-1,1.1-2.1,2.5-2.1,2.5c-6.9-0.3-9.4-4.6-9.4-4.6c0-10,4.5-18,4.5-18
		c4.5-3.4,8.7-3.2,8.7-3.2l0.3,0.4C22,17.5,19.5,20,19.5,20s0.7-0.4,1.8-0.8c3.4-1.4,5.9-1.8,7-2c0.1,0,0.3,0,0.6,0
		c1.8-0.3,4.1-0.3,6.2,0c3,0.3,6.1,1.3,9.3,3c0,0-2.4-2.3-7.8-3.9l0.4-0.6c0,0,4.2-0.1,8.7,3.2c0,0,4.5,8,4.5,18
		C50.3,36.8,47.6,41.3,40.7,41.4z"/>
</g>
</svg>
