<?xml version="1.0" encoding="utf-8"?>
<!-- Generator: Adobe Illustrator 22.0.1, SVG Export Plug-In . SVG Version: 6.00 Build 0)  -->
<svg version="1.1" id="lni_lni-discover" xmlns="http://www.w3.org/2000/svg" xmlns:xlink="http://www.w3.org/1999/xlink" x="0px"
	 y="0px" viewBox="0 0 64 64" style="enable-background:new 0 0 64 64;" xml:space="preserve">
<g>
	<path d="M63,12.2h-0.1H1v39.6h62V12.2z M62.6,34.3c-0.1,0.1-17.1,12-47.6,17.2c-7.7,0-13.4,0-13.5,0c0-0.4,0-38.3,0-38.8
		c0.4,0,60.6,0,61.2,0C62.6,12.9,62.6,24,62.6,34.3z"/>
	<path d="M9.6,32.4c1.1-0.8,1.7-2.1,1.7-3.5c0-2.7-2-4.5-4.8-4.5H3.8v9h2.5C7.8,33.3,8.8,33.1,9.6,32.4z M5.5,31.8v-5.9h0.4
		c1.1,0,1.8,0.1,2.4,0.7c0.6,0.6,1,1.4,1,2.3s-0.4,1.7-1,2.3c-0.6,0.4-1.3,0.7-2.4,0.7H5.5L5.5,31.8z"/>
	<rect x="12" y="24.5" width="1.7" height="9"/>
	<path d="M17.5,31.9c-0.8,0-1.6-0.5-2-1.1l-1.1,1.1c0.8,1.1,1.7,1.7,3.1,1.7c1.8,0,3.1-1.1,3.1-3c0-1.4-0.6-2-2.7-2.8
		c-1.1-0.4-1.4-0.7-1.4-1.1c0-0.6,0.6-1,1.3-1c0.4,0,1,0.1,1.4,0.8l0.8-1.1c-0.7-0.7-1.7-1-2.7-1c-1.6,0-2.8,1.1-2.8,2.7
		c0,1.3,0.6,1.8,2.3,2.4c0.5,0.2,0.9,0.2,1.2,0.6c0.3,0.3,0.6,1.1,0.3,1.5c-0.1,0.1-0.2,0.2-0.3,0.2C17.9,31.9,17.7,31.9,17.5,31.9z
		"/>
	<path d="M25.9,33.5c0.7,0,1.4-0.1,2.3-0.4v-2c-0.7,0.7-1.4,1-2.1,1c-1.7,0-3-1.3-3-3.1c0-1.7,1.3-3.1,3-3.1c0.8,0,1.4,0.3,2.3,1v-2
		c-0.7-0.4-1.4-0.6-2.1-0.6c-2.7,0-4.8,2.1-4.8,4.6C21.3,31.5,23.3,33.5,25.9,33.5z"/>
	<polygon points="42.4,33.6 46.4,24.5 44.4,24.5 42,30.4 39.6,24.5 37.8,24.5 41.4,33.6 	"/>
	<polygon points="52,31.8 48.9,31.8 48.9,29.4 52,29.4 52,27.8 48.9,27.8 48.9,25.9 52,25.9 52,24.5 47.1,24.5 47.1,33.3 52,33.3 	
		"/>
	<path d="M55,29.7h0.3l2.4,3.5h2.1l-2.8-3.8c1.4-0.3,2-1.1,2-2.5c0-1.7-1.1-2.7-3.2-2.7H53v9l2,0C55,32.7,55,29.7,55,29.7z M55,25.7
		h0.6c1.1,0,1.7,0.4,1.7,1.4c0,1-0.6,1.4-1.7,1.4h-0.4v-2.8H55z"/>
	<path d="M33.4,33.6c2.1,0,3.9-1.4,4.5-3.4c0.1-0.4,0.1-1,0.1-1.4c0-2.7-2.1-4.8-4.8-4.8c-2.4,0-4.7,2.1-4.8,4.6
		C28.4,31.2,30.8,33.6,33.4,33.6C33.4,33.6,33.4,33.6,33.4,33.6z"/>
	<path d="M59.8,25l0.1,0.3H60L59.8,25c0.1,0,0.3-0.1,0.3-0.1c0-0.1-0.1-0.3-0.3-0.3h-0.3v0.7h0.1L59.8,25L59.8,25z M59.8,24.6
		L59.8,24.6c0.1,0,0.1,0,0.1,0.1c0,0.1-0.1,0.1-0.1,0.1l0,0V24.6L59.8,24.6z"/>
	<path d="M59.8,25.6c0.4,0,0.7-0.3,0.7-0.7s-0.3-0.7-0.7-0.7c-0.4,0-0.7,0.3-0.7,0.7C59.2,25.3,59.5,25.6,59.8,25.6z M59.8,24.3
		c0.3,0,0.6,0.3,0.6,0.6c0,0.3-0.3,0.6-0.6,0.6c-0.3,0-0.6-0.3-0.6-0.6S59.5,24.3,59.8,24.3z"/>
</g>
</svg>
