<?xml version="1.0" encoding="utf-8"?>
<!-- Generator: Adobe Illustrator 22.0.1, SVG Export Plug-In . SVG Version: 6.00 Build 0)  -->
<svg version="1.1" id="lni_lni-docker" xmlns="http://www.w3.org/2000/svg" xmlns:xlink="http://www.w3.org/1999/xlink" x="0px"
	 y="0px" viewBox="0 0 64 64" style="enable-background:new 0 0 64 64;" xml:space="preserve">
<path d="M35,29.9h-6.3v-5.8H35V29.9L35,29.9z M35,10.2h-6.3v5.9H35V10.2z M42.6,24.3h-6.3V30h6.3V24.3L42.6,24.3z M27.5,17.2h-6.3
	V23h6.3V17.2z M35,17.2h-6.3V23H35V17.2z M61.9,26.9c-1.4-1-4.6-1.3-7-0.8c-0.3-2.4-1.7-4.4-3.9-6.2l-1.4-0.8l-0.8,1.4
	c-1.7,2.7-2.3,7.2-0.4,10.1c-0.8,0.4-2.5,1.1-4.6,1.1H1.2c-0.8,4.9,0.6,11.4,4.2,15.8c3.5,4.2,9,6.3,16,6.3c15.2,0,26.6-7,31.8-19.8
	c2,0,6.6,0,8.9-4.4c0.1-0.1,0.7-1.3,0.8-1.7L61.9,26.9L61.9,26.9z M12.4,24.3H6V30h6.3V24.3L12.4,24.3z M19.9,24.3h-6.3V30h6.3V24.3
	z M27.5,24.3h-6.3V30h6.3V24.3z M19.9,17.2h-6.3V23h6.3V17.2z"/>
</svg>
