<?xml version="1.0" encoding="utf-8"?>
<!-- Generator: Adobe Illustrator 22.0.1, SVG Export Plug-In . SVG Version: 6.00 Build 0)  -->
<svg version="1.1" id="lni_lni-dropbox" xmlns="http://www.w3.org/2000/svg" xmlns:xlink="http://www.w3.org/1999/xlink" x="0px"
	 y="0px" viewBox="0 0 64 64" style="enable-background:new 0 0 64 64;" xml:space="preserve">
<path d="M62.6,31l-10.8-7.2l10.9-7.2l0,0c0.7-0.5,1.1-1.2,1.1-2.1c0-0.8-0.5-1.5-1.2-2L47.2,2.4c-0.8-0.5-1.9-0.5-2.7,0L32,10.7l0,0
	l0,0L19.5,2.4c-0.8-0.7-2-0.7-2.9,0L1.3,12.5c-0.7,0.5-1.1,1.2-1.1,2c0,0.8,0.4,1.6,1.1,2l10.8,7.2L1.3,31c-0.7,0.5-1.1,1.2-1.1,2
	c0,0.8,0.4,1.6,1.1,2l9.3,6.2v6.6c0,0.8,0.4,1.6,1.2,2.1l18.9,11.6c0.4,0.3,0.9,0.4,1.3,0.4c0.4,0,0.9-0.1,1.2-0.4l18.9-11.5
	c0.7-0.5,1.1-1.2,1.1-2.1v-6.8l9.3-6.1c0.7-0.5,1.1-1.2,1.1-2C63.7,32.2,63.3,31.4,62.6,31z M32,32.7l-13.4-8.9l7-4.7l6.4-4.2
	l13.4,8.9L45.2,24L32,32.7z M45.9,5.7l13.4,8.9l-10.7,7.1l-13.4-8.9L45.9,5.7z M4.6,14.5l13.5-8.9l10.8,7.1l-13.4,8.9l-0.1,0l-0.1,0
	L4.6,14.5z M15.3,25.9l13.5,9l-10.8,7.1L4.6,33L15.3,25.9z M14.2,43.6l2.5,1.7c0.4,0.3,0.9,0.4,1.4,0.4c0.5,0,0.9-0.1,1.3-0.4
	l10.9-7.2v19.1l-16.1-9.9V43.6z M49.8,47.4l-16.1,9.8V38.1l10.9,7.1c0.4,0.3,0.9,0.4,1.3,0.4s0.9-0.1,1.3-0.4l2.5-1.7V47.4z
	 M46,41.9l-10.8-7.1l13.4-8.9L59.3,33L46,41.9z"/>
</svg>
