<?xml version="1.0" encoding="utf-8"?>
<!-- Generator: Adobe Illustrator 22.0.1, SVG Export Plug-In . SVG Version: 6.00 Build 0)  -->
<svg version="1.1" id="lni_lni-drupal" xmlns="http://www.w3.org/2000/svg" xmlns:xlink="http://www.w3.org/1999/xlink" x="0px"
	 y="0px" viewBox="0 0 64 64" style="enable-background:new 0 0 64 64;" xml:space="preserve">
<g>
	<path d="M39.7,12.1L39.7,12.1c-0.9-0.3-1.7-0.9-2.4-1.7c-0.4-0.5-0.8-1.1-1.3-1.8l-4.6-6.7c-0.8-1.1-2.2-1.7-3.6-1.5
		c-1.4,0.3-2.5,1.4-2.8,2.7l-1.5,7.3c-0.4,1.4-1.3,2.4-2.7,3c-9.6,4.1-15.8,13.6-15.8,24c0,14.6,12,26.4,26.8,26.4
		s26.8-11.8,26.8-26.4C58.8,25.9,51,15.5,39.7,12.1z M32,60.3C19.1,60.3,8.7,50,8.7,37.3c0-9.1,5.4-17.2,13.7-20.8
		c2.4-1,4-2.9,4.7-5.4l1.6-7.3l4.6,6.7c0.5,0.8,1,1.4,1.3,1.9c1,1.4,2.5,2.5,4.1,3c9.8,3,16.6,12,16.6,21.9
		C55.3,50,44.9,60.3,32,60.3z"/>
	<path d="M48.5,32.2c-0.4-1.7-1.4-3.1-2.7-3.9c-1-0.7-2.3-1-3.7-0.9c-1,0.1-1.9,0.3-2.8,0.6c-0.9,0.4-1.7,0.9-2.4,1.3l-0.5,0.3
		c-0.2,0.1-0.4,0.2-0.6,0.3c0,0,0,0,0,0l-0.1-0.1c-0.1-0.1-0.3-0.2-0.4-0.3l-0.4-0.3c-0.5-0.4-1.1-0.8-1.8-1.1
		c-3.1-1.6-6.6-2-9.6-1.1c-2.1,0.6-3.9,2-5,3.9c-0.9,1.8-1.2,3.9-0.7,6c0.6,2.3,2,4.2,3.9,5.3c1.2,0.7,2.6,1.1,4,1.1
		c0.7,0,1.4-0.1,2.3-0.3c3.2-0.9,5.6-2.9,7.8-4.9l0.1-0.1l0.1,0.2c0.2,0.4,0.5,0.9,0.9,1.4c1.8,2.3,5.2,3.8,8.2,2.2
		c1.4-0.7,3.2-2.3,3.7-5.9C48.8,34.4,48.8,33.3,48.5,32.2z M45.2,35.5c-0.1,1.1-0.6,2.6-1.8,3.2c-1.4,0.7-3.1-0.3-3.8-1.2
		c-0.2-0.3-0.4-0.6-0.6-1l-0.3-0.5c-0.6-1-1-1.6-1.7-2l-0.4-0.2h-0.4c-0.7,0-1.2,0.4-1.6,0.7l-1.2,1.1c-1.9,1.8-3.9,3.4-6.3,4.1
		c-0.6,0.1-1.1,0.2-1.5,0.2c-0.8,0-1.5-0.2-2.2-0.6c-1.1-0.6-1.9-1.8-2.2-3.2c-0.3-1.2-0.2-2.5,0.3-3.5c0.6-1.1,1.7-1.9,2.9-2.2
		c0.7-0.2,1.5-0.3,2.3-0.3c1.6,0,3.3,0.4,4.8,1.2l0.1,0c0.4,0.2,0.7,0.4,1.2,0.7l0.4,0.3c0.2,0.2,0.4,0.3,0.7,0.5
		c0.8,0.6,1.6,0.8,2.3,0.7c0.5,0,0.8-0.2,1.1-0.4l0.1,0c0.3-0.2,0.7-0.4,1-0.6l0.5-0.3c0.6-0.4,1.2-0.8,1.8-1
		c0.5-0.2,1.1-0.3,1.6-0.4c0.6,0,1.2,0.1,1.7,0.4c0.6,0.4,1,1,1.2,1.8l0,0.1C45.3,33.7,45.3,34.4,45.2,35.5z"/>
	<path d="M37.2,52.4c-0.4,0.3-0.9,0.5-1.4,0.7c-1,0.4-2.1,0.5-3.1,0.4c-1-0.1-2.1-0.4-3.2-0.8c-0.9-0.4-1.9,0-2.3,0.9
		c-0.4,0.9,0,1.9,0.9,2.3c1.4,0.6,2.9,1,4.3,1.1c0.3,0,0.6,0,0.8,0c1.2,0,2.5-0.2,3.7-0.6c0.7-0.3,1.4-0.6,2.1-1
		c0.8-0.5,1.1-1.6,0.6-2.4C39.1,52.1,38,51.9,37.2,52.4z"/>
	<path d="M38.1,44.6c-1.9,0-3.8,0.8-5.1,2.3c-0.7,0.7-0.6,1.8,0.1,2.5c0.3,0.3,0.8,0.5,1.2,0.5c0.5,0,0.9-0.2,1.3-0.5
		c0.7-0.7,1.7-1.1,2.6-1.2c0.7,0,1.3,0.2,1.7,0.6c0.7,0.7,1.8,0.7,2.5,0c0.7-0.7,0.7-1.8,0-2.5C41.2,45.2,39.7,44.6,38.1,44.6z"/>
</g>
</svg>
