<?xml version="1.0" encoding="utf-8"?>
<!-- Generator: Adobe Illustrator 22.0.1, SVG Export Plug-In . SVG Version: 6.00 Build 0)  -->
<svg version="1.1" id="lni_lni-envato" xmlns="http://www.w3.org/2000/svg" xmlns:xlink="http://www.w3.org/1999/xlink" x="0px"
	 y="0px" viewBox="0 0 64 64" style="enable-background:new 0 0 64 64;" xml:space="preserve">
<path d="M51.2,1.4c-1-0.4-2.7-0.6-5.1-0.3c-5.6,0.7-10.7,3.2-14.9,7c-7.9,7.2-13.6,17-14.2,31c-0.1,0.4-1.1-0.1-1.4-0.1
	c-3-5.8-4.2-11.5-1.7-20.3c0.4-0.7-1.1-1.7-1.4-1.4c-0.6,0.6-2.8,3-4.2,5.5C0.9,35.8,5.7,52.2,18.8,59.5
	c12.9,7.3,29.4,2.7,36.7-10.4C63.8,33.9,56.1,4.1,51.2,1.4z"/>
</svg>
