<?xml version="1.0" encoding="utf-8"?>
<!-- Generator: Adobe Illustrator 22.0.1, SVG Export Plug-In . SVG Version: 6.00 Build 0)  -->
<svg version="1.1" id="lni_lni-facebook-line" xmlns="http://www.w3.org/2000/svg" xmlns:xlink="http://www.w3.org/1999/xlink"
	 x="0px" y="0px" viewBox="0 0 64 64" style="enable-background:new 0 0 64 64;" xml:space="preserve">
<g>
	<path d="M36.2,63.8h-7.8c-2,0-3.6-1.7-3.6-3.8V36.2h-6.4c-2,0-3.6-1.7-3.6-3.8v-6.9c0-2.1,1.6-3.8,3.6-3.8h6.2v-6.3
		c0-9.1,5.4-15.2,13.4-15.2H44c2,0,3.6,1.7,3.6,3.8v8.1c0,2.1-1.6,3.8-3.6,3.8h-4.1c-0.1,0-0.1,0-0.2,0c0,0.1,0,0.2,0,0.3v5.4h5.7
		c1.2,0.1,2.2,0.6,2.9,1.4c0.7,0.9,1,2.1,0.8,3.2c0,0,0,0,0,0L47.9,33c-0.2,1.8-1.7,3.1-3.6,3.1h-4.6v23.9
		C39.7,62,38.1,63.8,36.2,63.8z M26.5,32.7c1,0,1.8,0.8,1.8,1.8v25.5c0,0.2,0.1,0.3,0.1,0.3l7.8,0c0,0,0.1-0.1,0.1-0.3V34.3
		c0-1,0.8-1.8,1.8-1.8h6.3c0,0,0.1,0,0.1-0.1c0,0,0-0.1,0-0.1l1.2-6.7c0-0.2,0-0.3-0.1-0.4c0,0-0.1-0.1-0.2-0.1l-7.4,0
		c-1,0-1.8-0.8-1.8-1.8v-7.1c0-1.8,0.3-3.8,3.7-3.8H44c0,0,0.1-0.1,0.1-0.3V4.1c0-0.2-0.1-0.3-0.1-0.3l-5.9,0c-6,0-9.9,4.6-9.9,11.7
		v8.1c0,1-0.8,1.8-1.8,1.8h-8c0,0-0.1,0.1-0.1,0.3v6.9c0,0.2,0.1,0.3,0.1,0.3L26.5,32.7z"/>
</g>
</svg>
