<?xml version="1.0" encoding="utf-8"?>
<!-- Generator: Adobe Illustrator 22.0.1, SVG Export Plug-In . SVG Version: 6.00 Build 0)  -->
<svg version="1.1" id="lni_lni-figma" xmlns="http://www.w3.org/2000/svg" xmlns:xlink="http://www.w3.org/1999/xlink" x="0px"
	 y="0px" viewBox="0 0 64 64" style="enable-background:new 0 0 64 64;" xml:space="preserve">
<path d="M42.4,21.5c5.8,0,10.4-4.6,10.4-10.4S48,1,42.4,1H21.6c-5.8,0-10.4,4.6-10.4,10.4s4.6,10.4,10.4,10.4
	c-5.8,0-10.4,4.6-10.4,10.4s4.6,10.4,10.4,10.4c-5.8,0-10.4,4.6-10.4,10.4S15.9,63,21.6,63S32,58.4,32,52.6V21.8h10.4V21.5z
	 M42.4,21.5c-5.8,0-10.4,4.6-10.4,10.4s4.6,10.4,10.4,10.4s10.4-4.6,10.4-10.4l0,0C52.5,26.1,48,21.5,42.4,21.5z"/>
</svg>
