<?xml version="1.0" encoding="utf-8"?>
<!-- Generator: Adobe Illustrator 22.0.1, SVG Export Plug-In . SVG Version: 6.00 Build 0)  -->
<svg version="1.1" id="lni_lni-goodreads" xmlns="http://www.w3.org/2000/svg" xmlns:xlink="http://www.w3.org/1999/xlink" x="0px"
	 y="0px" viewBox="0 0 64 64" style="enable-background:new 0 0 64 64;" xml:space="preserve">
<path d="M13.9,49.9h0.4c1.6,0,3.1,0,4.7,0c0.1,0,0.4-0.1,0.4,0.3c0.8,4.2,3.7,6.6,7.6,7.8c3.2,1,6.6,1,9.9,0.1
	c4.1-0.8,6.8-3.4,8.2-7.3c1-2.7,1.3-5.4,1.4-8c0-0.7,0-5.8,0-6.3h-0.1c-0.1,0.1-0.1,0.4-0.3,0.6c-2.7,5.2-7.5,8.2-12.8,8.3
	C20.7,45.7,12.6,38.4,12.3,24c-0.1-3,0.1-5.8,1-8.5C15.7,6.8,22.2,1.1,31.9,1C39.3,1,44.2,5.7,46,9.6c0.1,0.1,0.1,0.3,0.3,0.1V2.3
	h5.4c0,34,0,40.2,0,40.2c0,9.4-3.2,17.5-12.5,19.7c-8.3,2-19.2,0.6-23.7-6.9C14.5,53.6,14,51.8,13.9,49.9L13.9,49.9z M31.7,5.4
	c-6.3-0.1-13.3,4.9-14,16.2c-0.4,7.2,1.8,14.8,8.6,18c3.4,1.6,9,1.8,13.1-1.1c5.8-4.1,7.6-11.7,6.6-18.8
	C44.9,11.3,40.3,5.4,31.7,5.4L31.7,5.4z"/>
</svg>
