<?xml version="1.0" encoding="utf-8"?>
<!-- Generator: Adobe Illustrator 22.0.1, SVG Export Plug-In . SVG Version: 6.00 Build 0)  -->
<svg version="1.1" id="lni_lni-google-pay" xmlns="http://www.w3.org/2000/svg" xmlns:xlink="http://www.w3.org/1999/xlink" x="0px"
	 y="0px" viewBox="0 0 64 64" style="enable-background:new 0 0 64 64;" xml:space="preserve">
<title>GooglePay_mark_800_gray</title>
<desc>Created with Sketch.</desc>
<g>
	<path d="M40.4,34.4c-0.4,0.4-0.7,0.7-0.7,1.3s0.1,0.8,0.6,1.1c0.4,0.3,0.8,0.4,1.4,0.4c0.7,0,1.4-0.3,2-0.8c0.6-0.6,0.8-1.3,0.8-2
		c-0.6-0.4-1.4-0.7-2.4-0.7C41.7,33.8,41,34.1,40.4,34.4z"/>
	<path d="M33.8,26.4h-2.9v4.8h2.9c0.7,0,1.3-0.3,1.7-0.7c1-1,0.8-2.5-0.1-3.5C35.1,26.6,34.4,26.4,33.8,26.4z"/>
	<path d="M63,17.1c-0.1-1.3-0.3-2.5-1.1-3.4c-0.3-0.4-0.7-0.7-1.1-0.9c-0.9-0.6-1.9-0.7-3-0.7c-0.1,0-0.4,0-0.7,0H6.6
		c-0.1,0-0.4,0-0.7,0c-0.1,0-0.4,0-0.6,0c-0.4,0-0.7,0-1.1,0.1c-0.4,0.1-0.8,0.1-1.1,0.4c-0.4,0.1-0.7,0.4-1,0.7s-0.4,0.6-0.7,1
		C1.3,14.7,1.1,15,1,15.4c0,0.4,0,0.7,0,1.1c0,0.1,0,0.4,0,0.6s0,0.4,0,0.7v28.5c0,0.1,0,0.4,0,0.7c0,0.1,0,0.4,0,0.6
		c0,0.4,0,0.7,0.1,1.1c0.1,0.4,0.1,0.7,0.4,1.1c0.1,0.4,0.4,0.7,0.7,1s0.6,0.4,1,0.7c0.4,0.1,0.7,0.3,1.1,0.4C4.8,52,5.2,52,5.5,52
		c0.1,0,0.4,0,0.6,0c0.1,0,0.4,0,0.7,0h50.6c0.1,0,0.4,0,0.7,0c0.1,0,0.4,0,0.6,0c0.4,0,0.7,0,1.1-0.1c0.4-0.1,0.7-0.1,1.1-0.4
		c0.4-0.1,0.7-0.4,1-0.7s0.4-0.6,0.7-1c0.3-0.4,0.3-0.7,0.4-1.1c0-0.4,0-0.8,0-1.3c0-0.1,0-0.4,0-0.6c0-0.1,0-0.4,0-0.7
		c0-3.4,0-6.8,0-10.2c0-5.2,0-10.3,0-15.5C63,19.5,63.1,18.3,63,17.1z M21.3,37.6c-1.3,1.3-3.1,2-5.2,2c-2.9,0-5.8-1.7-7-4.3l0,0
		C8,33,8,30.3,9.1,28.1c1.4-2.7,4.1-4.5,7-4.5c2,0,3.9,0.7,5.3,2l-2.2,2.2c-0.7-0.7-2-1.3-2.9-1.1c-2,0-3.8,1.4-4.5,3.2l0,0
		c-0.3,1-0.3,2,0,3.1c0.6,2,2.2,3.2,4.5,3.2c1.1,0,2-0.3,2.7-0.7c0.8-0.6,1.4-1.4,1.5-2.4h-4.2v-3.2h7.4c0.1,0.6,0.1,1.1,0.1,1.7
		C23.7,34.1,22.9,36.2,21.3,37.6z M36.8,31.7c-0.7,0.7-1.8,1.1-2.9,1.1h-2.9v5.6h-1.8V24.7h4.6c1.1,0,2.2,0.4,2.9,1.3
		C38.3,27.5,38.5,30,36.8,31.7C36.9,31.6,36.8,31.6,36.8,31.7z M46.3,38.6h-1.7v-1.4h-0.1c-0.7,1.1-1.7,1.7-2.9,1.7
		c-1.1,0-2-0.3-2.7-1c-0.7-0.6-1.1-1.4-1.1-2.4s0.4-1.7,1.1-2.4c0.7-0.6,1.7-0.8,2.9-0.8c1.1,0,2,0.1,2.7,0.6v-0.4
		c0-0.6-0.3-1.1-0.7-1.5c-0.4-0.4-1.1-0.7-1.7-0.7c-1,0-1.7,0.4-2.4,1.3l-1.5-1c0.8-1.3,2.1-1.8,3.8-1.8c1.3,0,2.4,0.4,3.1,1.1
		s1.1,1.7,1.1,2.9C46.3,32.8,46.3,38.6,46.3,38.6z M50.1,42.6h-1.8l2.2-4.8L46.6,29h2l2.8,6.9l0,0L54,29h1.8L50.1,42.6z"/>
</g>
</svg>
