<?xml version="1.0" encoding="utf-8"?>
<!-- Generator: Adobe Illustrator 22.0.1, SVG Export Plug-In . SVG Version: 6.00 Build 0)  -->
<svg version="1.1" id="lni_lni-google" xmlns="http://www.w3.org/2000/svg" xmlns:xlink="http://www.w3.org/1999/xlink" x="0px"
	 y="0px" viewBox="0 0 64 64" style="enable-background:new 0 0 64 64;" xml:space="preserve">
<path d="M61.5,29.2H32.8v8.5h20.6c-1.1,11.8-10.7,16.9-20,16.9c-11.8,0-22.3-9.2-22.3-22.5c0-12.8,10-22.5,22.3-22.5
	c9.4,0,15.1,6.1,15.1,6.1l5.8-6.1c0,0-7.8-8.5-21.3-8.5C15.2,1,1.6,15.9,1.6,32c0,15.6,12.8,31,31.7,31C50,63,62,51.7,62,34.8
	C62.1,31.3,61.5,29.2,61.5,29.2L61.5,29.2z"/>
</svg>
