<?xml version="1.0" encoding="utf-8"?>
<!-- Generator: Adobe Illustrator 22.0.1, SVG Export Plug-In . SVG Version: 6.00 Build 0)  -->
<svg version="1.1" id="lni_lni-html5" xmlns="http://www.w3.org/2000/svg" xmlns:xlink="http://www.w3.org/1999/xlink" x="0px"
	 y="0px" viewBox="0 0 64 64" style="enable-background:new 0 0 64 64;" xml:space="preserve">
<g>
	<path d="M45.7,14.6H20.9c-1.1,0-2.1,0.4-2.7,1.2l-0.1,0.1c-0.7,0.9-1,1.9-0.8,2.9l1.5,8.6c0.3,1.5,1.6,2.6,3.1,2.6h21l-2.2,10.7
		l-8.3,3.5l-8.3-3.3l-0.9-5.2c-0.2-1-1.1-1.6-2-1.4c-1,0.2-1.6,1.1-1.4,2l1,5.4c0.2,1.1,0.9,2,2,2.4l8.6,3.4
		c0.4,0.2,0.8,0.2,1.2,0.2c0.4,0,0.8-0.1,1.2-0.3l8.5-3.6c1-0.4,1.7-1.3,1.9-2.3l2.3-11.3c0.2-0.9,0-1.9-0.7-2.6
		c-0.6-0.7-1.5-1.2-2.5-1.2H22.3l-1.5-8.3c0,0,0,0,0,0c0,0,0.1,0,0.1,0h24.8c1,0,1.8-0.8,1.8-1.8S46.7,14.6,45.7,14.6z"/>
	<path d="M59.9,2.8c-1.4-1.6-3.5-2.6-5.7-2.6H9.8c-2.2,0-4.2,0.9-5.7,2.6C2.7,4.4,2,6.6,2.3,8.8l5.3,44.3c0.4,3.2,2.7,5.8,5.8,6.5
		l16.9,4c0.6,0.1,1.2,0.2,1.7,0.2s1.2-0.1,1.7-0.2l16.9-4c3.1-0.7,5.4-3.3,5.8-6.5l5.3-44.3C62,6.6,61.3,4.4,59.9,2.8z M58.3,8.3
		L53,52.6c-0.2,1.7-1.5,3.1-3.1,3.5l-16.9,4c-0.6,0.1-1.3,0.1-1.9,0l-16.9-4c-1.7-0.4-2.9-1.8-3.1-3.5L5.7,8.3C5.6,7.2,6,6,6.8,5.1
		c0.8-0.9,1.9-1.4,3.1-1.4h44.3c1.2,0,2.3,0.5,3.1,1.4C58,6,58.4,7.2,58.3,8.3z"/>
</g>
</svg>
