<?xml version="1.0" encoding="utf-8"?>
<!-- Generator: Adobe Illustrator 22.0.1, SVG Export Plug-In . SVG Version: 6.00 Build 0)  -->
<svg version="1.1" id="lni_lni-java" xmlns="http://www.w3.org/2000/svg" xmlns:xlink="http://www.w3.org/1999/xlink" x="0px"
	 y="0px" viewBox="0 0 64 64" style="enable-background:new 0 0 64 64;" xml:space="preserve">
<path d="M42.4,38.9c1.1-0.8,2.8-1.5,2.8-1.5s-4.6,0.8-9.3,1.3C30.2,39,24.1,39.2,21,38.7c-7.3-1,3.9-3.7,3.9-3.7s-4.4-0.3-9.9,2.4
	C8.8,40.4,30.9,41.8,42.4,38.9z M32.2,34.9c-2.4-5.2-10.1-9.7,0-17.6C44.7,7.3,38.2,1,38.2,1c2.7,10.3-9.2,13.4-13.4,19.7
	C21.9,24.9,26.3,29.6,32.2,34.9z M46,13.7c0,0-21.3,5.4-11.1,17c3,3.4-0.8,6.5-0.8,6.5s7.6-3.9,4.1-8.9C35,23.7,32.4,21.4,46,13.7z
	 M45.3,46.3c-0.1,0.1-0.1,0.1-0.1,0.3c15.5-4.1,9.9-14.5,2.4-11.8c-0.4,0.1-0.8,0.4-1,0.8c0.4-0.1,0.8-0.3,1.4-0.4
	C51.5,34.5,56.9,40.3,45.3,46.3L45.3,46.3z M50.9,53.9c0,0,1.7,1.4-2,2.5c-7,2.1-29.1,2.7-35.3,0.1c-2.3-1,2-2.4,3.2-2.7
	c1.4-0.3,2.1-0.1,2.1-0.1c-2.4-1.7-15.9,3.4-6.8,4.8C37,62.7,57.4,56.9,50.9,53.9z M23.9,48.9c-9.4,2.7,5.8,8.2,17.9,3
	c-1.1-0.4-2.4-1.1-3.4-1.7c-5.5,1.1-7.9,1.1-12.8,0.6C21.5,50.3,23.9,48.9,23.9,48.9z M45.7,60.7c-9.4,1.7-21.4,1.5-28.3,0.4
	c0,0,1.4,1.1,8.7,1.7c11.1,0.7,28.3-0.4,28.7-5.8C54.8,57,54.1,59.2,45.7,60.7L45.7,60.7z M40.3,43.7c-7.2,1.4-11.4,1.4-16.6,0.8
	c-4.1-0.4-1.4-2.4-1.4-2.4c-10.4,3.5,5.8,7.5,20.6,3.1C42,44.9,41.2,44.4,40.3,43.7z"/>
</svg>
