<?xml version="1.0" encoding="utf-8"?>
<!-- Generator: Adobe Illustrator 22.0.1, SVG Export Plug-In . SVG Version: 6.00 Build 0)  -->
<svg version="1.1" id="lni_lni-jcb" xmlns="http://www.w3.org/2000/svg" xmlns:xlink="http://www.w3.org/1999/xlink" x="0px"
	 y="0px" viewBox="0 0 64 64" style="enable-background:new 0 0 64 64;" xml:space="preserve">
<path d="M10.6,8.2C5.4,8.2,1,12.4,1,17.7v38.2h52.4c5.4,0,9.6-4.4,9.6-9.6V8.2H10.6z M21.4,45.8c0,3.9-3.1,6.9-6.9,6.9H4.4V38
	c0,0,3.1,0.8,7,0.8c6.6,0,8.6-2.5,8.6-5.6v-8h-5.9v8.2c0,2-1.3,3.4-3.7,3.4c-2,0-3.9-0.6-5.9-1.5V18.3c0-3.9,3.1-6.9,6.9-6.9h10
	C21.4,11.4,21.4,45.8,21.4,45.8z M40.5,45.8c0,3.9-3.1,6.9-6.9,6.9h-10V36.9c1.7,1.4,4.8,2.4,9.7,2.3c2.7-0.1,5.4-0.8,5.4-0.8v-3
	c-1.4,0.7-3.1,1.4-5.2,1.5c-3.7,0.3-5.9-1.5-5.9-4.8c0-3.2,2.3-5.1,5.9-4.8c2.1,0.1,3.9,0.7,5.2,1.6v-3c0,0-2.8-0.7-5.4-0.8
	c-4.8-0.1-7.9,0.7-9.7,2.3v-9c0-3.9,3.1-6.9,6.9-6.9h10V45.8L40.5,45.8z M59.5,45.8c0,3.9-3.1,6.9-6.9,6.9H42.4V38.7h10.7
	c2.5,0,4.4-1.4,4.4-3.5c0-2-1.7-3.2-3.9-3.2v-0.1c2-0.3,3.1-1.5,3.1-3.1c0-2-1.7-3.1-3.9-3.2c-0.1,0-0.4,0-0.7,0h-9.6v-7.2
	c0-3.9,3.1-6.9,6.9-6.9h10.1V45.8z M49.9,32.8c0.1,0,0.4,0,0.4,0c0.7,0.1,1.4,0.8,1.4,1.7c0,1-0.7,1.7-1.4,1.7c-0.1,0-0.4,0-0.4,0
	H46v-3.7h3.9V32.8z M46,30.7v-3.2h3.5c0.1,0,0.3,0,0.4,0c0.7,0.1,1.4,0.7,1.4,1.7c0,0.8-0.7,1.6-1.4,1.7c0,0-0.3,0-0.4,0
	C49.5,30.7,46,30.7,46,30.7z"/>
</svg>
