<?xml version="1.0" encoding="utf-8"?>
<!-- Generator: Adobe Illustrator 22.0.1, SVG Export Plug-In . SVG Version: 6.00 Build 0)  -->
<svg version="1.1" id="lni_lni-jsfiddle" xmlns="http://www.w3.org/2000/svg" xmlns:xlink="http://www.w3.org/1999/xlink" x="0px"
	 y="0px" viewBox="0 0 64 64" style="enable-background:new 0 0 64 64;" xml:space="preserve">
<path d="M56.3,29.8c-0.4-0.3-0.6-0.7-0.7-1.1c-0.3-1.8-0.4-3.7-1-5.4c-4-11-16.9-15.7-27.1-10c-3,1.7-5.4,4-7.2,6.9
	c-0.4-0.1-0.6-0.3-0.8-0.4c-3.2-1.4-6.5-1.1-9.5,1c-2.8,2-4,4.8-3.5,8.5c0,0.3-0.1,0.8-0.4,1.1C1.7,33.6,0,39,1.6,44.2
	c1.6,5.1,6.4,8.8,11.6,8.9c3.2-0.1,6.6-0.1,10-0.1c9.2,0,18.3,0.1,27.7-0.1c5.8-0.1,10.6-4.1,11.9-9.6
	C63.9,37.9,61.4,32.6,56.3,29.8L56.3,29.8z M58.7,47c-2,2.4-4.7,3.8-7.9,3.8c-6.2,0.1-12.6,0-18.8,0c0,0.1-17.9,0-18.1,0
	c-4.8,0-8.5-2.1-10.4-6.6s-0.4-10,3.8-12.8c1-0.7,1.4-1.3,1.1-2.5c-0.6-3,0.4-5.2,3-6.9c2.5-1.7,5.2-1.7,7.9-0.3
	c1.1,0.6,1.7,1.3,2.4-0.3c1.6-3,3.8-5.1,6.6-6.6c10.7-6.1,25.1,0.8,25.3,14.5c0,0.8,0.3,1.4,1.1,1.7C61.3,34.1,63.1,41.7,58.7,47z
	 M49.1,38.1c-0.7,3.4-3.8,6.1-7.3,6.1c-1.8,0-3.5-0.7-4.8-2c-3-2.8-7.9-8.2-10.6-10.3c-2.3-1.7-4.7-1.4-6.6,0.4
	c-5.5,4.8,1.7,13.4,7.3,8.5c0.4-0.4,0.8-1.1,1.4-1.4c0.8-0.6,2.3-0.1,1.4,1.1c-2,3-5.4,4.2-8.6,3.2S16,39.8,16,36
	c0.1-2.4,1.4-4.8,3.8-6.1s5.1-1.4,7.3,0.3c5.6,4.2,8.3,9,11.9,11.1c2.7,1.7,5.9,0.7,7.6-2c3.2-5.4-3.8-11.6-8.6-6.9
	c-0.4,0.4-0.7,1-1.3,1.3c-1.1,0.7-2-0.4-1.4-1.1c2.3-3.1,5.5-4.5,9.2-3.1C47.9,30.8,49.8,34.5,49.1,38.1L49.1,38.1z"/>
</svg>
