<?xml version="1.0" encoding="utf-8"?>
<!-- Generator: Adobe Illustrator 22.0.1, SVG Export Plug-In . SVG Version: 6.00 Build 0)  -->
<svg version="1.1" id="lni_lni-mastercard" xmlns="http://www.w3.org/2000/svg" xmlns:xlink="http://www.w3.org/1999/xlink" x="0px"
	 y="0px" viewBox="0 0 64 64" style="enable-background:new 0 0 64 64;" xml:space="preserve">
<g>
	<path d="M56.1,12.5H7.9c-4.2,0-7.6,3.4-7.6,7.6v23.8c0,4.2,3.4,7.6,7.6,7.6h48.3c4.2,0,7.6-3.4,7.6-7.6V20.1
		C63.8,15.9,60.3,12.5,56.1,12.5z M60.3,43.9c0,2.3-1.8,4.1-4.1,4.1H7.9c-2.3,0-4.1-1.8-4.1-4.1V20.1c0-2.3,1.9-4.1,4.1-4.1h48.3
		c2.3,0,4.1,1.9,4.1,4.1V43.9z"/>
	<path d="M36.9,22.4c-2,0-3.9,0.6-5.4,1.7c-1.4-1-3.1-1.4-4.9-1.4c-5.1,0-9.3,4.2-9.3,9.3s4.2,9.3,9.3,9.3c1.7,0,3.4-0.5,4.9-1.4
		c1.6,1.1,3.4,1.7,5.4,1.7c5.3,0,9.6-4.3,9.6-9.6S42.2,22.4,36.9,22.4z M37.1,39.2c-1.3,0-2.5-0.4-3.5-0.9c1.5-1.7,2.5-3.8,2.5-6.3
		c-0.1-2.5-1-4.7-2.5-6.3c1.1-0.6,2.2-0.9,3.5-0.9c3.9,0,7.2,3.2,7.2,7.2C44.2,36,41,39.2,37.1,39.2z"/>
</g>
</svg>
