<?xml version="1.0" encoding="utf-8"?>
<!-- Generator: Adobe Illustrator 22.0.1, SVG Export Plug-In . SVG Version: 6.00 Build 0)  -->
<svg version="1.1" id="lni_lni-microsoft-edge" xmlns="http://www.w3.org/2000/svg" xmlns:xlink="http://www.w3.org/1999/xlink"
	 x="0px" y="0px" viewBox="0 0 64 64" style="enable-background:new 0 0 64 64;" xml:space="preserve">
<title>Edge_Logo_265x265</title>
<g>
	<path d="M58.1,48.1c-0.1-0.1-0.3-0.1-0.4,0c-0.8,0.4-1.8,0.8-2.7,1.1c-3,1.1-5.9,1.7-9,1.7c-5.9,0-11.4-2-15.8-5.5
		c-4.4-3.7-6.8-8.5-6.8-13.5c0-1.1,0.3-2.4,0.7-3.4c-7.5,6.5-8.9,17.8-2.8,25.9c1.4,2.1,3.2,3.8,5.4,5.1c3.9,2.4,8.5,3.2,13,2.4
		c0.7-0.1,1.4-0.3,2-0.6l0.3-0.1c6.6-2.3,12.4-6.9,16.1-12.8C58.4,48.3,58.4,48.1,58.1,48.1z"/>
	<path d="M26.3,60.6c-0.1-0.1-0.3-0.1-0.4-0.3c-2.1-1.4-3.9-3.1-5.4-5.2c-3.2-4.4-4.5-9.9-3.7-15.4c0.8-5.5,3.8-10.1,8.2-13.4
		c0,0,0.1-0.1,0.3-0.1c0.4-0.3,1-0.7,1.6-1c0.4-0.3,0.8-0.4,1.3-0.7h0.1c0.8-0.4,2.3-1,3.9-1c2.3,0,4.4,1,5.9,2.4
		c-0.1-0.3-0.3-0.4-0.4-0.7c-1.3-2.1-3.1-4.8-7.3-7c-4.4-2.3-9.2-2.4-10.1-2.4c-9.6,0-17.6,5.9-19,13.7C1,30.2,1,30.9,1,31.6
		c0,4.7,1,9.3,3,13.5c4.8,10.3,14.8,16.8,25.5,17.8C30.3,63,31.2,63,32,63h0.1c-0.7-0.1-1.3-0.3-2-0.6C28.8,62,27.5,61.3,26.3,60.6z
		"/>
	<path d="M60.5,17.1l-0.1-0.3C55.3,7.1,44.4,1,32,1C18.4,1,6.7,10,2.6,22.3c-0.1,0.4-0.3,1-0.4,1.4c0.4-0.7,1-1.4,1.5-2.1
		c1-1,2-2,3.1-2.8c3.5-2.5,8.2-4.2,13.2-4.2c1.4,0,6.2,0.1,10.7,2.5s6.6,5.2,7.9,7.5c0.6,1,1,2.1,1.3,3.1c0.1,0.7,0.3,1.4,0.4,2.1
		c0.1,1,0.1,1.8,0.1,2.3c0,0.1,0,0.1,0,0.3c0,1.5-0.8,3.7-2.1,5.4c-0.1,0.1-0.1,0.1-0.3,0.3c-0.3,0.3-0.4,0.4-0.4,0.7
		c0,0.4,0.3,0.8,0.8,1.3c3.2,2.3,9.6,2.1,9.9,2c2.5,0,4.9-0.7,7.2-2c4.5-2.5,7.2-7.3,7.2-12.5C63,22.3,61.3,18.8,60.5,17.1z"/>
</g>
</svg>
