<?xml version="1.0" encoding="utf-8"?>
<!-- Generator: Adobe Illustrator 22.0.1, SVG Export Plug-In . SVG Version: 6.00 Build 0)  -->
<svg version="1.1" id="lni_lni-netlify" xmlns="http://www.w3.org/2000/svg" xmlns:xlink="http://www.w3.org/1999/xlink" x="0px"
	 y="0px" viewBox="0 0 64 64" style="enable-background:new 0 0 64 64;" xml:space="preserve">
<path d="M38.1,41.2l-15.2-3.2c0,0.1-0.1,0.3-0.3,0.4l13.8,20.2l0.8-0.8L39.6,43C38.9,42.7,38.3,42,38.1,41.2L38.1,41.2z M32.6,21.3
	c-0.6,0.8-1.5,1.4-2.7,1.4c-0.1,0-0.3,0-0.6,0l-6.9,10.9l18.5-8c0-0.1,0-0.1,0-0.3c0-0.1,0-0.3,0-0.4L32.6,21.3L32.6,21.3z M33,19.3
	l9,3.8c0.3-0.3,0.6-0.4,1-0.4l1.4-9.2l-5.6-5.6l-6.3,9.9C32.8,18.2,33,18.8,33,19.3L33,19.3z M51.9,20.9l-5.6-5.6L45,22.8
	c0.3,0.1,0.6,0.4,0.8,0.6L51.9,20.9z M38.3,39.2c0.4-0.8,1.3-1.4,2.3-1.4l1.5-10c-0.1-0.1-0.3-0.1-0.3-0.3l-18.6,8
	c0,0.1,0.1,0.4,0.1,0.6L38.3,39.2z M53.4,22.4l-6.5,2.8L63,32.1l0,0L53.4,22.4L53.4,22.4z M41.7,43.1l-2,12.1l11.4-11.4L43,42.1
	C42.7,42.6,42.1,42.9,41.7,43.1z M19.6,39.9c-0.4,0-0.8-0.1-1.1-0.1l-3.8,5.9l-1.4-1.4l3.5-5.6c-0.1-0.1-0.1-0.3-0.3-0.3L10,41.2
	l-1.6-1.5l7-3.1L2.7,33.8L1,32l0.6-0.6l14.8,3.1c0.1-0.3,0.4-0.6,0.7-0.8L9.9,23.3l1.4-1.4l7.5,11c0.3,0,0.6-0.1,0.8-0.1
	s0.6,0,1,0.1l7-11c-0.6-0.6-0.8-1.4-0.8-2.3c0-0.3,0-0.6,0.1-0.7l-8.9-3.8l1.5-1.6l8.3,3.5c0.8-0.7,2-0.8,3.1-0.6l6.5-10.1L32,1
	L1,32l31,31l3.1-3.1l-14-20.3C20.6,39.9,20.2,39.9,19.6,39.9L19.6,39.9z M44.1,28.1l-1.7,10.3c0.6,0.4,1,1.1,1,1.8l9.3,2l8.6-8.6
	l-15.5-6.6C45.5,27.6,44.8,28.1,44.1,28.1L44.1,28.1z"/>
</svg>
