<svg width="64" height="64" viewBox="0 0 64 64" fill="none" xmlns="http://www.w3.org/2000/svg">
<path fill-rule="evenodd" clip-rule="evenodd" d="M15.1119 25.2894C15.3201 25.4093 15.4472 25.6309 15.4472 25.8722L15.4365 34.477C15.4365 34.5963 15.372 34.7078 15.2702 34.7668C15.1671 34.8284 15.0382 34.8284 14.9346 34.7668L11.6353 32.8775C11.4279 32.7542 11.299 32.534 11.299 32.2953V28.275C11.299 28.0351 11.1713 27.8135 10.9633 27.6942L9.55848 26.885C9.457 26.8246 9.33979 26.7949 9.22493 26.7949C9.10824 26.7949 8.99365 26.8248 8.88929 26.8851L7.48377 27.6946C7.27595 27.8139 7.14878 28.0355 7.14878 28.2754V32.296C7.14878 32.5349 7.0216 32.7541 6.81313 32.8781L3.51173 34.7688C3.40946 34.8317 3.28097 34.8317 3.17871 34.7688C3.07382 34.7098 3.01219 34.5983 3.01219 34.479L3 25.8728C3 25.6316 3.12901 25.41 3.33591 25.2894L8.88903 22.0942C8.98434 22.0391 9.08936 22.0103 9.19583 22.0063H9.25325C9.35972 22.0103 9.46474 22.0391 9.55848 22.0942L15.1119 25.2894ZM41.5684 30.4981C41.6205 30.4684 41.6523 30.413 41.6523 30.353L41.6517 28.1509C41.6517 28.0908 41.6202 28.0355 41.5678 28.0054L39.6601 26.904C39.6076 26.8739 39.5434 26.8739 39.491 26.904L37.5846 28.0054C37.5334 28.0355 37.502 28.0908 37.502 28.1509V30.353C37.502 30.4128 37.5335 30.4683 37.5859 30.4981L39.4936 31.5976C39.5452 31.6273 39.6092 31.6273 39.661 31.5976L41.5684 30.4981ZM41.8341 14.046C41.9368 13.9861 42.0635 13.9845 42.1676 14.0425L45.4723 15.8871C45.6847 16.006 45.8171 16.2298 45.8171 16.4731V32.4583C45.8171 32.6982 45.6886 32.9185 45.4815 33.0391L39.9262 36.2488C39.7182 36.3681 39.4628 36.3681 39.2553 36.2488L33.7001 33.0404C33.4926 32.9198 33.3645 32.6996 33.3645 32.4596V26.0456C33.3645 25.807 33.4926 25.5854 33.7001 25.4661L39.2553 22.26C39.4633 22.1402 39.7184 22.1402 39.9256 22.26L41.3167 23.0613C41.3895 23.1032 41.4793 23.1032 41.5514 23.0613C41.624 23.0193 41.6686 22.9419 41.6686 22.858V14.3357C41.6686 14.2164 41.7318 14.1063 41.8341 14.046ZM61 27.5132C61 27.7518 60.873 27.9731 60.6666 28.0929L57.3345 30.0283C57.2309 30.0886 57.1024 30.0886 56.9989 30.0296C56.8953 29.9693 56.831 29.8578 56.831 29.7385V28.1573C56.831 28.038 56.7668 27.9266 56.6632 27.8676L54.9234 26.8645C54.8198 26.8042 54.6926 26.8042 54.589 26.8645L52.8505 27.8676C52.7456 27.9273 52.6827 28.038 52.6827 28.1581V30.1694C52.6827 30.2887 52.7469 30.4001 52.8518 30.4591L58.4398 33.6661C58.5447 33.7251 58.6089 33.8379 58.6089 33.9585C58.6089 34.0791 58.542 34.1906 58.4372 34.2496L55.099 36.1048C54.8932 36.2189 54.6441 36.2176 54.4409 36.1009L48.9224 32.9555C48.7139 32.8362 48.5841 32.6133 48.5841 32.372V25.9607C48.5841 25.7207 48.7113 25.5005 48.9197 25.3798L54.4736 22.1741C54.6821 22.0535 54.9378 22.0535 55.1462 22.1741L60.6661 25.3785C60.8728 25.4989 61 25.7195 61 25.9587V27.5132ZM31.6673 49.522C31.4759 49.522 31.2857 49.4718 31.1179 49.3751L29.3693 48.3399C29.1081 48.1938 29.2355 48.1421 29.3217 48.1124C29.6699 47.9905 29.7406 47.9629 30.1123 47.7518C30.1514 47.7295 30.2025 47.7374 30.2425 47.761L31.5859 48.5582C31.6344 48.5844 31.7032 48.5844 31.7482 48.5582L36.9861 45.5347C37.0346 45.5072 37.0661 45.4508 37.0661 45.3931V39.3489C37.0661 39.2885 37.0346 39.2348 36.9851 39.2046L31.7492 36.1838C31.7007 36.155 31.6365 36.155 31.588 36.1838L26.3532 39.2046C26.3024 39.2335 26.2702 39.2899 26.2702 39.3475V45.3918C26.2702 45.4495 26.3017 45.5046 26.3515 45.5321L27.7858 46.3607C28.5646 46.7501 29.0406 46.2912 29.0406 45.8297V39.8641C29.0406 39.7789 29.1075 39.7133 29.1927 39.7133H29.8561C29.9387 39.7133 30.0069 39.7789 30.0069 39.8641V45.8323C30.0069 46.8708 29.4405 47.4673 28.4558 47.4673C28.153 47.4673 27.9143 47.4673 27.2483 47.1395L25.8742 46.3476C25.5346 46.151 25.3249 45.7838 25.3249 45.3918V39.3475C25.3249 38.9542 25.5346 38.5871 25.8742 38.393L31.1174 35.3683C31.4491 35.1808 31.8896 35.1808 32.2187 35.3683L37.4553 38.3944C37.7936 38.5897 38.0047 38.9555 38.0047 39.3489V45.3931C38.0047 45.7851 37.7936 46.151 37.4553 46.3476L32.2187 49.3724C32.0509 49.4694 31.8608 49.5192 31.6668 49.5192L31.6673 49.522ZM33.2852 45.357C30.9933 45.357 30.5128 44.305 30.5128 43.4226C30.5128 43.3387 30.5805 43.2718 30.6645 43.2718H31.341C31.4158 43.2718 31.4787 43.3262 31.4905 43.4C31.5928 44.0894 31.897 44.4371 33.2828 44.4371C34.3868 44.4371 34.8562 44.1877 34.8562 43.6023C34.8562 43.2654 34.7224 43.0149 33.0075 42.8471C31.5731 42.7055 30.6868 42.3895 30.6868 41.2423C30.6868 40.1856 31.5784 39.5562 33.0717 39.5562C34.7486 39.5562 35.5799 40.1384 35.6848 41.3892C35.6887 41.4324 35.673 41.4744 35.6441 41.5059C35.6153 41.536 35.5747 41.5544 35.5327 41.5544H34.8522C34.7814 41.5544 34.7198 41.5045 34.7054 41.4364C34.5415 40.7113 34.1455 40.4793 33.0691 40.4793C31.8642 40.4793 31.7239 40.8988 31.7239 41.2135C31.7239 41.595 31.8891 41.7065 33.5149 41.9215C35.1249 42.1352 35.8893 42.4367 35.8893 43.5682C35.8893 44.7089 34.9374 45.3632 33.2776 45.3632L33.2852 45.357ZM39.6575 38.9531H39.8332C39.9774 38.9531 40.0049 38.8522 40.0049 38.7932C40.0049 38.6384 39.8987 38.6385 39.8397 38.6385H39.6588L39.6575 38.9531ZM39.4438 38.4575H39.8332C39.9669 38.4575 40.2291 38.4575 40.2291 38.7565C40.2291 38.9643 40.0961 39.0079 40.0161 39.0342L40.0154 39.0344C40.1672 39.0446 40.1813 39.1417 40.2012 39.2798L40.2029 39.2914L40.2041 39.3017L40.2041 39.3017L40.2041 39.3018L40.2041 39.3019C40.2147 39.3935 40.2316 39.5399 40.2619 39.5903H40.022L40.0175 39.5545L40.0175 39.5544C40.0056 39.4603 39.9787 39.2472 39.9787 39.2337C39.963 39.1695 39.9407 39.138 39.8607 39.138H39.6627V39.5916H39.4438V38.4575ZM38.9757 39.0213C38.9757 39.4907 39.3546 39.8709 39.8201 39.8709C40.2894 39.8709 40.6684 39.4828 40.6684 39.0213C40.6684 38.5506 40.2842 38.1769 39.8187 38.1769C39.3599 38.1769 38.9744 38.5454 38.9744 39.02L38.9757 39.0213ZM40.8309 39.0239C40.8309 39.5798 40.376 40.0335 39.8214 40.0335C39.2707 40.0335 38.8118 39.5851 38.8118 39.0239C38.8118 38.4523 39.2812 38.0144 39.8214 38.0144C40.3655 38.0144 40.8296 38.4536 40.8296 39.0239H40.8309ZM54.7287 27.7927C54.7681 27.7695 54.8174 27.7695 54.8572 27.7927L55.9232 28.4076C55.963 28.4307 55.9874 28.4732 55.9874 28.5191V29.7502C55.9874 29.7961 55.963 29.8386 55.9232 29.8617L54.8572 30.4766C54.8174 30.4998 54.7681 30.4998 54.7287 30.4766L53.6635 29.8617C53.6228 29.8386 53.5979 29.7961 53.5979 29.7502V28.5191C53.5979 28.4732 53.6215 28.4307 53.6622 28.4076L54.7287 27.7927ZM24.8806 22.353C24.6674 22.2288 24.4036 22.2288 24.1932 22.353L18.4872 25.6447C18.2697 25.7683 18.1434 25.9957 18.1434 26.2413V32.8318C18.1434 33.0774 18.2767 33.3048 18.4942 33.4284L24.1932 36.7201C24.4036 36.8443 24.6674 36.8443 24.8806 36.7201L30.5832 33.4284C30.7964 33.3048 30.9269 33.0774 30.9269 32.8318V26.2413C30.9269 25.9957 30.7964 25.7683 30.5832 25.6447L24.8806 22.353Z" fill="black"/>
</svg>
