<svg width="64" height="64" viewBox="0 0 64 64" fill="none" xmlns="http://www.w3.org/2000/svg">
<path d="M31.7 63C30.9 63 30 62.9 29.3 62.3L21.7 57.8C20.6 57.1 21.1 57 21.6 56.8C23.1 56.4 23.4 56.1 25 55.3C25.1 55.2 25.4 55.2 25.6 55.4L31.4 58.9C31.5 59 31.8 59 32.1 58.9L54.8 45.8C54.9 45.7 55.2 45.4 55.2 45.2V18.9C55.2 18.6 55.1 18.5 54.8 18.3L32 5.4C31.9 5.3 31.6 5.3 31.3 5.4L8.69998 18.5C8.59998 18.6 8.29998 18.9 8.29998 19.1V45.2C8.29998 45.5 8.39998 45.6 8.69998 45.8L14.9 49.3C18.3 51 20.4 49 20.4 46.9V21.3C20.4 20.9 20.7 20.6 21.1 20.6H24C24.4 20.6 24.7 20.9 24.7 21.3V47.1C24.7 51.6 22.3 54.1 18.1 54.1C16.7 54.1 15.9 54.1 12.9 52.7L6.99998 49.4C5.59998 48.6 4.59998 47 4.59998 45.2V18.9C4.59998 17.2 5.39998 15.7 6.99998 14.7L29.5 1.6C30.9 0.8 32.9 0.8 34.3 1.6L57 14.8C58.4 15.6 59.4 17.2 59.4 19V45.1C59.4 46.8 58.6 48.3 57 49.3L34.4 62.3C33.4 62.9 32.6 63 31.7 63ZM50 37.2C50 32.3 46.8 31 39.7 30C32.6 29 32 28.6 32 26.9C32 25.5 32.6 23.7 37.8 23.7C42.4 23.7 44.1 24.7 44.8 27.9C44.9 28.2 45.1 28.3 45.5 28.3H48.4C48.5 28.3 48.8 28.2 48.8 28.2C48.8 28.2 48.9 27.9 48.9 27.8C48.5 22.3 44.8 19.9 37.7 19.9C31.2 19.9 27.3 22.6 27.3 27.2C27.3 32.1 31.2 33.5 37.3 34.1C44.7 34.8 45.3 35.9 45.3 37.3C45.3 39.8 43.3 40.8 38.6 40.8C32.6 40.8 31.3 39.3 30.9 36.3C30.8 36 30.6 35.7 30.2 35.7H27.5C27.1 35.7 26.8 36 26.8 36.4C26.8 40.2 28.8 44.8 38.7 44.8C45.9 45 50 42.2 50 37.2Z" fill="black"/>
</svg>
