<?xml version="1.0" encoding="utf-8"?>
<!-- Generator: Adobe Illustrator 22.0.1, SVG Export Plug-In . SVG Version: 6.00 Build 0)  -->
<svg version="1.1" id="lni_lni-opera" xmlns="http://www.w3.org/2000/svg" xmlns:xlink="http://www.w3.org/1999/xlink" x="0px"
	 y="0px" viewBox="0 0 64 64" style="enable-background:new 0 0 64 64;" xml:space="preserve">
<path d="M40.2,5.1c-21.3,0-31.6,28-18.5,44.4c4.5,5.8,11,9.4,18.5,9.4c4.5,0,8.9-1.4,12.4-3.8C47.2,59.9,39.9,63,32,63
	c-0.4,0-1,0-1.4,0C14.1,62.3,1,48.6,1,32C1,14.8,14.8,1,32,1h0.1C40,1,47.2,4,52.7,8.9C49.1,6.5,44.8,5.1,40.2,5.1L40.2,5.1z
	 M52.9,54.8c-5.1,3.1-11.3,3-16.5-0.7c7-2.7,12.3-11.4,12.3-22.1c0-10.6-5.1-19.4-12.3-22.1C41.6,6.2,47.8,6.1,53,9.3
	C66.4,21.6,66.3,42.6,52.9,54.8z"/>
</svg>
