<?xml version="1.0" encoding="utf-8"?>
<!-- Generator: Adobe Illustrator 22.0.1, SVG Export Plug-In . SVG Version: 6.00 Build 0)  -->
<svg version="1.1" id="lni_lni-producthunt" xmlns="http://www.w3.org/2000/svg" xmlns:xlink="http://www.w3.org/1999/xlink"
	 x="0px" y="0px" viewBox="0 0 64 64" style="enable-background:new 0 0 64 64;" xml:space="preserve">
<g>
	<path d="M36.1,22.7L36.1,22.7h-8.9V32h8.9l0,0c2.5,0,4.7-2.1,4.7-4.6C40.9,24.7,38.6,22.7,36.1,22.7z"/>
	<path d="M32,1C14.8,1,1,14.8,1,32s13.8,31,31,31s31-13.8,31-31S49.2,1,32,1z M36.1,38.2L36.1,38.2h-8.9v9.3H21v-31h15.1l0,0
		c6.1,0,10.9,4.8,10.9,10.9C47.1,33.4,42.1,38.2,36.1,38.2z"/>
</g>
</svg>
