<?xml version="1.0" encoding="utf-8"?>
<!-- Generator: Adobe Illustrator 22.0.1, SVG Export Plug-In . SVG Version: 6.00 Build 0)  -->
<svg version="1.1" id="lni_lni-python" xmlns="http://www.w3.org/2000/svg" xmlns:xlink="http://www.w3.org/1999/xlink" x="0px"
	 y="0px" viewBox="0 0 64 64" style="enable-background:new 0 0 64 64;" xml:space="preserve">
<path d="M61.7,24c-1.1-4.2-3.1-7.5-7.3-7.5h-5.6v6.6c0,5.1-4.4,9.4-9.1,9.4H24.8c-4.1,0-7.3,3.5-7.3,7.6v14.1c0,3.9,3.5,6.3,7.3,7.6
	c4.6,1.4,9.1,1.7,14.8,0c3.7-1.1,7.3-3.2,7.3-7.6v-5.6H32.2v-1.8h22.2c4.2,0,5.9-3,7.3-7.5C63.2,34.4,63.2,29.9,61.7,24L61.7,24z
	 M40.5,52c1.5,0,2.8,1.3,2.8,2.8c0,1.5-1.3,2.8-2.8,2.8c-1.5,0.1-2.8-1.3-2.8-2.8C37.6,53.3,38.9,52,40.5,52z M24.1,30.6h14.8
	c4.1,0,7.3-3.4,7.3-7.6V9.1c0-3.9-3.4-6.9-7.3-7.6c-4.9-0.7-10.3-0.7-14.8,0c-6.3,1.1-7.3,3.4-7.3,7.6v5.6h14.8v1.8H11.4
	c-4.2,0-8,2.7-9.1,7.5c-1.4,5.6-1.4,9.1,0,14.9c1.1,4.4,3.5,7.5,7.9,7.5H15v-6.7C14.9,34.8,19.2,30.6,24.1,30.6L24.1,30.6z
	 M23.2,10.9c-1.5,0-2.8-1.3-2.8-2.8s1.3-2.8,2.8-2.8c1.5,0,2.8,1.3,2.8,2.8S24.7,10.9,23.2,10.9z"/>
</svg>
