<?xml version="1.0" encoding="utf-8"?>
<!-- Generator: Adobe Illustrator 22.0.1, SVG Export Plug-In . SVG Version: 6.00 Build 0)  -->
<svg version="1.1" id="lni_lni-reddit" xmlns="http://www.w3.org/2000/svg" xmlns:xlink="http://www.w3.org/1999/xlink" x="0px"
	 y="0px" viewBox="0 0 64 64" style="enable-background:new 0 0 64 64;" xml:space="preserve">
<g>
	<g id="eyes_1_">
		<circle cx="22.6" cy="35.9" r="4.2"/>
		<ellipse cx="41.4" cy="35.9" rx="4.2" ry="4.2"/>
	</g>
	<path id="mouth" d="M32,51.2c4.6,0,7.9-1.1,10-3.1c0.4-0.4,0.4-1.3,0-1.7c-0.4-0.4-1.3-0.4-1.7,0c-1.5,1.7-4.3,2.4-8.3,2.4
		s-6.7-0.8-8.3-2.4c-0.4-0.4-1.3-0.4-1.7,0c-0.4,0.4-0.4,1.3,0,1.7C24.1,50.2,27.4,51.2,32,51.2z"/>
	<path id="body_outline" d="M45.7,55.3c2-0.8,3.9-1.7,5.6-2.8c5.3-3.5,8.3-8.3,8.3-13.2c0-0.7-0.1-1.4-0.1-2c2-1.3,3.5-3.5,3.5-6
		c0-3.9-3.2-7-7-7c-1.7,0-3.5,0.7-4.6,1.7c-4.8-3.1-10.9-4.8-17.5-5l3.6-11.5l9.8,2.4c0,3.2,2.7,5.8,5.8,5.8s5.8-2.7,5.8-5.8
		S56.1,6,53,6c-2.4,0-4.5,1.4-5.3,3.5L36.8,7.2C36.2,7,35.5,7.3,35.4,8l-4.2,13.2c-7,0.1-13.5,2-18.5,5c-1.3-1.1-2.9-1.7-4.6-1.7
		c-3.9,0-7,3.2-7,7c0,2.5,1.4,4.8,3.5,6c-0.1,0.7-0.1,1.4-0.1,2c0,5,2.9,9.7,8.3,13.2c1.7,1.1,3.5,2,5.6,2.8
		C18.3,55.3,32.8,61.3,45.7,55.3z M53,8.3c1.8,0,3.5,1.5,3.5,3.5c0,1.8-1.5,3.5-3.5,3.5c-1.8,0-3.5-1.5-3.5-3.5S51.1,8.3,53,8.3z
		 M3.5,31.3c0-2.5,2-4.6,4.6-4.6c1,0,2,0.3,2.7,0.8c-2.7,2.1-4.6,4.6-5.6,7.4C4.1,34,3.5,32.7,3.5,31.3z M32,55.4
		c-13.9,0-25.2-7.3-25.2-16S18.1,23.3,32,23.3s25.2,7.3,25.2,16S45.9,55.4,32,55.4z M58.9,34.8c-1-2.7-2.9-5.2-5.6-7.4
		c0.8-0.6,1.7-0.8,2.7-0.8c2.5,0,4.6,2,4.6,4.6C60.5,32.7,59.9,34,58.9,34.8z"/>
</g>
</svg>
