<?xml version="1.0" encoding="utf-8"?>
<!-- Generator: Adobe Illustrator 22.0.1, SVG Export Plug-In . SVG Version: 6.00 Build 0)  -->
<svg version="1.1" id="lni_lni-sketch" xmlns="http://www.w3.org/2000/svg" xmlns:xlink="http://www.w3.org/1999/xlink" x="0px"
	 y="0px" viewBox="0 0 64 64" style="enable-background:new 0 0 64 64;" xml:space="preserve">
<path d="M3.3,20.3L1,23.4h11.3l0.8-16.3L3.3,20.3L3.3,20.3z M49.5,5.6L33.4,4l17,18.5L49.5,5.6L49.5,5.6z M14,27.2l-1.4-2.7H1.1
	l28.2,32.8L14,27.2z M14.2,23.4h35.6L39.6,12.3L32,4L14.2,23.4z M51.4,24.5L34.7,57.4l28.2-32.8H51.4L51.4,24.5z M52,8.6l-1.1-1.6
	L51,9.2l0.7,14.2H63L52,8.6z M14.1,11.7l-0.6,10.7L30.6,4L14.5,5.6L14.1,11.7z M50.2,24.5H13.8L19.2,35L32,60L50.2,24.5L50.2,24.5z"
	/>
</svg>
