<?xml version="1.0" encoding="utf-8"?>
<!-- Generator: Adobe Illustrator 22.0.1, SVG Export Plug-In . SVG Version: 6.00 Build 0)  -->
<svg version="1.1" id="lni_lni-skype" xmlns="http://www.w3.org/2000/svg" xmlns:xlink="http://www.w3.org/1999/xlink" x="0px"
	 y="0px" viewBox="0 0 64 64" style="enable-background:new 0 0 64 64;" xml:space="preserve">
<path d="M3.1,32.3c0.1-1.4,0.1-2.7,0.4-3.9c0.1-0.6,0-1-0.3-1.6c-2.3-3.9-2.7-8.2-1.7-12.5c1.1-4.9,3.9-8.7,8.5-11
	c5.6-3,11.3-3,16.9,0.1c0.4,0.1,0.8,0.3,1.4,0.1c7.2-0.8,13.8,0.6,19.9,4.7c6.3,4.2,10.3,10.1,12,17.6c0.8,3.2,0.8,6.6,0.4,9.9
	c-0.1,0.4-0.1,0.8,0.1,1.3c2.3,3.9,3,8.2,1.7,12.7c-1.3,4.9-4.1,8.7-8.6,11.1c-5.6,3-11.4,3-16.9-0.1c-0.4-0.1-0.8-0.3-1.3-0.1
	c-4.5,0.6-8.9,0.1-13.2-1.4c-5.6-1.8-10.3-5.4-13.8-10.1C5.9,45.2,4,41.2,3.5,36.7C3.2,35.1,3.2,33.7,3.1,32.3z M32.1,50.7
	c1.7-0.1,3.2-0.4,4.9-0.6c2.4-0.4,4.5-1.4,6.3-2.7c3.1-2.5,4.4-5.8,3.9-9.7c-0.3-2.7-1.5-4.8-3.8-6.3c-1.1-0.8-2.5-1.4-3.8-1.8
	c-3-1-6.1-1.7-9.2-2.5c-1.5-0.3-3-0.8-4.4-1.7c-1.6-1-2-2.7-1.1-4.1c0.6-1,1.6-1.6,2.5-2c1.7-0.7,3.4-0.7,5.1-0.6
	c2.1,0.1,3.8,1.1,4.8,3c0.4,0.8,0.8,1.6,1.4,2.3c0.4,0.6,0.8,1.1,1.5,1.4c1.8,0.8,4.2-0.1,4.8-2c0.6-1.5,0.1-3-0.7-4.2
	c-1.4-2.3-3.4-3.7-5.8-4.5c-2.3-0.8-4.5-1.1-7-1.1c-3.2,0-6.3,0.4-9.4,1.7c-3.2,1.6-5.2,3.9-5.6,7.6c-0.3,3.4,1.1,6.1,3.8,7.9
	c1.7,1.3,3.7,2,5.8,2.5c2.1,0.6,4.2,1.1,6.5,1.5c1.4,0.4,3,0.8,4.2,1.5c2.5,1.5,2.7,4.8,0.4,6.6c-1.1,1-2.5,1.5-4.1,1.7
	c-1.7,0.3-3.5,0.3-5.4-0.1c-2-0.6-3.2-2-4.2-3.7c-0.4-1.1-1-2-1.7-3c-0.8-1.3-2.1-1.5-3.5-1.3c-1.4,0.3-2.4,1.1-2.7,2.5
	c-0.1,1.1,0,2.3,0.4,3.2c1.1,3,3.2,4.9,5.9,6.3C25.6,50.5,28.8,50.7,32.1,50.7z"/>
</svg>
