<?xml version="1.0" encoding="utf-8"?>
<!-- Generator: Adobe Illustrator 22.0.1, SVG Export Plug-In . SVG Version: 6.00 Build 0)  -->
<svg version="1.1" id="lni_lni-slideshare" xmlns="http://www.w3.org/2000/svg" xmlns:xlink="http://www.w3.org/1999/xlink" x="0px"
	 y="0px" viewBox="0 0 64 64" style="enable-background:new 0 0 64 64;" xml:space="preserve">
<g>
	<path d="M61.8,30.2c-0.4-0.3-1-0.3-1.4-0.1c-0.4,0.1-0.7,0.4-1.3,0.7c0-0.3,0-0.4,0-0.7c0-7.6,0-15.1,0-22.7c0-1.5-0.3-2.9-1.4-4.2
		c-0.7-1.1-2-1.7-3.2-2c-0.1,0-0.1-0.1-0.3-0.1c-15,0-29.7,0-44.7,0C8.8,1.3,8.1,1.6,7.4,2C5.8,3,5,4.4,4.7,6.2c0,0.6,0,1.1,0,1.7
		c0,7.4,0,14.9,0,22.3c0,0.1,0,0.3,0,0.7c-0.1-0.1-0.3-0.1-0.6-0.3s-0.7-0.4-1-0.4c-0.8-0.3-1.5,0.3-1.4,1.3
		c0.1,0.6,0.3,1.1,0.6,1.4c1.4,1.7,3.2,3.2,5.2,4.5c2.2,1.4,4.5,2.7,6.9,3.8c0.1,0.1,0.1,0.1,0.3,0.1c-0.1,0.8-0.4,1.7-0.6,2.5
		c-0.4,2.2-0.8,4.5-0.6,6.7c0.1,2.8,1,5.5,2.7,7.9c1.7,2.4,4.1,3.9,7,4.3c0.1,0,0.3,0.1,0.4,0.1c0.6,0,1.3,0,1.8,0
		c0.6-0.1,1.1-0.3,1.7-0.4c2.2-0.7,3.9-2.9,3.9-5.3c0.1-3.9,0.1-7.9,0.1-11.6c0-0.1,0-0.4,0-0.7c0.6,0.1,1,0.3,1.4,0.4
		c0.1,0.1,0.1,0.3,0.1,0.4c0,3.2,0,6.6,0.1,10c0,1.1,0,2.1,0.3,3.2c0.7,2.4,2.5,3.6,4.8,4.1c0.1,0,0.3,0.1,0.4,0.1
		c0.6,0,1.3,0,1.8,0c1.1-0.3,2.2-0.6,3.2-1.1c2.5-1.1,4.2-3.2,5.3-5.6c1.4-3.1,1.7-6.3,1.3-9.7c-0.1-1.5-0.6-3.1-0.8-4.6
		c0-0.1-0.1-0.3-0.1-0.4c0.8-0.4,1.7-0.7,2.5-1.1c2.9-1.4,5.9-3.2,8.3-5.3c0.7-0.7,1.4-1.7,2.1-2.4c0.1-0.1,0.1-0.4,0.1-0.6
		C62.4,31,62.2,30.5,61.8,30.2z M55.8,33c-2.4,1.1-4.6,2.1-7,2.7c-3.5,0.7-7,1-10.5,0.7c-0.8-0.1-1.8-0.1-2.7,0.1
		c-1.4,0.1-2.4,1-2.5,2.5c0,0.1-0.1,0.1-0.1,0.3c-0.8-0.7-1.7-1.4-2.5-2.1c-0.7-0.6-1.4-0.7-2.2-0.7c-2,0-4.1,0.1-6,0.1
		c-4.8-0.1-9.1-1.1-13.5-3.2c-0.1-0.1-0.3-0.3-0.3-0.6c0-7.9,0-15.9,0.1-23.7c0-0.8,0.1-1.5,0.4-2.4c0.3-1.3,1.3-1.8,2.4-2.1
		c0.7-0.1,1.5-0.1,2.2-0.1c12.5,0,25.1,0,37.6,0c1,0,2,0,2.9,0.4c1.3,0.6,1.8,1.5,2.1,2.8c0.1,0.7,0.1,1.7,0.1,2.4
		c0,7.4,0,14.9,0,22.3C56.3,32.6,56.2,32.7,55.8,33z"/>
	<path d="M17.8,22.6c-1.5,2-1.8,4.3-0.7,6.6c1.4,2.8,3.8,4.1,6.6,4.2c1.8-0.1,3.4-0.6,4.8-1.4c3.5-2.4,3.8-7.4,0.7-10.4
		C25.8,18.4,20.4,18.8,17.8,22.6z"/>
	<path d="M45.8,21.1c-3.5-2.5-8.3-1.8-10.7,1.4c-1.5,2.1-1.8,4.5-0.7,6.9c1.4,2.8,3.8,3.9,6.6,4.1c2.1-0.1,3.9-0.7,5.3-2
		C49.5,28.6,49.2,23.4,45.8,21.1z"/>
</g>
</svg>
