<?xml version="1.0" encoding="utf-8"?>
<!-- Generator: Adobe Illustrator 22.0.1, SVG Export Plug-In . SVG Version: 6.00 Build 0)  -->
<svg version="1.1" id="lni_lni-soundcloud" xmlns="http://www.w3.org/2000/svg" xmlns:xlink="http://www.w3.org/1999/xlink" x="0px"
	 y="0px" viewBox="0 0 64 64" style="enable-background:new 0 0 64 64;" xml:space="preserve">
<g>
	<path d="M59.9,25.3c-2-2.3-4.8-3.8-8-4.3c-1.7-2.6-4.3-4.6-7.3-5.6c-1.6-0.5-3.1-0.7-4.3-0.7h-0.6c-1.3,0-2.4,1.1-2.4,2.5v29.8
		c0,1.4,1.1,2.5,2.5,2.5h9.7c7.9,0,14.3-6.4,14.3-14.3C63.8,31.3,62.4,27.9,59.9,25.3z M49.4,45.8h-8.5V18.2
		c0.8,0.1,1.8,0.2,2.8,0.5c2.4,0.8,4.5,2.5,5.8,4.8l0.4,0.8l0.9,0.1c2.7,0.3,5,1.5,6.6,3.3l0.1,0.1c1.8,1.9,2.9,4.5,2.9,7.3
		C60.3,41,55.4,45.8,49.4,45.8z"/>
	<path d="M26.1,16.2c-1,0-1.8,0.8-1.8,1.8v28.2c0,1,0.8,1.8,1.8,1.8s1.8-0.8,1.8-1.8V17.9C27.8,16.9,27,16.2,26.1,16.2z"/>
	<path d="M13.6,17.9c-1,0-1.8,0.8-1.8,1.8v24.7c0,1,0.8,1.8,1.8,1.8s1.8-0.8,1.8-1.8V19.6C15.4,18.7,14.6,17.9,13.6,17.9z"/>
	<path d="M2,21.5c-1,0-1.8,0.8-1.8,1.8v17.5c0,1,0.8,1.8,1.8,1.8s1.8-0.8,1.8-1.8V23.2C3.8,22.3,3,21.5,2,21.5z"/>
</g>
</svg>
