<?xml version="1.0" encoding="utf-8"?>
<!-- Generator: Adobe Illustrator 22.0.1, SVG Export Plug-In . SVG Version: 6.00 Build 0)  -->
<svg version="1.1" id="lni_lni-spotify" xmlns="http://www.w3.org/2000/svg" xmlns:xlink="http://www.w3.org/1999/xlink" x="0px"
	 y="0px" viewBox="0 0 64 64" style="enable-background:new 0 0 64 64;" xml:space="preserve">
<g>
	<path d="M43.6,45.9c-7.9-3.8-16.9-4.7-25.3-2.5c-0.9,0.2-1.5,1.2-1.2,2.1s1.2,1.5,2.1,1.2c7.6-2,15.7-1.2,22.9,2.3
		c0.2,0.1,0.5,0.2,0.8,0.2c0.6,0,1.3-0.4,1.6-1C44.9,47.4,44.5,46.3,43.6,45.9z"/>
	<path d="M47,34.5c-6.1-2.9-12.8-4.4-19.3-4.4c-3.8,0-7.2,0.4-10.5,1.3c-0.9,0.3-1.5,1.2-1.2,2.1c0.3,0.9,1.2,1.5,2.1,1.2
		c3-0.8,6-1.2,9.6-1.2c6,0,12.2,1.4,17.9,4c0.2,0.1,0.5,0.2,0.7,0.2c0.7,0,1.3-0.4,1.6-1C48.2,35.9,47.9,34.9,47,34.5z"/>
	<path d="M50.5,22.4c-7.1-3.3-14.8-5-22.8-5c-3.6,0-7.5,0.4-11.6,1.3c-0.9,0.2-1.6,1.1-1.4,2.1c0.2,0.9,1.1,1.6,2.1,1.4
		c3.8-0.8,7.5-1.2,10.9-1.2c7.5,0,14.7,1.6,21.3,4.7c0.2,0.1,0.5,0.2,0.7,0.2c0.7,0,1.3-0.4,1.6-1C51.7,23.9,51.3,22.8,50.5,22.4z"
		/>
	<path d="M32,0.3C14.5,0.3,0.3,14.5,0.3,32c0,17.5,14.2,31.8,31.7,31.8c17.5,0,31.8-14.3,31.8-31.8C63.8,14.5,49.5,0.3,32,0.3z
		 M32,60.3C16.4,60.3,3.8,47.6,3.8,32C3.8,16.4,16.4,3.8,32,3.8c15.6,0,28.3,12.7,28.3,28.2C60.3,47.6,47.6,60.3,32,60.3z"/>
</g>
</svg>
