<?xml version="1.0" encoding="utf-8"?>
<!-- Generator: Adobe Illustrator 22.0.1, SVG Export Plug-In . SVG Version: 6.00 Build 0)  -->
<svg version="1.1" id="lni_lni-squarespace" xmlns="http://www.w3.org/2000/svg" xmlns:xlink="http://www.w3.org/1999/xlink"
	 x="0px" y="0px" viewBox="0 0 64 64" style="enable-background:new 0 0 64 64;" xml:space="preserve">
<path d="M23.6,42.6c-1.1,1.1-1.1,3.1,0,4.2c1.1,1.1,3.1,1.1,4.2,0l19-19c2.4-2.4,6.1-2.4,8.4,0c2.4,2.4,2.4,6.1,0,8.4L36.6,54.9
	c2.4,2.4,6.1,2.4,8.4,0l0,0l14.5-14.5c4.6-4.6,4.6-12.2,0-17c-4.6-4.6-12.2-4.6-17,0L23.6,42.6L23.6,42.6z M53.2,29.9
	c-1.1-1.1-3.1-1.1-4.2,0L30,49c-2.4,2.4-6.1,2.4-8.4,0l0,0c-1.1-1.1-3.1-1.1-4.2,0l0,0c-1.1,1.1-1.1,3.1,0,4.2l0,0
	c4.6,4.6,12.2,4.6,17,0l18.9-19C54.3,33,54.3,31,53.2,29.9L53.2,29.9z M21.5,40.4l19-19c1.1-1.1,1.1-3.1,0-4.2s-3.1-1.1-4.2,0
	l-19.1,19c-2.4,2.4-6.1,2.4-8.4,0l0,0c-2.4-2.4-2.4-6.2,0-8.6l0,0L27.4,9.1c-2.4-2.4-6.1-2.4-8.4,0l0,0L4.5,23.6
	c-4.6,4.6-4.6,12.2,0,17C9.1,45.2,16.9,45.2,21.5,40.4z M11,34.1c1.1,1.1,3.1,1.1,4.2,0l19.1-19c2.4-2.4,6.1-2.4,8.4,0l0,0
	c1.1,1.1,3.1,1.1,4.2,0c1.1-1.1,1.1-3.1,0-4.2c-4.6-4.6-12.2-4.6-17,0l-19,19C9.7,31,9.7,33,11,34.1L11,34.1z"/>
</svg>
