<?xml version="1.0" encoding="utf-8"?>
<!-- Generator: Adobe Illustrator 22.0.1, SVG Export Plug-In . SVG Version: 6.00 Build 0)  -->
<svg version="1.1" id="lni_lni-stripe" xmlns="http://www.w3.org/2000/svg" xmlns:xlink="http://www.w3.org/1999/xlink" x="0px"
	 y="0px" viewBox="0 0 64 64" style="enable-background:new 0 0 64 64;" xml:space="preserve">
<g id="XMLID_11_">
	<rect id="XMLID_12_" x="31" y="26" width="4.8" height="13.8"/>
	<path id="XMLID_13_" d="M29.4,25.8c-0.5-0.3-1.3-0.3-1.8-0.1c-0.7,0.2-1.2,0.9-1.6,1.5c-0.1-0.3-0.3-0.6-0.4-1
		c-0.1-0.3-0.1-0.3-0.4-0.3c-1.1,0-2.1,0-3.1,0c-0.1,0-0.3,0-0.3,0v13.8h4.8c0,0,0-8.6,0-8.6c0-0.3,0-0.7,0.2-0.9
		c0.2-0.3,0.7-0.4,1-0.5c0.3-0.1,0.7,0,1,0.1c0.4,0.1,0.7,0.1,1.1,0.1c0-0.8,0-1.6,0-2.4c0-0.4,0-0.7,0-1.1c0-0.2,0-0.2-0.2-0.4
		C29.6,25.9,29.5,25.9,29.4,25.8z"/>
	<path id="XMLID_14_" d="M17.9,29.2h2c0.3-1.1,0.4-2.1,0.7-3.1h-2.7v-4.2c-1.4,0.3-2.7,0.7-3.8,0.8c-0.3,0.1-0.4,0.3-0.4,0.4
		c-0.1,0.8-0.3,1.7-0.4,2.7h-2v3.1h1.7v0.4c0,2.3,0,4.5,0,6.6c0,2,0.8,3.1,2.4,3.5c1.7,0.4,3.5,0.1,5.1-0.3c0-1,0-1.9,0-2.9
		c0-0.2,0-0.4,0-0.6c0,0.1-0.8,0.2-0.9,0.2c-0.3,0.1-0.6,0.1-0.9,0.1c-0.4,0.1-0.7-0.1-0.7-0.6c0-0.1,0-0.3,0-0.4c0-1.7,0-3.7,0-5.4
		C17.9,29.4,17.9,29.2,17.9,29.2z"/>
	<path id="XMLID_15_" d="M9,32.1c-0.6-0.4-1.4-0.7-2.1-1.1c-0.1-0.1-0.4-0.1-0.7-0.4c-0.3-0.3-0.3-0.4-0.3-0.7
		c0-0.4,0.4-0.6,0.7-0.7c0.3-0.1,3.5,0.3,3.5,0.4c0-1,0-2,0-3c0-0.3-0.1-0.4-0.3-0.4c-1.7-0.4-3.4-0.7-5.1-0.3
		c-2.4,0.6-4.2,3-3.5,5.5c0.1,0.7,0.7,1.7,1.4,2.1s1.7,1.1,2.5,1.4c0.4,0.1,0.7,0.6,0.4,1c-0.4,0.3-0.4,0.6-0.8,0.6
		c-0.4,0.1-1,0.1-1.4,0c-0.7-0.1-1.4-0.3-2.3-0.4c0,1.1,0,2.3,0,3.4c0,0.3,0.4,0.4,0.7,0.4C2.2,40,2.5,40,3,40.2
		c1.1,0.1,2,0.1,3.1,0.1c1.1-0.1,2.1-0.4,3-1.1c1-0.8,1.3-2.3,1.4-3.5C10.4,34.1,10,32.8,9,32.1z"/>
	<path id="XMLID_18_" d="M57.5,36.2c-0.8-0.1-1.4-0.7-1.1-1.7H63c-0.1-1.4-0.1-3-0.3-4.2c-0.1-1.1-0.7-2.3-1.6-3.2
		c-1.3-1.5-3.5-1.3-5.2-1c-1.6,0.3-3,1.2-3.7,2.7c-0.2,0.4-0.4,0.8-0.5,1.2c-0.6,2.1-0.6,4.2,0,6.4c0.4,2,1.7,3.4,3.8,3.8
		c2,0.3,3.7,0.3,5.5-0.1c1.1-0.3,1.1-0.3,1.1-1.4c0,0,0-2.5,0-2.5c0,0.1-1.6,0.3-1.7,0.3C59.5,36.2,58.5,36.3,57.5,36.2z M56.6,29.4
		c0-0.3,0.1-0.4,0.3-0.6c0.4-0.4,1.4-0.3,1.4,0.3c0.1,0.8,0.3,1.7,0.3,2.5c-0.8,0-1.4,0-2.3,0C56.3,31,56.3,30.3,56.6,29.4z"/>
	<path id="XMLID_21_" d="M49.2,27.8c-0.5-0.8-1-1.4-2-1.7c-1.4-0.3-2.8-0.3-4.2,0.6c-0.1,0.1-0.3,0.1-0.4,0.3c-0.3-1-1.1-0.8-2-0.8
		c-0.1,0-0.3,0-0.3,0h-2.3v18.4c0,0.1,0,0.3,0,0.4h5.1V40c0.7,0.1,1.4,0.3,2.1,0.3c1.4,0,2.8-0.4,3.6-1.6c1-1.3,1.3-3,1.4-4.7
		c0.1-1.1,0.1-2.2-0.1-3.3c-0.2-1-0.5-1.9-0.9-2.8C49.3,27.9,49.2,27.8,49.2,27.8z M45,35.4c-0.3,1.1-0.8,1.4-2,1v-0.8
		c0-1.7,0-3.5,0-5.4c0-0.3,0.1-0.4,0.3-0.6c0.1-0.1,0.3-0.1,0.4-0.1c0.7-0.1,1,0,1.1,0.7C45.3,31.8,45.3,33.7,45,35.4z"/>
	<path id="XMLID_22_" d="M33.7,19.3L33.7,19.3h-0.6H33c-1.1,0.1-2.1,1.1-2.1,2.5c0,0.7,0.3,1.4,0.7,1.7c0.3,0.3,0.7,0.4,1.1,0.6
		c0.3,0.1,0.3,0.1,0.6,0.1l0,0c1.4,0,2.5-1.1,2.5-2.5C35.9,20.4,34.9,19.3,33.7,19.3z"/>
</g>
</svg>
