<?xml version="1.0" encoding="utf-8"?>
<!-- Generator: Adobe Illustrator 22.0.1, SVG Export Plug-In . SVG Version: 6.00 Build 0)  -->
<svg version="1.1" id="lni_lni-stumbleupon" xmlns="http://www.w3.org/2000/svg" xmlns:xlink="http://www.w3.org/1999/xlink"
	 x="0px" y="0px" viewBox="0 0 64 64" style="enable-background:new 0 0 64 64;" xml:space="preserve">
<path d="M63,33.3v8.6c0,7.6-6.2,13.8-13.8,13.8s-13.8-6.1-13.8-13.8v-8.5l4.2,2l6.3-1.8v8.7c0,1.8,1.4,3.2,3.2,3.2s3.2-1.4,3.2-3.2
	v-8.9C52.4,33.3,63,33.3,63,33.3z M35.2,26.1l4.2,2l6.3-1.8v-4.4c0-7.5-6.3-13.5-13.8-13.5s-13.8,5.9-13.8,13.4v20
	c0,1.8-1.4,3.2-3.2,3.2s-3.2-1.4-3.2-3.2v-8.5H1v8.6c0,7.6,6.2,13.8,13.8,13.8S28.6,49.6,28.6,42V22.3c0-1.8,1.4-3.2,3.2-3.2
	c1.8,0,3.2,1.4,3.2,3.2v3.8H35.2z"/>
</svg>
