<?xml version="1.0" encoding="utf-8"?>
<!-- Generator: Adobe Illustrator 22.0.1, SVG Export Plug-In . SVG Version: 6.00 Build 0)  -->
<svg version="1.1" id="lni_lni-swift" xmlns="http://www.w3.org/2000/svg" xmlns:xlink="http://www.w3.org/1999/xlink" x="0px"
	 y="0px" viewBox="0 0 64 64" style="enable-background:new 0 0 64 64;" xml:space="preserve">
<path d="M63.1,18.2c0-0.6,0-1.3,0-1.8c0-1.4-0.1-2.7-0.4-4.1c-0.1-1.4-0.7-2.7-1.3-3.8c-1.3-2.4-3.2-4.5-5.8-5.8
	c-1.3-0.6-2.5-1.1-3.9-1.3C50.3,1.3,49,1,47.6,1c-0.6,0-1.3,0-1.8,0H18.4c-0.6,0-1.3,0-1.8,0c-0.3,0-0.7,0-1.1,0
	c-1.1,0-2,0.1-3.1,0.3c-1,0.1-2,0.4-3,0.8c-0.3,0.1-0.7,0.3-1,0.4C7.5,3.1,6.7,3.7,5.9,4.4C5.6,4.5,5.4,4.8,5,5.1
	c-1,1-1.7,2-2.4,3.2c-0.6,1.3-1.1,2.5-1.3,3.9s-0.3,2.7-0.4,4.1c0,0.6,0,1.3,0,1.8v27.6c0,0.6,0,1.3,0,1.8c0,1.4,0.1,2.7,0.4,4.1
	c0.1,1.4,0.7,2.7,1.3,3.9c1.3,2.5,3.2,4.5,5.8,5.8c1.3,0.6,2.5,1.1,3.9,1.3c1.4,0.1,2.7,0.4,4.1,0.4c0.6,0,1.3,0,1.8,0h27.6
	c0.6,0,1.3,0,1.8,0c1.4,0,2.7-0.1,4.1-0.4c1.4-0.1,2.7-0.7,3.9-1.3c2.4-1.3,4.5-3.2,5.8-5.8c0.6-1.3,1.1-2.5,1.3-3.9
	s0.4-2.7,0.4-4.1c0-0.6,0-1.3,0-1.8V20.4C63.1,19.7,63.1,18.9,63.1,18.2z M53.4,51.5c-2.8-5.3-7.9-4.1-10.5-2.7
	c-0.1,0.1-0.4,0.3-0.7,0.4H42c-5.3,3-12.8,3.1-20.1-0.1c-6-2.7-11-7-14.5-12.5c1.7,1.3,3.5,2.4,5.5,3.2c7.9,3.7,15.6,3.4,21.2,0
	c-7.9-6-14.3-13.9-19.5-20.2c-1-1.1-1.8-2.2-2.7-3.5c6,5.5,15.6,12.5,19,14.3c-7.3-7.6-13.6-17.2-13.4-16.7
	c11.4,11.5,21.9,18.1,21.9,18.1c0.4,0.1,0.7,0.4,1,0.6c0.1-0.6,0.4-1.1,0.6-1.7c1.8-6.6-0.1-14.3-4.8-20.5
	c10.7,6.3,16.9,18.4,14.3,28.7c-0.1,0.1-0.1,0.4-0.1,0.7C55.5,45.7,54.1,52.7,53.4,51.5L53.4,51.5z"/>
</svg>
