<?xml version="1.0" encoding="utf-8"?>
<!-- Generator: Adobe Illustrator 22.0.1, SVG Export Plug-In . SVG Version: 6.00 Build 0)  -->
<svg version="1.1" id="lni_lni-telegram" xmlns="http://www.w3.org/2000/svg" xmlns:xlink="http://www.w3.org/1999/xlink" x="0px"
	 y="0px" viewBox="0 0 64 64" style="enable-background:new 0 0 64 64;" xml:space="preserve">
<g>
	<path d="M53.8,10.2C48.1,4.2,40.3,1,32,1s-16.1,3.2-21.8,9.2S1,23.7,1,32s3.2,16.1,9.2,21.8S23.7,63,32,63s16.1-3.2,21.8-9.2
		S63,40.3,63,32S59.8,15.9,53.8,10.2z M32,60C16.5,60,4,47.5,4,32S16.5,4,32,4s28,12.7,28,28S47.5,60,32,60z"/>
	<path d="M46.7,17.6c-1.1-0.7-2.7-0.1-3.1,0.1L14,29.3c-1.1,0.4-2.3,1.3-2,2.7c0.1,1.6,1.8,2.1,2,2.3c0,0,6.9,2.4,6.9,2.4
		c0.5,2,1.2,4,1.8,6c0.2,0.7,0.5,1.4,0.7,2.1c0.2,0.6,0.3,1.2,0.7,1.7c0.2,0.2,0.4,0.4,0.6,0.5c0.4,0.1,0.8,0.2,1.2,0.2
		c0.3,0,0.8-0.1,1-0.4c0,0,3.9-3.7,3.9-3.7l6.6,5.1c0.1,0.1,0.1,0.1,0.3,0.1c0.6,0.3,1.1,0.3,1.4,0.3c0.3,0,0.8-0.1,1.1-0.1
		c1.1-0.4,1.7-1.5,1.7-1.7c0-0.1,0.1-0.1,0.1-0.1l5.4-26.9c0-0.1,0-0.1,0-0.1C47.5,18.3,46.9,17.9,46.7,17.6z M26.6,43.6l0.4-3.7
		l2,1.4L26.6,43.6z M39.9,45.7c-0.1,0.3-0.3,0.5-0.6,0.5c-0.2,0-0.3-0.1-0.5-0.2c-3.7-2.9-7.3-5.7-11-8.6c4.2-3.6,8.3-7.3,12.4-11.1
		c0.5-0.4,0.9-0.8,1.2-1.4c0.3-0.6,0.3-1.3-0.1-1.7c-0.4-0.4-1-0.6-1.6-0.4c-0.6,0.1-1.1,0.4-1.6,0.7c-5.5,3.5-10.9,7-16.4,10.4
		c-0.2,0.1-0.4,0.2-0.6,0.3c-0.2,0-0.4,0-0.6-0.1c-1.1-0.4-2.3-0.7-3.4-1.1c-1.1-0.4-2.3-0.6-3.3-1.2c10.3-4.1,20.6-8.1,31-12.2
		c-1.6,8.5-3.2,17-4.8,25.6C40,45.3,39.9,45.5,39.9,45.7z"/>
</g>
</svg>
