<?xml version="1.0" encoding="utf-8"?>
<!-- Generator: Adobe Illustrator 22.0.1, SVG Export Plug-In . SVG Version: 6.00 Build 0)  -->
<svg version="1.1" id="lni_lni-trello" xmlns="http://www.w3.org/2000/svg" xmlns:xlink="http://www.w3.org/1999/xlink" x="0px"
	 y="0px" viewBox="0 0 64 64" style="enable-background:new 0 0 64 64;" xml:space="preserve">
<path d="M55.4,1H8.8C4.5,1,1,4.5,1,8.8c0,0,0-0.6,0,46.5C1,59.5,4.5,63,8.8,63h46.5c4.2,0,7.8-3.5,7.8-7.8V8.8C63,4.5,59.6,1,55.4,1
	L55.4,1z M28.3,47.9c0,2-1.7,3.7-3.7,3.7H13.1c-2,0-3.7-1.7-3.8-3.7V12.7C9.3,10.7,11,9,13,9h11.4c2,0,3.7,1.7,3.7,3.7L28.3,47.9
	L28.3,47.9z M55,32.4c0,2-1.7,3.7-3.7,3.7H40c-2,0-3.7-1.7-3.7-3.7V12.7c0-2,1.7-3.7,3.7-3.7h11.3c2,0,3.7,1.7,3.7,3.7V32.4z"/>
</svg>
