<svg width="64" height="64" viewBox="0 0 64 64" fill="none" xmlns="http://www.w3.org/2000/svg">
<path d="M50.1 59.1C48.4 60.8 44.1 63 38.3 63C23.7 63 20.4 52.3 20.4 46V28.5H14.6C13.9 28.5 13.3 27.9 13.3 27.2V19C13.3 18.2 13.9 17.3 14.7 17C22.4 14.4 24.7 7.9 25 3C25.1 1.6 25.7 1 27 1H35.6C36.3 1 36.9001 1.6 36.9001 2.3V16.2H47C47.7 16.2 48.3 16.6 48.3 17.3V27.1C48.3 27.8 47.7 28.4 47 28.4H36.8V44.4C36.8 48.6 39.8 50.9 45 48.8C45.6 48.7 46.1 48.4 46.5 48.5C46.9 48.6 47.2 48.9 47.3 49.5L50 57.2C50.3 57.8 50.6 58.6 50.1 59.1Z" fill="black"/>
</svg>
