<?xml version="1.0" encoding="utf-8"?>
<!-- Generator: Adobe Illustrator 22.0.1, SVG Export Plug-In . SVG Version: 6.00 Build 0)  -->
<svg version="1.1" id="lni_lni-ubuntu" xmlns="http://www.w3.org/2000/svg" xmlns:xlink="http://www.w3.org/1999/xlink" x="0px"
	 y="0px" viewBox="0 0 64 66.1" style="enable-background:new 0 0 64 66.1;" xml:space="preserve">
<path d="M32,2C14.8,2,1,16,1,33s13.8,31,31,31s31-13.8,31-31S49.2,2,32,2z M38.6,13.7c1.1-2,3.5-2.5,5.4-1.4c2,1.1,2.5,3.5,1.4,5.5
	c-1.1,2-3.5,2.5-5.4,1.4C38.1,18,37.5,15.6,38.6,13.7z M12,37C9.7,37,8,35.3,8,33s1.7-3.9,3.9-3.9s3.9,1.7,3.9,3.9
	C15.9,35.3,14.1,37,12,37z M15.4,37.4c2.8-2.3,2.8-6.5,0-8.7c1.1-4.1,3.7-7.6,7-9.9l3,4.9c-6.3,4.5-6.3,14.1,0,18.6l-3,4.9
	C19.2,45,16.5,41.5,15.4,37.4z M44,53.9c-2,1.1-4.4,0.4-5.4-1.4c-1-1.8-0.4-4.4,1.4-5.4c1.8-1,4.4-0.4,5.4,1.4
	C46.7,50.4,46,52.8,44,53.9z M44.1,45.3c-3.2-1.3-7,0.8-7.6,4.4c-0.7,0.1-6.1,1.7-12.1-1.1l2.8-5.1c7.2,3.2,15.4-1.4,16.1-9.3
	l5.8,0.1C48.9,38.4,46.9,42.3,44.1,45.3L44.1,45.3z M43.3,32.1c-0.7-7.7-8.9-12.7-16.1-9.3l-2.8-5.1c6.1-3,11.4-1.4,12.1-1.1
	c0.6,3.5,4.2,5.6,7.6,4.4c3,3,4.8,6.8,5.1,11L43.3,32.1L43.3,32.1z"/>
</svg>
