<?xml version="1.0" encoding="utf-8"?>
<!-- Generator: Adobe Illustrator 22.0.1, SVG Export Plug-In . SVG Version: 6.00 Build 0)  -->
<svg version="1.1" id="lni_lni-vimeo" xmlns="http://www.w3.org/2000/svg" xmlns:xlink="http://www.w3.org/1999/xlink" x="0px"
	 y="0px" viewBox="0 0 64 64" style="enable-background:new 0 0 64 64;" xml:space="preserve">
<path d="M63,17.6c-0.3,6.1-4.5,14.4-12.7,24.9C41.9,53.5,34.7,59,28.9,59c-3.5,0-6.6-3.2-9.2-10C18,43,16.5,36.8,14.7,30.6
	c-1.8-6.6-3.8-10-6.1-10c-0.4,0-2.1,1-4.9,3L1,19.6c3.1-2.7,6.1-5.4,9.2-8.2c4.1-3.5,7-5.4,9.2-5.5c4.8-0.4,7.7,3,8.9,9.9
	c1.1,7.6,2,12.4,2.5,14.2c1.4,6.3,3,9.4,4.5,9.4c1.3,0,3.2-2,5.9-6.1c2.7-4.1,3.9-7.3,4.2-9.4c0.4-3.5-1.1-5.4-4.2-5.4
	c-1.4,0-3,0.3-4.5,1.1c3-10,8.7-14.9,17.3-14.7C60.3,5.2,63.3,9.4,63,17.6z"/>
</svg>
