<?xml version="1.0" encoding="utf-8"?>
<!-- Generator: Adobe Illustrator 22.0.1, SVG Export Plug-In . SVG Version: 6.00 Build 0)  -->
<svg version="1.1" id="lni_lni-visa" xmlns="http://www.w3.org/2000/svg" xmlns:xlink="http://www.w3.org/1999/xlink" x="0px"
	 y="0px" viewBox="0 0 64 64" style="enable-background:new 0 0 64 64;" xml:space="preserve">
<g>
	<g>
		<polygon points="28.8,39.6 31.2,24.4 27.3,24.4 24.8,39.6 		"/>
		<path d="M42.4,34.6c0-1.7-1-3-3.3-4.2c-1.4-0.7-2.2-1.2-2.2-1.9c0-0.6,0.7-1.3,2.3-1.3c1.3,0,2.2,0.3,3,0.6l0.4,0.1l0.5-3.2
			c-0.8-0.3-2-0.6-3.5-0.6c-3.9,0-6.7,2-6.7,5c0,2.2,1.9,3.5,3.5,4.2c1.5,0.7,2.1,1.2,2.1,1.9c0,1-1.2,1.5-2.4,1.5
			c-1.6,0-2.5-0.2-3.8-0.8l-0.5-0.2l-0.6,3.5c0.9,0.3,2.6,0.7,4.3,0.7C39.7,39.9,42.4,37.8,42.4,34.6z"/>
		<path d="M46.2,39.6c0,0,0.6-1.9,0.9-2.3c0.4,0,4.5,0,5,0c0.1,0.5,0.5,2.3,0.5,2.3h3.7l-3.2-15.2h-3c-0.9,0-1.7,0.3-2.1,1.3
			l-5.9,13.9L46.2,39.6L46.2,39.6z M49.7,30.1c0,0.1,0.4-0.9,0.5-1.4l0.3,1.3c0,0,0.8,3.7,0.9,4.4c-0.6,0-2.5,0-3.3,0
			C48.5,33.4,49.7,30.1,49.7,30.1z"/>
		<polygon points="15.3,39.6 19.4,39.6 25.8,24.4 21.6,24.4 17.7,34.9 15.6,24.4 7.7,24.4 12.1,27.7 		"/>
	</g>
	<path d="M57,17.3c1.4,0,2.5,1.1,2.5,2.5v24.3c0,1.4-1.1,2.5-2.5,2.5H7c-1.4,0-2.5-1.1-2.5-2.5V19.8c0-1.4,1.1-2.5,2.5-2.5H57
		 M57,13.8H7c-3.3,0-6,2.7-6,6v24.3c0,3.3,2.7,6,6,6h50c3.3,0,6-2.7,6-6V19.8C63,16.5,60.3,13.8,57,13.8L57,13.8z"/>
</g>
</svg>
