<?xml version="1.0" encoding="utf-8"?>
<!-- Generator: Adobe Illustrator 22.0.1, SVG Export Plug-In . SVG Version: 6.00 Build 0)  -->
<svg version="1.1" id="lni_lni-vk" xmlns="http://www.w3.org/2000/svg" xmlns:xlink="http://www.w3.org/1999/xlink" x="0px" y="0px"
	 viewBox="0 0 64 64" style="enable-background:new 0 0 64 64;" xml:space="preserve">
<path d="M41.4,1H22.6C5.1,1,1,5.1,1,22.6v19C1,58.9,5.1,63,22.6,63h19C58.9,63,63,58.9,63,41.4V22.6C63,5.1,58.9,1,41.4,1z M51,45.2
	h-4.5c-1.7,0-2.3-1.4-5.4-4.5c-2.7-2.7-3.9-3-4.5-3c-0.8,0-1.1,0.1-1.1,1.4v4.1c0,1.1-0.3,1.7-3.2,1.7c-4.8,0-10-3-13.8-8.3
	c-5.6-7.9-7-13.8-7-15.1c0-0.7,0.1-1.3,1.4-1.3h4.5c1.1,0,1.6,0.4,2,1.7c2.3,6.5,5.9,12.1,7.5,12.1c0.6,0,0.8-0.3,0.8-1.7v-6.6
	c-0.1-3.1-1.7-3.2-1.7-4.5c0-0.4,0.4-1.1,1.1-1.1h7c1,0,1.3,0.4,1.3,1.7v8.9c0,1,0.4,1.3,0.7,1.3c0.6,0,1.1-0.3,2.1-1.4
	c3.2-3.7,5.5-9.2,5.5-9.2c0.3-0.7,0.8-1.3,2-1.3h4.5c1.4,0,1.7,0.7,1.4,1.7c-0.6,2.7-6.1,10.4-6.1,10.4c-0.4,0.7-0.7,1.1,0,2
	c0.4,0.7,2.1,2,3.1,3.2c2,2.3,3.4,4.1,3.8,5.4C52.9,44.5,52.3,45.2,51,45.2z"/>
</svg>
