<?xml version="1.0" encoding="utf-8"?>
<!-- Generator: Adobe Illustrator 22.0.1, SVG Export Plug-In . SVG Version: 6.00 Build 0)  -->
<svg version="1.1" id="lni_lni-wechat" xmlns="http://www.w3.org/2000/svg" xmlns:xlink="http://www.w3.org/1999/xlink" x="0px"
	 y="0px" viewBox="0 0 64 64" style="enable-background:new 0 0 64 64;" xml:space="preserve">
<g>
	<path d="M56.5,51.5c3.9-2.8,6.5-7,6.5-11.8C63,31.1,54.7,24,44.3,24s-18.6,7-18.6,15.6S34,55.2,44.3,55.2c2.1,0,4.2-0.3,6.1-0.8
		c0.1-0.1,0.3-0.1,0.6-0.1s0.7,0.1,1,0.3l4.1,2.4c0.1,0.1,0.1,0.1,0.3,0.1c0.3,0,0.6-0.3,0.6-0.6c0-0.1-0.1-0.3-0.1-0.4
		c0-0.1-0.6-2-0.7-3.2c0-0.1,0-0.3,0-0.4C56,52.1,56.2,51.7,56.5,51.5z M38.1,37.3c-1.4,0-2.5-1.1-2.5-2.5s1.1-2.5,2.5-2.5
		s2.5,1.1,2.5,2.5S39.5,37.3,38.1,37.3z M50.5,37.3c-1.4,0-2.5-1.1-2.5-2.5s1.1-2.5,2.5-2.5s2.5,1.1,2.5,2.5S52,37.3,50.5,37.3z"/>
	<path d="M44.3,22.8c0.4,0,0.7,0,1.3,0C43.8,13.9,34.5,7,23.4,7C11.1,7.1,1,15.4,1,25.7c0,5.8,3,10.7,7.8,14.1
		c0.4,0.3,0.6,0.7,0.6,1.3c0,0.1-0.1,0.3-0.1,0.4c-0.4,1.4-1,3.7-1,3.8C8,45.5,8,45.6,8,45.9c0,0.4,0.3,0.7,0.8,0.7
		c0.1,0,0.3-0.1,0.4-0.1l4.9-2.8c0.3-0.1,0.8-0.3,1.3-0.3c0.1,0,0.4,0.1,0.7,0.1c2.3,0.7,4.8,1,7.3,1c0.4,0,0.7,0,1.3,0
		c-0.4-1.4-0.7-3-0.7-4.5C24,30.2,33,22.8,44.3,22.8z M30.9,16.7c1.7,0,3,1.4,3,3s-1.4,3-3,3s-3-1.4-3-3
		C27.9,18.1,29.2,16.7,30.9,16.7z M15.9,22.8c-1.7,0-3-1.4-3-3c0-1.6,1.4-3,3-3s3,1.4,3,3C18.9,21.4,17.6,22.8,15.9,22.8z"/>
</g>
</svg>
