<?xml version="1.0" encoding="utf-8"?>
<!-- Generator: Adobe Illustrator 22.0.1, SVG Export Plug-In . SVG Version: 6.00 Build 0)  -->
<svg version="1.1" id="lni_lni-windows" xmlns="http://www.w3.org/2000/svg" xmlns:xlink="http://www.w3.org/1999/xlink" x="0px"
	 y="0px" viewBox="0 0 64 64" style="enable-background:new 0 0 64 64;" xml:space="preserve">
<title>Layer 1</title>
<g>
	<path d="M62.9,30.5c0-9.7,0-19.7,0-29.4C51.6,2.6,40.4,4.2,29,6l0,0c0,8.3,0,16.6,0,24.7C40.4,30.6,51.6,30.6,62.9,30.5z"/>
	<path d="M1,10.2V31c8.3,0,16.9-0.1,25.2-0.1c0-8.2,0-16,0-24.2C17.9,7.8,9.3,8.9,1,10.2z"/>
	<path d="M1,33.4v20.8c8.3,1.1,16.9,2.2,25.2,3.4c0-8,0-16,0-24C17.9,33.4,9.3,33.4,1,33.4z"/>
	<path d="M29.3,33.8c0.1,8.2,0.1,16.2,0.1,24.3c11.2,1.5,22.4,3.1,33.6,4.8c0-9.7,0-19.4,0-29.1C51.6,33.8,40.4,33.8,29.3,33.8z"/>
</g>
</svg>
