<?xml version="1.0" encoding="utf-8"?>
<!-- Generator: Adobe Illustrator 22.0.1, SVG Export Plug-In . SVG Version: 6.00 Build 0)  -->
<svg version="1.1"
	 id="lni_lni-xbox" inkscape:version="0.91pre4 r13712" sodipodi:docname="Xbox Logo.svg" xmlns:cc="http://creativecommons.org/ns#" xmlns:dc="http://purl.org/dc/elements/1.1/" xmlns:inkscape="http://www.inkscape.org/namespaces/inkscape" xmlns:rdf="http://www.w3.org/1999/02/22-rdf-syntax-ns#" xmlns:sodipodi="http://sodipodi.sourceforge.net/DTD/sodipodi-0.dtd" xmlns:svg="http://www.w3.org/2000/svg"
	 xmlns="http://www.w3.org/2000/svg" xmlns:xlink="http://www.w3.org/1999/xlink" x="0px" y="0px" viewBox="0 0 64 64"
	 style="enable-background:new 0 0 64 64;" xml:space="preserve">
<title  id="title4166">Xbox Logo</title>
<sodipodi:namedview  bordercolor="#666666" borderopacity="1" fit-margin-bottom="0" fit-margin-left="0" fit-margin-right="0" fit-margin-top="0" gridtolerance="10" guidetolerance="10" id="namedview4138" inkscape:current-layer="g4146" inkscape:cx="120.11921" inkscape:cy="190.18765" inkscape:pageopacity="0" inkscape:pageshadow="2" inkscape:window-height="1017" inkscape:window-maximized="1" inkscape:window-width="1920" inkscape:window-x="-8" inkscape:window-y="-8" inkscape:zoom="2.2378738" objecttolerance="10" pagecolor="#ffffff" showgrid="false">
	</sodipodi:namedview>
<g>
	<path d="M22.3,19.4l1.3-1.5l-2.3-2c-3.8-3.4-6.3-5.1-8.6-5.9c-1.8-0.7-2-0.6-3.5,1c-3.5,3.8-6.6,10-7.5,15.3
		c-0.7,4.4-0.8,5.5-0.6,7.6C1.9,40.2,3.3,44.6,6.3,49c1.3,1.8,1.5,2.3,1.1,1.3c-0.6-1.4-0.1-4.8,1.1-8
		C10.8,36.2,16.7,26.3,22.3,19.4z"/>
	<path d="M17.7,5.3c0.8,0,2.1,0,3,0.1c2.3,0.4,6.3,1.8,8.9,3.1C30.8,9.3,32,9.8,32,9.7c0,0,1.3-0.6,2.7-1.3c4.6-2.3,9-3.4,12-3.2
		l1.5,0.1l-1-0.3c-2.1-1.4-6.1-2.8-9.3-3.5c-3.1-0.7-8.9-0.7-12,0c-2.7,0.6-4.8,1.3-7.2,2.4C16,5.3,15.8,5.5,17.7,5.3z"/>
	<path d="M32.3,26.2c-0.6-0.1-6.2,4.8-10.1,9c-7,7.5-11.1,13.9-11.1,17.7c0,1.8,0.7,2.8,4.2,5.1c4.2,2.8,9,4.5,13.8,4.9
		c3.9,0.3,8.7-0.1,12.5-1.3c4.5-1.4,10.6-5.2,11.5-7c1.3-2.4-1.3-8-6.8-14.8C42.9,35.6,33.4,26.4,32.3,26.2z"/>
	<path d="M62.4,26c-1-4.4-2.8-8.4-5.2-12c-1.5-2.1-3.5-4.2-4.1-4.2c-1,0-3.1,0.7-4.5,1.7c-1.8,1.1-3.5,2.5-6.1,4.8l-2,1.7l1.8,2.3
		c5.6,7,11.7,17.5,13.5,23.1c0.8,2.5,1.3,5.1,1,6.5c-0.1,1-0.1,1,0.1,0.7c0.8-1,2.5-3.9,3.2-5.5c0.8-2,1.8-5.1,2.3-7.3
		C63.1,34.9,63,28.8,62.4,26z"/>
</g>
</svg>
