<?xml version="1.0" encoding="utf-8"?>
<!-- Generator: Adobe Illustrator 22.0.1, SVG Export Plug-In . SVG Version: 6.00 Build 0)  -->
<svg version="1.1" id="lni_lni-yahoo" xmlns="http://www.w3.org/2000/svg" xmlns:xlink="http://www.w3.org/1999/xlink" x="0px"
	 y="0px" viewBox="0 0 64 64" style="enable-background:new 0 0 64 64;" xml:space="preserve">
<g>
	<path d="M60.2,5.3L60.2,5.3L60.2,5.3c0,0-0.4-0.1-0.7-0.1c-1.7,0-3.5,1-3.5,3.5c-1,13-2.1,26.1-3.9,38.5l0,0l0,0l0,0l0,0
		c1.1-0.1,1.8,0.1,2.7,0.4l0,0c2-12.5,6.8-31.4,7.9-36.8c0.3-0.6,0.4-1.5,0.4-2.1C63.1,6.7,61.9,5.6,60.2,5.3z"/>
	<path d="M44.4,4.8L44.4,4.8c-2.5,0.6-4.9,0.6-7.3,0c-2,3.8-9.6,16.2-14.4,24C17.9,20.5,12,11.3,8.3,4.8c-3,0.6-4.2,0.7-7.3,0
		c5.9,8.9,15.4,25.8,18.5,31.4L19,59.3c0,0,2.1-0.3,3.5-0.3c1.5,0,3.5,0.3,3.5,0.3l-0.4-23.1C31.7,25.6,41.6,8.4,44.4,4.8
		C44.4,4.6,44.4,4.8,44.4,4.8z"/>
	<path d="M51.9,52.5c-2.4,0-3.4,1.7-3.4,3.5c0,2.1,1.7,3.2,3.9,3.2c1.5,0,3.2-1,3.2-3.5C55.7,53.9,54,52.5,51.9,52.5z"/>
</g>
</svg>
