<svg id="Layer_1" height="512" viewBox="0 0 512 512" width="512" xmlns="http://www.w3.org/2000/svg" data-name="Layer 1"><path d="m350.8 141.71-195.8 2.05-85.36 28.78 186.36 93.07 186.36-93.07z" fill="#9b8868"/><path d="m438.5 174.82-182.5 90.79v235.39l182.67-88.32v-237.53z" fill="#e0c59d"/><path d="m73.35 174.74-.02.04v237.9l182.67 88.32v-235.39z" fill="#ffe6bb"/><path d="m350.8 141.71c-17.16 28.8-48.03 56.19-95.52 75.43a7.637 7.637 0 0 1 -5.79 0c-46.5-18.45-77.13-45.08-94.49-73.38-16.12-26.23-20.83-53.9-16.24-77.83 6.36-33.54 29.78-54.93 60.14-54.93 17.06 0 35.27 6.94 53.48 20.53 17.93-13.01 36.43-19.95 53.2-19.95 30.36 0 53.78 21.39 60.43 54.35 4.5 23.19.12 50.05-15.21 75.78z" fill="#eb7288"/><path d="m442.36 172.54-186.36 93.07 38.81 77.62 185.44-98.61z" fill="#d3bd94"/><path d="m73.35 174.74-.02.04v237.9l30 14.505v-237.53z" fill="#e5cca8"/><path d="m185 143.76c-16.12-26.23-20.83-53.9-16.24-77.83 5.286-27.877 22.364-47.347 45.411-53.131a68.25 68.25 0 0 0 -15.271-1.799c-30.36 0-53.78 21.39-60.14 54.93-4.59 23.93.12 51.6 16.24 77.83 17.36 28.3 47.99 54.93 94.49 73.38a7.637 7.637 0 0 0 5.79 0q6.189-2.508 12-5.2c-39.713-18.078-66.489-42.44-82.28-68.18z" fill="#ce637a"/><path d="m69.64 172.54-37.89 72.08 185.44 98.61 38.81-77.62z" fill="#d3bd94"/><path d="m69.64 172.54-37.89 72.08 29.107 15.478 38.374-72.78z" fill="#b7a280"/><path d="m28.932 249.919 38.4 20.421v142.339a6 6 0 0 0 3.389 5.4l182.668 88.321a6 6 0 0 0 5.222 0l182.666-88.321a6 6 0 0 0 3.389-5.4v-142.339l38.4-20.421a6 6 0 0 0 2.494-8.089l-37.889-72.08a5.977 5.977 0 0 0 -3.4-2.892l-.065-.022h-.011l-84.695-28.536c13.2-25.11 16.774-50.97 12.4-73.512 0-.015 0-.029-.008-.043-7.257-35.945-33.284-59.167-66.311-59.167-16.962 0-35.26 6.41-53.146 18.58-18.123-12.717-36.115-19.158-53.535-19.158-33.22 0-59.138 23.478-66.027 59.8-4.465 23.274-.625 49.941 13.284 75.609l-78.436 26.447a5.975 5.975 0 0 0 -3.395 2.891l-37.888 72.083a6 6 0 0 0 2.494 8.089zm221.068 241.515-170.666-82.518v-132.195l135.036 71.806a6 6 0 0 0 8.184-2.614l27.446-54.892zm182.666-82.518-170.666 82.518v-200.413l27.446 54.892a6 6 0 0 0 8.184 2.614l135.036-71.806zm39.5-166.789-174.738 92.917-33.377-66.752 175.734-87.757zm-327.508-175.078c5.856-30.871 26.642-50.049 54.242-50.049 15.913 0 32.7 6.5 49.9 19.336a6 6 0 0 0 7.112.047c16.95-12.3 34.127-18.805 49.673-18.805 27.472 0 48.367 18.974 54.538 49.518 12.539 64.678-44.619 119.1-106.9 144.4a1.794 1.794 0 0 1 -1.688-.006c-86.384-34.342-115.927-97.27-106.877-144.441zm7.82 83.892c18.362 27.8 49.171 53.667 94.8 71.772.1.041.207.079.313.114a13.371 13.371 0 0 0 9.583 0c.119-.039.236-.083.352-.13 46.469-18.826 77.569-45.455 95.8-73.814l73.447 24.739-170.773 85.278-170.776-85.281zm-80.263 29.594 175.734 87.757-33.377 66.752-174.733-92.917z" fill="#284268"/></svg>