<svg xmlns="http://www.w3.org/2000/svg" width="25.744" height="18.582" viewBox="0 0 25.744 18.582">
    <g>
        <path fill="#5098ef" d="M68.4 32.74a.229.229 0 0 1 .263-.2h13.962c.184-.009.368.022.552.027 8.47 0 12.921.408 7.71.4a.911.911 0 0 0-.182-.021H68.667c-.122.01-.269-.065-.267-.2m16.361.885a22.269 22.269 0 0 1 3.063.037 4.825 4.825 0 0 1 1.123.231c6.517.008 6.72.38.3.379a7.889 7.889 0 0 0-1.086.145c-.184.019-.37.022-.553.052-.167.008-.334 0-.5.02-.344.032-.691-.014-1.035.026a1.963 1.963 0 0 1-.474-.007c-.317-.034-.638.021-.953-.029a9.574 9.574 0 0 1-1.98-.228c-2.543-.009-5.086 0-7.629 0-.116 0-.232-.025-.349-.025h-6.073c-.106.009-.24-.05-.231-.174-.012-.126.123-.189.23-.179h6.222c.552.01 1.105-.025 1.656.025h6.182a10.67 10.67 0 0 1 1.672-.229c.136-.027.276-.007.412-.038m-3.274 1.343c.88-.061 1.761-.1 2.643-.093s1.738-.023 2.6.047c.142.008.284 0 .426.008.216.031.435.033.653.051.133.023.267.039.4.05.264.036.52.111.777.17 6.5 0 6.5.375 0 .379a12.676 12.676 0 0 1-1.721.154 4.179 4.179 0 0 1-.636.02c-.516.052-1.035.008-1.551.03a8.433 8.433 0 0 1-.906.019c-.531-.06-1.067.012-1.6-.045-.563-.009-1.125-.037-1.686-.086a8.367 8.367 0 0 1-.929-.142h-9.441a3.542 3.542 0 0 1-.55-.022c-.528-.008-1.057 0-1.585 0v-.351c.377-.02.753.039 1.13.025h10.341a2.412 2.412 0 0 0 .444-.082 10.85 10.85 0 0 1 1.181-.126M68.21 36.6c0-.263.277-.423.512-.421h2.054a7.848 7.848 0 0 1 .835.043c.215.012.428.043.642.064.1.019.2.036.3.05a9.057 9.057 0 0 0 1.285.093h3.965a6.326 6.326 0 0 0 .827.013 11.706 11.706 0 0 1 2.028-.227c.212-.03.429.015.639-.031.375.007.748-.041 1.123-.03 1.095 0 2.191-.015 3.284.03a3.166 3.166 0 0 0 .531.021 15.15 15.15 0 0 1 1.607.16 2.045 2.045 0 0 0 .35.065c6.769 0 7.038.4.4.4a2.4 2.4 0 0 0-.678.043c-.249.055-.505.07-.758.1-.391.031-.781.06-1.172.062-.277.047-.56-.009-.835.04q-1.7.013-3.4 0c-.668-.045-1.34-.044-2.008-.1-.167-.025-.336-.032-.5-.049-.227-.03-.449-.094-.676-.12h-5.586c-.242.033-.482.085-.725.117-.134.012-.268.027-.4.051-.274.015-.546.038-.82.056h-2.356c-.228 0-.492-.183-.466-.432m13.815.858a7.845 7.845 0 0 1 .9-.023 6.308 6.308 0 0 1 .741.019c.454.025.91-.02 1.362.029.38 0 .761.015 1.138.047.282 0 .562.045.843.062.228.024.45.081.675.118 6.277 0 6.976.4.056.4a10.406 10.406 0 0 1-1.674.181 4.027 4.027 0 0 1-.54.024c-.349.047-.7 0-1.051.046h-3.211c-1.075-.054-2.154-.052-3.224-.194a3.625 3.625 0 0 0-.54-.084h-1.908a6.131 6.131 0 0 0-1.132.145 3.971 3.971 0 0 0-.4.052c-.268.017-.538.019-.8.05-1.352.009-2.7.007-4.056 0a.779.779 0 0 1-.362-.1.388.388 0 0 1-.079-.581.737.737 0 0 1 .561-.194h3.066c.406.047.814.008 1.221.028.136.03.276.013.412.036.426.041.845.123 1.265.2.655.015 1.312 0 1.967.007a10.836 10.836 0 0 0 1.286-.143c1.16-.1 2.322-.136 3.487-.134m-12.853 1.375a.889.889 0 0 1 .444-.057h5.071c.341.024.684.032 1.024.081a2.98 2.98 0 0 0 .832.095 10.733 10.733 0 0 0 1.487-.044c.409-.039.819-.056 1.228-.082a5.063 5.063 0 0 0 .7-.022c1.206-.007 2.412 0 3.617 0 .809.04 1.62.046 2.429.107.243.027.485.054.727.092 2.161 0 7.359.4.155.4-.26.015-.51.1-.771.109-.12.018-.243.014-.362.036-.268.02-.537.02-.8.051-.208.014-.417 0-.625.008-.465.054-.935-.012-1.4.045-.677 0-1.354.007-2.03 0-.374-.054-.756.013-1.131-.042-.461.006-.919-.039-1.379-.059-.228-.032-.458-.056-.686-.092-.483-.006-.966 0-1.449 0-.28.04-.554.116-.837.144-.208 0-.416.007-.622.028h-5.32a.511.511 0 0 1-.548-.349.435.435 0 0 1 .252-.447m.438 1.55a.571.571 0 0 1 .609-.353c.384.01.771-.02 1.154.021.87.025 1.744-.027 2.613.032.68-.012 1.36.015 2.037.067.248.01.5.036.743.065a3.747 3.747 0 0 0 1.074-.042c1.3-.133 2.615-.082 3.924-.092.378.013.76-.026 1.136.02.288.018.577-.015.863.025a5.264 5.264 0 0 1 .592.026c.366 0 .729.041 1.094.061q.321.038.639.091c5.309.009 7.528.4.089.406a14.441 14.441 0 0 1-1.883.194c-.19.013-.381 0-.571.011-.433.052-.871-.014-1.3.042-.654.006-1.308 0-1.962 0-.365-.05-.735 0-1.1-.045a14.478 14.478 0 0 1-1.68-.11 3.881 3.881 0 0 0-1.415.05c-.184.025-.37.022-.553.052a13.4 13.4 0 0 1-1.522.008c-.939-.007-1.878 0-2.817 0-.454-.049-.911-.008-1.366-.027a1.372 1.372 0 0 1-.219-.058c-.117-.111-.247-.269-.176-.441m1.385.91a7.754 7.754 0 0 1 1.034.018h3.863c.319-.011.634.042.954.026.787.086 1.573-.052 2.36-.026.622.018 1.243-.053 1.866-.019.33.038.662.011.994.019.358.026.716.039 1.075.056.547.049 1.092.123 1.636.195 7.906 0 8.409.377.753.377a7.163 7.163 0 0 0-1.024.032c-.386.061-.777.092-1.165.137-.331.023-.662.059-.994.062-.185.044-.378-.006-.563.04-.325.012-.652-.008-.976.03-.91-.01-1.821.026-2.728-.03a4.673 4.673 0 0 0-.683-.02c-.361.012-.725-.026-1.084.02a10 10 0 0 1-1.171-.02h-3.575a2.51 2.51 0 0 0-.5.023c-.242 0-.537-.122-.561-.4a.493.493 0 0 1 .48-.526m.949 1.558a.548.548 0 0 1 .583-.286c.57.022 1.138-.035 1.708-.024h2.913a7.029 7.029 0 0 1 .74.017c.294.022.589 0 .884.014.484.036.972.055 1.456.1.166.024.334.037.5.049.133.023.267.037.4.051s.267.036.4.052a3.852 3.852 0 0 0 .833-.008c5.639 0 3.464.4-.351.4a3.479 3.479 0 0 0-.546.021c-.751.1-1.506.168-2.263.206a6.23 6.23 0 0 0-.8.024c-.469-.007-.939.021-1.407-.025h-2.461a.965.965 0 0 0-.228.021c-.655.01-1.311 0-1.967 0a.437.437 0 0 1-.395-.617m2.291 1.444a.533.533 0 0 1 .55-.447q3.239-.005 6.477 0c.441.047.885.012 1.328.03a3.121 3.121 0 0 0 .531.021c.425.035.851.047 1.276.082.447.038.892.087 1.337.142 4.417 0 3.119.4.351.4a5.645 5.645 0 0 0-.724.058c-.087.013-.174.023-.26.037-.615.047-1.23.109-1.847.111-.462.057-.932-.016-1.394.041-.305.008-.611.007-.916 0a.966.966 0 0 0-.231-.021h-6.018a.462.462 0 0 1-.459-.459m1.841 1.039a.609.609 0 0 1 .52-.208h1.8c.484.058.974-.012 1.458.043a2.471 2.471 0 0 0 .5-.015c.261-.025.527.022.786-.026.172 0 .344 0 .515-.026.438-.019.878.021 1.314-.027.351-.023.7.041 1.052.023s.716.024 1.075.03c.135.031.276.011.412.037.231.017.462.039.692.065.133.022.268.037.4.05.25.038.5.087.753.1a2.86 2.86 0 0 0 .481.018c6.886 0 6.819.376-.1.376a11.3 11.3 0 0 0-1.485.143c-.434.05-.873.066-1.306.1-.376-.007-.748.041-1.123.03h-2.057c-.257-.034-.517-.02-.775-.03a1.7 1.7 0 0 0-.381-.021h-2.059c-.551.05-1.106.015-1.659.025-.269-.015-.575.067-.8-.128-.033-.053-.066-.1-.1-.155a.487.487 0 0 1 .082-.412m-.359 1.459a.568.568 0 0 1 .575-.361c.777 0 1.554-.007 2.331 0 .434.034.872.05 1.306.1.234.034.47.06.7.1a6.631 6.631 0 0 0 1.265-.1c.284-.03.571-.018.853-.052.943-.017 1.888-.064 2.83 0 .208 0 .416-.007.624 0 .316.032.635.026.953.051.166.026.335.033.5.051a7.282 7.282 0 0 0 .982.095c5.355 0 1.574.375.053.376a3.166 3.166 0 0 0-.651.029 4.727 4.727 0 0 1-.675.1c-.2.025-.4.04-.6.049-.434.032-.87.044-1.305.049a1.082 1.082 0 0 1-.23.021h-1.707a.925.925 0 0 1-.183-.02c-.482 0-.963-.033-1.444-.062-.15-.023-.3-.034-.453-.049a2.58 2.58 0 0 0-1.215 0c-.134.012-.268.027-.4.051-.268.029-.538.017-.8.051-.958.011-1.917 0-2.875 0a.425.425 0 0 1-.433-.491m.754.948c.357-.019.717.019 1.074-.023a6.94 6.94 0 0 1 .958.02 12.46 12.46 0 0 1 1.527.107 11.771 11.771 0 0 0 1.534.143c.248-.006.5.013.745-.01a9.223 9.223 0 0 1 1.39-.116c.243-.044.492 0 .736-.04a32.121 32.121 0 0 1 3.632.1c.194.023.384.074.578.094 5.925 0 6.588.4-.047.4a9.072 9.072 0 0 1-1.275.157c-.967.07-1.941.041-2.912.039-.185-.045-.378 0-.563-.04a8.033 8.033 0 0 1-1.531-.17c-.281-.027-.564 0-.846-.012a8.238 8.238 0 0 0-.976.083c-.526.066-1.054.108-1.583.143H76.45a.443.443 0 0 1-.45-.421.509.509 0 0 1 .477-.424m.706 1.313a1.989 1.989 0 0 1 .826-.086 4.029 4.029 0 0 1 .632.02 5.866 5.866 0 0 1 .8.048c.544.033 1.081.127 1.622.181h4.371a1.262 1.262 0 0 0 .374-.03 5.855 5.855 0 0 1 2.834.053c6.62 0 1.88.377.357.378a1.67 1.67 0 0 0-.543.043 4.68 4.68 0 0 1-.842.177 4.777 4.777 0 0 1-1.92-.189.83.83 0 0 0-.31-.032c-1.426.006-2.852-.007-4.277.006-.64.092-1.283.165-1.926.216-.542.013-1.084 0-1.626.007a.6.6 0 0 1-.555-.222.412.412 0 0 1 .179-.57m1.4 1.71a.485.485 0 0 1 .523-.493c.273-.023.494.165.753.213a1.973 1.973 0 0 0 .554.04c7.094 0 9.128.4-.352.4-.307 0-.573.188-.88.194a.484.484 0 0 1-.6-.355z" transform="translate(-68.208 -32.538)"/>
    </g>
</svg>
