<?xml version="1.0" standalone="no"?>
<!DOCTYPE svg PUBLIC "-//W3C//DTD SVG 20010904//EN"
 "http://www.w3.org/TR/2001/REC-SVG-20010904/DTD/svg10.dtd">
<svg version="1.0" xmlns="http://www.w3.org/2000/svg"
 width="512.000000pt" height="512.000000pt" viewBox="0 0 512.000000 512.000000"
 preserveAspectRatio="xMidYMid meet">
<metadata>
Created by potrace 1.11, written by Peter Selinger 2001-2013
</metadata>
<g transform="translate(0.000000,512.000000) scale(0.100000,-0.100000)"
fill="#000000" stroke="none">
<path d="M3137 4686 c-65 -18 -122 -74 -144 -143 -14 -45 -15 -60 -3 -110 10
-47 21 -67 59 -104 28 -29 61 -51 86 -58 26 -7 176 -11 429 -11 l390 0 -1007
-1002 c-830 -827 -1008 -1010 -1018 -1041 -6 -22 -9 -68 -7 -103 5 -77 43
-137 109 -171 56 -30 143 -31 202 -2 29 14 342 321 1034 1017 l993 997 0 -386
c0 -446 2 -461 74 -527 43 -40 96 -62 146 -62 88 0 180 69 205 153 23 78 22
1352 -1 1420 -22 65 -86 121 -153 136 -79 17 -1330 14 -1394 -3z"/>
<path d="M985 4053 c-138 -20 -253 -75 -351 -166 -91 -84 -146 -168 -182 -272
l-27 -80 0 -1295 0 -1295 27 -80 c69 -202 243 -365 449 -422 60 -17 149 -18
1339 -18 1174 0 1280 1 1337 17 104 29 190 78 269 151 91 84 146 168 182 272
l27 80 0 730 c0 728 0 730 -22 770 -41 77 -105 115 -193 115 -88 0 -152 -38
-193 -115 -22 -40 -22 -47 -27 -740 -5 -766 -2 -724 -64 -787 -63 -62 24 -58
-1316 -58 -1097 0 -1225 2 -1256 16 -43 20 -81 59 -105 106 -19 37 -19 73 -17
1270 l3 1233 30 41 c16 23 45 52 64 65 l35 24 705 5 c699 5 706 5 746 27 77
41 115 105 115 193 0 88 -38 152 -115 193 -40 22 -44 22 -735 23 -382 1 -708
-1 -725 -3z"/>
</g>
</svg>
