<svg height="512pt" viewBox="0 0 512 512.00038" width="512pt" xmlns="http://www.w3.org/2000/svg" xmlns:xlink="http://www.w3.org/1999/xlink"><linearGradient id="a" gradientUnits="userSpaceOnUse" x1="169.9940010834" x2="299.4934135904" y1="71.98622701" y2="349.0548448864"><stop offset="0" stop-color="#fffc00"/><stop offset="1" stop-color="#ffe600"/></linearGradient><linearGradient id="b"><stop offset="0" stop-color="#ffe600" stop-opacity="0"/><stop offset="1" stop-color="#ffce00"/></linearGradient><linearGradient id="c" gradientUnits="userSpaceOnUse" x1="364.2825237824" x2="-379.5864327114" xlink:href="#b" y1="314.0868361356" y2="-84.9521808166"/><linearGradient id="d" gradientUnits="userSpaceOnUse" x1="256.0003" x2="256.0003" xlink:href="#b" y1="437.383215389" y2="504.4720097064"/><linearGradient id="e" gradientUnits="userSpaceOnUse" x1="384.5898579984" x2="285.2064992162" xlink:href="#b" y1="480.5350958916" y2="302.8498367974"/><path d="m420.421875 503.234375c-109.503906 11.6875-219.339844 11.6875-328.84375 0-43.664063-4.660156-78.152344-39.148437-82.8125-82.816406-11.6875-109.503907-11.6875-219.335938 0-328.839844 4.660156-43.664063 39.148437-78.152344 82.8125-82.8125 109.503906-11.6875 219.335937-11.6875 328.839844 0 43.667969 4.660156 78.15625 39.148437 82.816406 82.8125 11.6875 109.503906 11.6875 219.335937 0 328.839844-4.660156 43.667969-39.144531 78.15625-82.8125 82.816406zm0 0" fill="url(#a)"/><path d="m475.386719 110.097656c-4.132813-38.746094-34.734375-69.351562-73.484375-73.488281-97.171875-10.367187-194.632813-10.367187-291.804688 0-38.746094 4.136719-69.351562 34.742187-73.488281 73.488281-10.367187 97.171875-10.367187 194.632813 0 291.800782 4.136719 38.75 34.742187 69.355468 73.488281 73.488281 97.171875 10.371093 194.632813 10.371093 291.800782 0 38.75-4.132813 69.355468-34.738281 73.488281-73.488281 10.371093-97.167969 10.371093-194.628907 0-291.800782zm0 0" fill="url(#c)"/><path d="m7.671875 409.804688c.351563 3.539062.714844 7.078124 1.09375 10.617187 4.660156 43.664063 39.148437 78.152344 82.816406 82.8125 109.503907 11.6875 219.335938 11.6875 328.839844 0 43.667969-4.660156 78.152344-39.148437 82.8125-82.8125.378906-3.539063.742187-7.078125 1.097656-10.617187zm0 0" fill="url(#d)"/><path d="m503.234375 420.417969c3.910156-36.625 6.503906-73.285157 7.796875-109.960938l-184.453125-184.453125c-23.933594-26.222656-56.191406-28.6875-67.3125-28.6875h-.015625c-.289062 0-.5625 0-.824219.003906 0 0-5.410156.054688-5.839843.054688-13.929688 0-61.136719 3.878906-83.410157 53.8125-7.488281 16.800781-5.695312 45.332031-4.253906 68.257812.167969 2.703126.351563 5.511719.503906 8.222657-1.152343.636719-3.257812 1.433593-6.570312 1.433593-4.421875 0-9.644531-1.398437-15.527344-4.152343-1.5625-.734375-3.363281-1.097657-5.351563-1.097657-6.890624 0-15.128906 4.53125-16.414062 11.285157-.675781 3.550781.308594 8.289062 6.957031 12.988281 1.109375 1.761719 29.472657 30.195312 31.539063 31.789062-3.128906 6.820313-23.984375 48.710938-67.023438 55.800782-3.53125.582031-6.050781 3.726562-5.855468 7.296875.058593 1.0625.3125 2.121093.746093 3.144531 1.023438 2.390625 3.027344 4.585938 6.023438 6.609375l159.226562 159.222656c55.773438.101563 111.550781-2.808593 167.242188-8.753906 43.671875-4.660156 78.15625-39.148437 82.816406-82.816406zm0 0" fill="url(#e)"/><path d="m258.089844 411.183594c-.851563 0-1.691406-.023438-2.527344-.066406h-.003906c-.53125.042968-1.089844.066406-1.648438.066406-19.589844 0-32.160156-8.886719-44.320312-17.484375-8.394532-5.929688-16.316406-11.53125-25.648438-13.085938-4.554687-.753906-9.089844-1.136719-13.472656-1.136719-7.890625 0-14.117188 1.21875-18.664062 2.109376-2.761719.539062-5.148438 1.003906-6.957032 1.003906-1.890625 0-3.941406-.410156-4.832031-3.453125-.777344-2.640625-1.335937-5.195313-1.875-7.664063-1.386719-6.363281-2.375-10.273437-5.039063-10.683594-31.070312-4.796874-39.960937-11.34375-41.945312-15.984374-.28125-.664063-.441406-1.328126-.476562-1.988282-.101563-1.785156 1.160156-3.359375 2.925781-3.648437 47.757812-7.863281 69.175781-56.675781 70.066406-58.75.023437-.058594.050781-.113281.074219-.171875 2.925781-5.921875 3.496094-11.066406 1.707031-15.277344-3.277344-7.726562-13.964844-11.121094-21.042969-13.367188-1.730468-.546874-3.371094-1.066406-4.667968-1.574218-14.117188-5.582032-15.292969-11.3125-14.738282-14.234375.945313-4.976563 7.597656-8.445313 12.972656-8.445313 1.476563 0 2.773438.261719 3.867188.773438 6.351562 2.976562 12.074219 4.484375 17.015625 4.484375 6.824219 0 9.800781-2.871094 10.167969-3.246094-.175782-3.234375-.390625-6.609375-.609375-10.09375-1.421875-22.578125-3.1875-50.636719 3.957031-66.652344 21.410156-48.007812 66.816406-51.734375 80.21875-51.734375.34375 0 5.878906-.0625 5.878906-.0625l.792969-.003906c13.4375 0 58.941406 3.738281 80.363281 51.769531 7.144532 16.027344 5.378906 44.105469 3.953125 66.667969l-.058593.980469c-.199219 3.144531-.390626 6.199219-.550782 9.121093.34375.347657 3.082032 2.988282 9.269532 3.222657h.007812c4.703125-.179688 10.105469-1.679688 16.035156-4.457031 1.742188-.808594 3.671875-.980469 4.984375-.980469 2.007813 0 4.042969.386719 5.730469 1.09375l.101562.039062c4.796876 1.703125 7.941407 5.0625 8.007813 8.578125.0625 3.304688-2.460937 8.28125-14.851563 13.175782-1.285156.503906-2.925781 1.023437-4.664062 1.578124-7.082031 2.246094-17.769531 5.636719-21.042969 13.359376-1.792969 4.214843-1.21875 9.351562 1.703125 15.28125.027344.054687.054688.109374.078125.171874.890625 2.070313 22.289063 50.871094 70.070313 58.746094 1.761718.289063 3.023437 1.863282 2.925781 3.648438-.039063.671875-.203125 1.34375-.488281 2-1.96875 4.609375-10.855469 11.144531-41.9375 15.949218-2.535156.386719-3.519532 3.695313-5.035156 10.636719-.554688 2.523438-1.109376 5.003907-1.878907 7.613281-.660156 2.261719-2.070312 3.320313-4.445312 3.320313h-.386719c-1.644531 0-3.988281-.292969-6.953125-.878906-5.261719-1.027344-11.164063-1.976563-18.667969-1.976563-4.382812 0-8.917968.382813-13.476562 1.136719-9.324219 1.554687-17.242188 7.144531-25.621094 13.070313-12.179688 8.617187-24.753906 17.503906-44.347656 17.503906zm0 0" fill="#fff"/><path d="m259.265625 104.316406c12.71875.003906 56.523437 3.414063 77.167969 49.695313 6.792968 15.234375 5.054687 42.84375 3.65625 65.023437-.222656 3.515625-.4375 6.921875-.609375 10.183594l-.078125 1.398438.9375 1.042968c.375.421875 3.910156 4.113282 11.765625 4.417969l.132812.003906.128907-.003906c5.195312-.195313 11.046874-1.808594 17.40625-4.789063.933593-.4375 2.179687-.648437 3.496093-.648437 1.503907 0 3.097657.28125 4.414063.835937l.199218.078126c3.332032 1.167968 5.6875 3.371093 5.730469 5.363281.015625 1.132812-.828125 5.183593-12.640625 9.851562-1.15625.457031-2.675781.9375-4.4375 1.496094-7.683594 2.441406-19.296875 6.125-23.207031 15.328125-2.203125 5.199219-1.605469 11.320312 1.785156 18.199219 1.398438 3.257812 23.335938 52.691406 72.71875 60.828125-.015625.226562-.070312.488281-.203125.789062-.839844 1.972656-6.160156 8.777344-39.257812 13.886719-5.183594.800781-6.453125 6.601563-7.925782 13.351563-.527343 2.414062-1.070312 4.851562-1.816406 7.375-.222656.761718-.265625.808593-1.085937.808593-.113281 0-.238281 0-.386719 0-1.46875 0-3.699219-.304687-6.285156-.8125-4.691406-.917969-11.125-2.042969-19.335938-2.042969-4.585937 0-9.3125.398438-14.046875 1.183594-10.128906 1.6875-18.371093 7.515625-27.097656 13.679688-11.714844 8.285156-23.824219 16.84375-42.300781 16.84375-.804688 0-1.59375-.023438-2.382813-.0625l-.207031-.011719-.210938.019531c-.453124.039063-.910156.054688-1.378906.054688-18.472656 0-30.589844-8.558594-42.300781-16.839844-8.722656-6.167969-16.96875-11.996094-27.09375-13.683594-4.738281-.785156-9.460937-1.183594-14.046875-1.183594-8.210938 0-14.644531 1.253907-19.339844 2.171876-2.582031.507812-4.816406.9375-6.28125.9375-1.199218 0-1.222656-.066407-1.476562-.933594-.742188-2.523438-1.285156-5.023438-1.8125-7.433594-1.472656-6.753906-2.75-12.589844-7.925782-13.390625-33.101562-5.109375-38.417968-11.933594-39.257812-13.902344-.132812-.304687-.1875-.570312-.199219-.800781 49.378907-8.136719 71.316407-57.5625 72.710938-60.828125 3.394531-6.886719 3.996093-13.003906 1.792969-18.195313-3.90625-9.210937-15.523438-12.894531-23.210938-15.339843-1.761719-.554688-3.28125-1.035157-4.4375-1.496094-9.980469-3.941406-13.046875-7.910156-12.585938-10.316406.527344-2.777344 5.335938-5.597657 9.535157-5.597657.945312 0 1.769531.152344 2.378906.4375 6.820313 3.191407 13.046875 4.816407 18.5 4.816407 8.582031 0 12.40625-3.996094 12.8125-4.449219l.929687-1.039062-.078124-1.394532c-.171876-3.253906-.386719-6.660156-.609376-10.175781-1.398437-22.179687-3.132812-49.765625 3.660157-65.007813 20.5625-46.109374 64.152343-49.664062 77.023437-49.664062.316406 0 5.910156-.054688 5.910156-.054688.238282 0 .488282-.003906.757813-.003906m0-7h-.015625c-.289062 0-.5625 0-.824219.003906 0 0-5.410156.054688-5.839843.054688-13.929688 0-61.136719 3.878906-83.410157 53.816406-7.488281 16.796875-5.695312 45.328125-4.253906 68.253906.167969 2.707032.351563 5.511719.503906 8.222657-1.152343.640625-3.257812 1.433593-6.570312 1.433593-4.421875 0-9.644531-1.394531-15.527344-4.152343-1.5625-.730469-3.363281-1.097657-5.351563-1.097657-6.890624 0-15.128906 4.53125-16.414062 11.289063-.925781 4.863281 1.253906 11.960937 16.890625 18.136719 1.414063.558594 3.109375 1.097656 4.902344 1.664062 6.460937 2.050782 16.226562 5.148438 18.875 11.390625 1.371093 3.234375.824219 7.398438-1.625 12.367188-.050781.113281-.105469.226562-.15625.339843-.859375 2-21.527344 49.117188-67.414063 56.671876-3.53125.582031-6.050781 3.730468-5.855468 7.300781.058593 1.0625.3125 2.121093.746093 3.144531 3.441407 8.050781 17.972657 13.953125 44.425781 18.058594.882813 1.195312 1.800782 5.417968 2.367188 7.992187.550781 2.539063 1.121094 5.15625 1.933594 7.921875.796875 2.714844 2.867187 5.960938 8.191406 5.960938 2.152344 0 4.691406-.496094 7.628906-1.074219 4.40625-.859375 10.441406-2.039063 17.996094-2.039063 4.1875 0 8.53125.363282 12.902344 1.089844 8.535156 1.421875 15.789062 6.546875 24.1875 12.484375 12.027344 8.503907 25.648437 18.132813 46.351562 18.132813.566406 0 1.140625-.019532 1.703125-.0625.675781.03125 1.546875.0625 2.472657.0625 20.710937 0 34.328124-9.628906 46.347656-18.128906 8.417968-5.945313 15.664062-11.070313 24.199218-12.488282 4.367188-.726562 8.710938-1.089844 12.902344-1.089844 7.207032 0 12.90625.917969 17.996094 1.910157 3.1875.625 5.75.941406 7.625.941406l.195312.003906h.191407c3.929687 0 6.707031-2.078125 7.804687-5.851562.800782-2.703125 1.371094-5.253907 1.933594-7.835938.5625-2.566406 1.476562-6.773437 2.359375-7.960937 26.457031-4.109375 40.984375-10 44.421875-18.015625.441406-1.027344.695312-2.09375.757812-3.164063.199219-3.570312-2.324218-6.714844-5.851562-7.296875-45.910156-7.566406-66.5625-54.671875-67.421875-56.671875-.046875-.113281-.097656-.226562-.15625-.339844-2.449219-4.96875-2.992187-9.128906-1.621094-12.363281 2.648438-6.242187 12.410157-9.34375 18.871094-11.390625 1.804687-.574218 3.503906-1.113281 4.902344-1.664062 11.445312-4.519532 17.1875-10.074219 17.066406-16.5-.097656-5.050782-4.03125-9.554688-10.28125-11.785156l-.019531-.007813c-2.101563-.871094-4.597656-1.347656-7.042969-1.347656-1.667969 0-4.148437.226562-6.460937 1.308593-5.445313 2.550782-10.339844 3.9375-14.554688 4.128907-2.796875-.132813-4.628906-.835938-5.671875-1.410157.128906-2.328124.28125-4.722656.4375-7.226562l.058594-.972656c1.449219-22.941406 3.246093-51.496094-4.25-68.308594-22.28125-49.953125-69.589844-53.839844-83.558594-53.839844zm0 0" fill="#030303"/></svg>