<svg id="Capa_1" enable-background="new 0 0 512 512" height="512" viewBox="0 0 512 512" width="512" xmlns="http://www.w3.org/2000/svg"><path d="m475.074 0h-438.148c-20.395 0-36.926 16.531-36.926 36.926v438.148c0 20.395 16.531 36.926 36.926 36.926h438.148c20.395 0 36.926-16.531 36.926-36.926v-438.148c0-20.395-16.531-36.926-36.926-36.926zm-90.827 195.959v34.613c-16.322.006-32.181-3.192-47.137-9.503-9.617-4.06-18.577-9.292-26.772-15.613l.246 106.542c-.103 23.991-9.594 46.532-26.772 63.51-13.98 13.82-31.695 22.609-50.895 25.453-4.512.668-9.103 1.011-13.746 1.011-20.553 0-40.067-6.659-56.029-18.943-3.004-2.313-5.876-4.82-8.612-7.521-18.617-18.4-28.217-43.34-26.601-69.575 1.234-19.971 9.229-39.017 22.558-53.945 17.635-19.754 42.306-30.719 68.684-30.719 4.643 0 9.234.348 13.746 1.017v12.798 35.601c-4.277-1.411-8.846-2.187-13.603-2.187-24.1 0-43.597 19.662-43.237 43.779.228 15.431 8.658 28.92 21.09 36.355 5.842 3.495 12.564 5.659 19.737 6.053 5.62.308 11.016-.474 16.013-2.124 17.218-5.688 29.639-21.861 29.639-40.935l.057-71.346v-130.252h47.668c.046 4.723.525 9.332 1.416 13.797 3.598 18.075 13.786 33.757 27.966 44.448 12.364 9.326 27.76 14.854 44.448 14.854.011 0 .148 0 .137-.011v12.843z"/></svg>